<?xml version="1.0" encoding="utf-8"?>
<!-- Generator: Adobe Illustrator 26.0.3, SVG Export Plug-In . SVG Version: 6.00 Build 0)  -->
<svg version="1.1" id="INSTRUCCIONES_P4" xmlns="http://www.w3.org/2000/svg" xmlns:xlink="http://www.w3.org/1999/xlink" x="0px"
	 y="0px" viewBox="0 0 659.6 459" style="enable-background:new 0 0 659.6 459;" xml:space="preserve">
<style type="text/css">
	.st0{fill:#4FC6D8;}
	.st1{fill:#029EAA;}
</style>
<g id="P4">
	<g id="Ruleta">
		<path class="st0" d="M561.1,330.8c-28.5-10-55.9-24.4-84.1-33.3c-34.2-11.2-47.9-64-47.9-64L400.3,41.6l-14.7,1.1
			c-0.2-1.1-0.6-1.4-1.1-1.1c-0.6,0.6-1.4,1-2.3,1.1c-13.9,0.9-34,2.1-53,2.5s-39.1-1.6-53-2.5c-0.9-0.5-1.8-0.7-2.3-1.1
			s-0.7,0-1.1,1.1l-14.7-1.1l-28.8,191.9c0,0-13.7,52.8-47.9,64c-27.9,9.1-55.6,23.5-84.1,33.3c-16.7,6-76.8,39.8-76.8,94.6
			c0,8,206.8,3.9,308.7,1.4c101.9,2.5,308.7,6.6,308.7-1.4C638.1,370.4,577.8,336.6,561.1,330.8z"/>
		<path class="st1" d="M237.1,264.4c0,0-12.6,52.7-44.3,63.9c-25.8,9.2-51.4,23.6-77.7,33.4c-12.6,4.8-52.3,28.3-66.3,66.9
			c60.1,2.6,201.8-0.4,280.4-2.2c78.6,1.8,220.3,4.8,280.4,2.2c-14-38.6-53.5-62.3-66.3-66.9c-26.3-10.1-51.9-24.5-77.7-33.4
			c-31.7-11.2-44.3-63.9-44.3-63.9l-26.7-192l-13.5,1.1c-0.3-1.1-0.7-1.3-0.9-1.1c-0.6,0.6-1.3,0.9-2.1,1.1
			c-12.8,1-31.3,2.1-49.1,2.6s-36.1-1.6-49.2-2.6c-0.7-0.2-1.4-0.6-2-1.1c-0.5-0.5-0.7,0-0.9,1.1l-13.5-1.1L237.1,264.4z"/>
	</g>
</g>
</svg>
