<?xml version="1.0" encoding="utf-8"?>
<!-- Generator: Adobe Illustrator 26.0.3, SVG Export Plug-In . SVG Version: 6.00 Build 0)  -->
<svg version="1.1" id="Objetos" xmlns="http://www.w3.org/2000/svg" xmlns:xlink="http://www.w3.org/1999/xlink" x="0px" y="0px"
	 viewBox="0 0 148.5 102.2" style="enable-background:new 0 0 148.5 102.2;" xml:space="preserve">
<style type="text/css">
	.st0{fill:#18488C;}
	.st1{fill:#BC4222;}
	.st2{fill:#D84A2E;}
	.st3{fill:#E56C5C;}
	.st4{fill:#A0980B;}
	.st5{fill:#7BDD26;}
	.st6{fill:#E5CF48;}
	.st7{fill:#FBEA5E;}
	.st8{fill:#A38878;}
	.st9{fill:#C79B4C;}
	.st10{fill:#504837;}
	.st11{fill:#A8E573;}
	.st12{fill:#B8F47D;}
	.st13{fill:#E0F4C9;}
	.st14{fill:#878787;}
	.st15{fill:#ADADAD;}
	.st16{fill:#CCCCCC;}
	.st17{fill:#262626;}
	.st18{fill:#4C4C4C;}
	.st19{fill:none;stroke:#939393;stroke-width:2;stroke-miterlimit:10;}
	.st20{fill:#E86D9E;}
	.st21{fill:#EF95BA;}
	.st22{fill:#C4C4C4;stroke:#4C4C4C;stroke-width:6.1554;stroke-miterlimit:9.9998;}
	.st23{fill:#757575;}
	.st24{fill:#00AAC3;}
	.st25{fill:#5E5E5E;}
</style>
<g id="Computador">
	<path class="st14" d="M16.7,20.4c0,0-0.9-2,1.4-1.9c2.3,0.2,54.4,2.6,54.4,2.6s1.4,0.3,2,2s10.8,39.8,10.8,39.8s1,2.4,0,2.7
		S35.8,77.7,35.8,77.7s-3.9,3.2-5-1.8C29.7,70.9,16.7,20.4,16.7,20.4z"/>
	<path class="st15" d="M32.4,76.2l-0.9,1.9l1.9,1.1l48.2,11.2c0,0,1.3,1.2,4.3,0s44-17.4,44-17.4s2-1,1.6-2.3s-43.3-5.9-43.3-5.9
		s-2.5,0.2-5.3,0.9C80,66.3,32.4,76.2,32.4,76.2z"/>
	<path class="st16" d="M85.2,88.5h-2.5L32.3,76.3l-0.8,1.8l1.9,1.1l48.2,11.2c0,0,1.3,1.2,4.3,0s44-17.4,44-17.4s1.8-0.9,1.6-2.1
		L85.2,88.5z"/>
	<polygon class="st17" points="19.7,22.8 32.6,73.3 84,62.8 73.9,24.9 	"/>
	<path class="st16" d="M84,78.8c0.3-0.1,14,3.2,14,3.2l16.4-6.2l-12.3-2.5L84,78.8z"/>
	<polygon class="st18" points="42.2,76.9 64.1,81.5 110.5,68.4 89.8,66 	"/>
	<path class="st19" d="M45.1,77.5c0,0.6,47.9-11.2,47.9-11.2"/>
	<line class="st19" x1="50.3" y1="78.7" x2="97.4" y2="66.7"/>
	<line class="st19" x1="55.2" y1="79.7" x2="102.1" y2="67.4"/>
	<line class="st19" x1="60.1" y1="80.8" x2="105.8" y2="67.8"/>
</g>
</svg>
