<?xml version="1.0" encoding="utf-8"?>
<!-- Generator: Adobe Illustrator 26.0.3, SVG Export Plug-In . SVG Version: 6.00 Build 0)  -->
<svg version="1.1" id="HOSPITAL" xmlns="http://www.w3.org/2000/svg" xmlns:xlink="http://www.w3.org/1999/xlink" x="0px" y="0px"
	 viewBox="0 0 1680 1050" style="enable-background:new 0 0 1680 1050;" xml:space="preserve">
<style type="text/css">
	.st0{fill:#B5D0EE;}
	.st1{fill:none;stroke:#AAAAAA;stroke-width:5;stroke-miterlimit:10;}
	.st2{fill:#7DA9C9;}
	.st3{fill:#9AC3E2;}
	.st4{fill:#A0CAD8;}
	.st5{fill:#6798B7;}
	.st6{fill:#97AFBF;}
	.st7{fill:#C0D5ED;}
	.st8{fill:#A3C7E5;}
	.st9{fill:#98BED8;}
	.st10{fill:#667F73;}
	.st11{fill:#9DBBAE;}
	.st12{fill:#B5D0EE;stroke:#00ADC6;stroke-width:4;stroke-miterlimit:10;}
	.st13{display:none;}
	.st14{display:inline;fill:#2BC354;}
	.st15{display:inline;fill:#06951B;}
	.st16{display:inline;}
	.st17{enable-background:new    ;}
	.st18{fill:#D5AA28;}
	.st19{fill:#C29A25;}
	.st20{fill:#C49C25;}
	.st21{fill:#F0BF2D;}
	.st22{fill:#D2A728;}
	.st23{fill:#C19A24;}
	.st24{fill:#9190AC;}
	.st25{fill:#CC87A2;}
	.st26{fill:#8AB2BC;}
	.st27{fill:#008B99;}
	.st28{fill:#128D93;}
	.st29{fill:#01AAC4;}
	.st30{fill:#F4E8D7;}
	.st31{fill:#9AA1A5;}
	.st32{fill:#564D41;}
	.st33{fill:#FAD085;}
	.st34{fill:#DFE9EF;stroke:#576F84;stroke-width:5;stroke-miterlimit:10;}
	.st35{fill:none;stroke:#576F84;stroke-width:5;stroke-miterlimit:10;}
	.st36{display:inline;fill:#A1CAD8;}
	.st37{display:inline;fill:#F9B9A2;}
	.st38{display:inline;opacity:0.56;fill:#C8A498;enable-background:new    ;}
	.st39{fill:#5D4D49;}
	.st40{fill:#96736B;}
	.st41{display:inline;fill:#3E65A0;}
	.st42{display:inline;opacity:0.22;fill:#3E65A0;enable-background:new    ;}
	.st43{display:inline;fill:#5D4D49;}
	.st44{display:inline;fill:#C0D6EE;}
	.st45{display:inline;opacity:0.44;fill:#3E65A0;enable-background:new    ;}
	.st46{display:inline;fill:#404040;}
	.st47{fill:#FAD6DE;}
</style>
<g id="CLINICA">
	<g id="BACK">
		<rect class="st0" width="1680" height="1050"/>
		<line class="st1" x1="1677.3" y1="319.8" x2="1117.3" y2="0.2"/>
		<polygon class="st2" points="658.6,80.3 1015.6,286.9 1015,148.1 757.4,0 657.4,0 		"/>
		<polygon class="st2" points="1677.6,670 1321.9,463.4 1321.9,326.6 1675.7,527.7 		"/>
		<line class="st1" x1="-1.1" y1="113.9" x2="202.1" y2="-3.4"/>
		<polygon class="st3" points="658.6,79.7 0,459.9 0,0 657.5,1.7 		"/>
		<polygon class="st4" points="1679.9,1050.2 1679.9,671 657.9,81 0.8,461.8 0.8,1050.2 		"/>
		<polygon class="st5" points="0,322.8 0,459.9 658.6,79.7 657.4,0 557.8,0 		"/>
		<polygon class="st3" points="1018.2,11.9 1018.2,288.8 1318.6,461.5 1317.3,185.2 		"/>
		<polygon class="st2" points="1016,8.8 1018.2,290.8 1258.4,149.6 1258.4,151.5 		"/>
		<g>
			<polygon class="st6" points="46.8,417.6 56.3,462.2 235.5,357.9 226.3,312.3 			"/>
			<polygon class="st7" points="47,417 107.6,451.5 287.5,347.9 226.2,312.7 			"/>
			<polygon class="st8" points="34,355 47,417 226.2,312.7 215.1,250.8 			"/>
			<polygon class="st8" points="107,451.9 116.5,496.5 295.7,392.2 288.1,347.7 			"/>
			<path class="st9" d="M263,337l-27.7-16.1c-5.3-3.1-11.9-3.1-17.2,0l-124,71.7c-3.5,2-6.2,5.2-7.6,9c1.4,3.8,4,7,7.6,9l27.1,15.4
				c5.2,3,11.6,3.1,16.9,0.2l124.6-71c3.7-2,6.5-5.3,7.8-9.2C269.1,342.2,266.4,339.1,263,337z"/>
		</g>
		<g>
			<polygon class="st6" points="345.2,239 354.7,283.6 533.9,179.3 524.8,133.7 			"/>
			<polygon class="st7" points="345.4,238.5 406,273 585.9,169.4 524.6,134.2 			"/>
			<polygon class="st8" points="332.4,176.5 345.4,238.5 524.6,134.2 513.5,72.3 			"/>
			<polygon class="st8" points="405.4,273.3 414.9,318 594.1,213.7 586.5,169.1 			"/>
			<path class="st9" d="M561.4,158.4l-27.7-16.1c-5.3-3.1-11.9-3.1-17.2,0l-124,71.7c-3.5,2-6.2,5.2-7.6,9c1.4,3.8,4,7,7.6,9
				l27.1,15.4c5.2,3,11.6,3.1,16.9,0.2l124.6-71c3.7-2,6.5-5.3,7.8-9.2C567.5,163.6,564.8,160.5,561.4,158.4z"/>
		</g>
		<g>
			<polygon class="st6" points="784.9,106.7 775.8,152.3 955,256.6 964.5,212 			"/>
			<polygon class="st7" points="785.1,107.1 723.8,142.3 903.7,245.9 964.3,211.4 			"/>
			<polygon class="st8" points="796.2,45.2 785.1,107.1 964.3,211.4 977.3,149.4 			"/>
			<polygon class="st8" points="723.2,142.1 715.6,186.6 894.8,290.9 904.3,246.3 			"/>
			<path class="st9" d="M740.8,140.4c1.3,3.9,4.1,7.2,7.8,9.2l124.6,71c5.3,2.9,11.7,2.8,16.9-0.2l27.1-15.4c3.6-2,6.2-5.2,7.6-9
				c-1.4-3.8-4.1-7-7.6-9l-124-71.7c-5.3-3.1-11.9-3.1-17.2,0l-27.7,16.1C744.9,133.5,742.2,136.6,740.8,140.4z"/>
		</g>
		<g>
			<polygon class="st6" points="1410.4,465.4 1401.3,511 1580.5,615.3 1590,570.6 			"/>
			<polygon class="st7" points="1410.6,465.8 1349.3,501 1529.2,604.6 1589.8,570.1 			"/>
			<polygon class="st8" points="1421.7,403.9 1410.6,465.8 1589.8,570.1 1602.8,508.1 			"/>
			<polygon class="st8" points="1348.7,500.7 1341.1,545.3 1520.3,649.6 1529.8,604.9 			"/>
			<path class="st9" d="M1366.3,499.1c1.3,3.9,4.1,7.2,7.8,9.2l124.6,71c5.3,2.9,11.7,2.8,16.9-0.2l27.1-15.4c3.6-2,6.2-5.2,7.6-9
				c-1.4-3.8-4.1-7-7.6-9l-124-71.7c-5.3-3.1-11.9-3.1-17.2,0l-27.7,16.1C1370.4,492.2,1367.7,495.3,1366.3,499.1z"/>
		</g>
		<g id="niveles">
			<g id="cojin">
				<path class="st10" d="M349.5,778.8l-44,25.3c-8.2,4.7-11.1,15.2-6.3,23.5c1.5,2.6,3.7,4.8,6.3,6.3l43.1,24.9
					c5.2,3,11.6,3.1,16.9,0.2l44.6-24.7c8.3-4.6,11.3-15.1,6.7-23.4c-1.5-2.7-3.7-5-6.4-6.5l-43.7-25.5
					C361.4,775.8,354.8,775.8,349.5,778.8z"/>
				<path class="st11" d="M410.4,804.4l-43.7-25.5c-5.3-3.1-11.9-3.1-17.2,0l-44,25.3c-3.5,2-6.2,5.2-7.6,9c1.4,3.8,4,7,7.6,9
					l43.1,24.9c5.2,3,11.6,3.1,16.9,0.2l44.6-24.7c3.7-2,6.4-5.3,7.8-9.2C416.6,809.6,413.9,806.4,410.4,804.4z"/>
				<ellipse class="st12" cx="358.2" cy="808.4" rx="37" ry="19.7"/>
			</g>
			<g id="cojin-2">
				<path class="st10" d="M228.6,640.8l-44,25.3c-8.2,4.7-11.1,15.2-6.3,23.5c1.5,2.6,3.7,4.8,6.3,6.3l43.1,24.8
					c5.2,3,11.6,3.1,16.9,0.2l44.6-24.7c8.3-4.6,11.3-15.1,6.7-23.4c-1.5-2.7-3.7-5-6.4-6.5l-43.7-25.5
					C240.6,637.8,234,637.8,228.6,640.8z"/>
				<path class="st11" d="M289.6,666.4l-43.7-25.5c-5.3-3.1-11.9-3.1-17.2,0l-44,25.3c-3.5,2-6.2,5.2-7.6,9c1.4,3.8,4.1,7,7.6,9
					l43.1,24.8c5.2,3,11.6,3.1,16.9,0.2l44.6-24.7c3.7-2,6.4-5.3,7.8-9.2C295.8,671.6,293.1,668.4,289.6,666.4z"/>
				<ellipse class="st12" cx="237.3" cy="670.3" rx="37.1" ry="19.7"/>
			</g>
			<g id="cojin-3">
				<path class="st10" d="M229.4,501.8l-44,25.3c-8.2,4.7-11.1,15.3-6.3,23.5c1.5,2.6,3.7,4.8,6.3,6.3l43.1,24.8
					c5.2,3,11.6,3.1,16.9,0.2l44.6-24.7c8.3-4.6,11.3-15.1,6.7-23.4c-1.5-2.7-3.7-5-6.4-6.5l-43.7-25.5
					C241.3,498.8,234.7,498.7,229.4,501.8z"/>
				<path class="st11" d="M290.4,527.3l-43.7-25.5c-5.3-3.1-11.9-3.1-17.2,0l-44,25.3c-3.5,2-6.2,5.2-7.6,9c1.4,3.8,4,7,7.6,9
					l43.1,24.8c5.2,3,11.6,3.1,16.9,0.2l44.6-24.6c3.7-2,6.5-5.3,7.8-9.2C296.5,532.5,293.8,529.4,290.4,527.3z"/>
				<ellipse class="st12" cx="238.1" cy="531.3" rx="37.1" ry="19.7"/>
			</g>
			<g id="cojin-4">
				<path class="st10" d="M397.3,397.3l-44,25.3c-8.2,4.7-11.1,15.2-6.3,23.5c1.5,2.6,3.7,4.8,6.3,6.3l43.1,24.9
					c5.2,3,11.6,3.1,16.9,0.2l44.6-24.7c8.3-4.6,11.3-15.1,6.7-23.4c-1.5-2.7-3.7-5-6.4-6.5l-43.7-25.5
					C409.3,394.3,402.7,394.3,397.3,397.3z"/>
				<path class="st11" d="M458.3,422.9l-43.7-25.5c-5.3-3.1-11.9-3.1-17.2,0l-44,25.3c-3.5,2-6.2,5.2-7.6,9c1.4,3.8,4,7,7.6,9
					l43.1,24.9c5.2,3,11.6,3.1,16.9,0.1L458,441c3.7-2,6.4-5.3,7.8-9.2C464.5,428,461.8,424.9,458.3,422.9z"/>
				<ellipse class="st12" cx="406" cy="426.8" rx="37" ry="19.7"/>
			</g>
			<g id="cojin-5">
				<path class="st10" d="M616.8,334.1l-44,25.3c-8.2,4.7-11.1,15.2-6.3,23.5c1.5,2.6,3.7,4.8,6.3,6.3l43.1,24.9
					c5.2,3,11.6,3.1,16.9,0.1l44.6-24.7c8.3-4.6,11.3-15.1,6.7-23.4c-1.5-2.7-3.7-5-6.4-6.5L634,334.1
					C628.7,331,622.1,331,616.8,334.1z"/>
				<path class="st11" d="M677.8,359.6l-43.7-25.5c-5.3-3.1-11.9-3.1-17.2,0l-44,25.3c-3.5,2-6.2,5.2-7.6,9c1.4,3.8,4.1,7,7.6,9
					l43.1,24.9c5.2,3,11.6,3.1,16.9,0.2l44.6-24.7c3.7-2,6.4-5.3,7.8-9.2C683.9,364.8,681.3,361.6,677.8,359.6z"/>
				<ellipse class="st12" cx="625.5" cy="363.6" rx="37.1" ry="19.7"/>
			</g>
			<g id="cojin-6">
				<path class="st10" d="M819.3,367.2l-44,25.3c-8.2,4.7-11.1,15.2-6.3,23.5c1.5,2.6,3.7,4.8,6.3,6.3l43.1,24.9
					c5.2,3,11.6,3.1,16.9,0.1l44.6-24.7c8.3-4.6,11.3-15,6.7-23.3c-1.5-2.7-3.7-5-6.4-6.5l-43.7-25.5
					C831.2,364.1,824.6,364.1,819.3,367.2z"/>
				<path class="st11" d="M880.2,392.7l-43.7-25.5c-5.3-3.1-11.9-3.1-17.2,0l-44,25.3c-3.5,2-6.2,5.2-7.6,9c1.4,3.8,4,7,7.6,9
					l43.1,24.9c5.2,3,11.6,3.1,16.9,0.1l44.6-24.7c3.7-2,6.4-5.3,7.8-9.2C886.4,397.9,883.7,394.7,880.2,392.7z"/>
				<ellipse class="st12" cx="828" cy="396.7" rx="37" ry="19.7"/>
			</g>
			<g id="cojin-7">
				<path class="st10" d="M806.9,495.2l-44,25.3c-8.2,4.7-11.1,15.2-6.3,23.5c1.5,2.6,3.7,4.8,6.3,6.3l43.1,24.9
					c5.2,3,11.6,3.1,16.9,0.1l44.6-24.7c8.3-4.6,11.3-15.1,6.7-23.4c-1.5-2.7-3.7-5-6.4-6.5l-43.7-25.5
					C818.8,492.1,812.3,492.1,806.9,495.2z"/>
				<path class="st11" d="M867.9,520.7l-43.7-25.5c-5.3-3.1-11.9-3.1-17.2,0l-44,25.3c-3.5,2-6.2,5.2-7.6,9c1.4,3.8,4,7,7.6,9
					l43.1,24.9c5.2,3,11.6,3.1,16.9,0.1l44.6-24.7c3.7-2,6.4-5.3,7.8-9.2C874,525.9,871.4,522.7,867.9,520.7z"/>
				<ellipse class="st12" cx="815.6" cy="524.7" rx="37" ry="19.7"/>
			</g>
			<g id="cojin-8">
				<path class="st10" d="M1009,397.4l-44,25.3c-8.2,4.7-11.1,15.2-6.3,23.5c1.5,2.6,3.7,4.8,6.3,6.3l43.1,24.9
					c5.2,3,11.6,3.1,16.9,0.1l44.6-24.7c8.3-4.6,11.3-15.1,6.7-23.4c-1.5-2.7-3.7-5-6.4-6.5l-43.7-25.5
					C1020.9,394.3,1014.3,394.3,1009,397.4z"/>
				<path class="st11" d="M1070,422.9l-43.7-25.5c-5.3-3.1-11.9-3.1-17.2,0l-44,25.3c-3.5,2-6.2,5.2-7.6,9c1.4,3.8,4.1,7,7.6,9
					l43.1,24.9c5.2,3,11.6,3.1,16.9,0.1l44.6-24.7c3.7-2,6.4-5.3,7.8-9.2C1076.2,428.1,1073.5,424.9,1070,422.9z"/>
				<ellipse class="st12" cx="1017.7" cy="426.9" rx="37" ry="19.7"/>
			</g>
			<g id="cojin-9">
				<path class="st10" d="M1009.8,536.1l-44,25.3c-8.2,4.7-11.1,15.3-6.3,23.5c1.5,2.6,3.7,4.8,6.3,6.3l43.1,24.8
					c5.2,3,11.6,3.1,16.9,0.2l44.6-24.7c8.3-4.6,11.3-15,6.7-23.4c-1.5-2.7-3.7-5-6.4-6.5l-43.7-25.5
					C1021.7,533.1,1015.1,533.1,1009.8,536.1z"/>
				<path class="st11" d="M1070.7,561.7l-43.7-25.5c-5.3-3.1-11.9-3.1-17.2,0l-44,25.3c-3.5,2-6.2,5.2-7.6,9c1.4,3.8,4.1,7,7.6,9
					l43.1,24.8c5.2,3,11.6,3.1,16.9,0.2l44.6-24.7c3.7-2,6.5-5.3,7.8-9.2C1076.9,566.8,1074.2,563.7,1070.7,561.7z"/>
				<ellipse class="st12" cx="1018.5" cy="565.7" rx="37" ry="19.7"/>
			</g>
			<g id="cojin-10">
				<path class="st10" d="M1256.2,525.7l-44,25.3c-8.2,4.7-11.1,15.2-6.3,23.5c1.5,2.6,3.7,4.8,6.3,6.3l43.1,24.9
					c5.2,3,11.6,3.1,16.9,0.2l44.6-24.7c8.3-4.6,11.3-15.1,6.7-23.4c-1.5-2.7-3.7-5-6.4-6.5l-43.7-25.5
					C1268.1,522.6,1261.6,522.6,1256.2,525.7z"/>
				<path class="st11" d="M1317.2,551.2l-43.7-25.5c-5.3-3.1-11.9-3.1-17.2,0l-44,25.3c-3.5,2-6.2,5.2-7.6,9c1.4,3.8,4,7,7.6,9
					l43.1,24.9c5.2,3,11.6,3.1,16.9,0.2l44.6-24.7c3.7-2,6.4-5.3,7.8-9.2C1323.3,556.4,1320.7,553.2,1317.2,551.2z"/>
				<ellipse class="st12" cx="1264.9" cy="555.2" rx="37.1" ry="19.7"/>
			</g>
			<g id="cojin-11">
				<path class="st10" d="M1249.4,674.1l-44,25.3c-8.2,4.7-11.1,15.2-6.3,23.5c1.5,2.6,3.7,4.8,6.3,6.3l43.1,24.8
					c5.2,3,11.6,3.1,16.9,0.2l44.6-24.7c8.3-4.6,11.3-15.1,6.7-23.4c-1.5-2.7-3.7-5-6.4-6.5l-43.7-25.5
					C1261.3,671,1254.8,671,1249.4,674.1z"/>
				<path class="st11" d="M1310.4,699.6l-43.7-25.5c-5.3-3.1-11.9-3.1-17.2,0l-44,25.3c-3.5,2-6.2,5.2-7.6,9c1.4,3.8,4.1,7,7.6,9
					l43.1,24.8c5.2,3,11.6,3.1,16.9,0.2l44.6-24.7c3.7-2,6.4-5.3,7.8-9.2C1316.5,704.8,1313.9,701.6,1310.4,699.6z"/>
				<ellipse class="st12" cx="1258.1" cy="703.6" rx="37.1" ry="19.7"/>
			</g>
			<g id="cojin-12">
				<path class="st10" d="M1392.9,758.4l-44,25.3c-8.2,4.7-11.1,15.2-6.3,23.5c1.5,2.6,3.7,4.8,6.3,6.3l43.1,24.8
					c5.2,3,11.6,3.1,16.9,0.2l44.6-24.7c8.3-4.6,11.3-15,6.7-23.3c-1.5-2.7-3.7-5-6.4-6.5l-43.8-25.5
					C1404.9,755.4,1398.3,755.4,1392.9,758.4z"/>
				<path class="st11" d="M1453.9,784l-43.7-25.5c-5.3-3.1-11.9-3.1-17.2,0l-44,25.3c-3.5,2-6.2,5.2-7.6,9c1.4,3.8,4,7,7.6,9
					l43.1,24.8c5.2,3,11.6,3.1,16.9,0.2l44.6-24.7c3.7-2,6.4-5.3,7.8-9.2C1460.1,789.2,1457.4,786,1453.9,784z"/>
				<ellipse class="st12" cx="1401.7" cy="788" rx="37.1" ry="19.7"/>
			</g>
			<g id="GrupoEstrellas">
				<g id="St01" class="st13">
					<path class="st14" d="M410.4,805.9l-43.7-25.5c-5.3-3.1-11.9-3.1-17.2,0l-44,25.3c-3.8,2.2-6.3,5.4-7.6,9
						c1.3,3.6,3.8,6.9,7.6,9l43.1,24.9c5.2,3,11.6,3.1,16.9,0.2l44.6-24.7c3.9-2.2,6.5-5.5,7.8-9.2
						C416.6,811.3,414.1,808.1,410.4,805.9z"/>
					<ellipse class="st15" cx="358.1" cy="820.9" rx="23.8" ry="12.7"/>
					<g class="st16">
						<g>
							<g class="st17">
								<g>
									<polygon class="st18" points="370.7,797.3 356.9,789.5 368.2,785.7 382,793.6 									"/>
								</g>
								<g>
									<polygon class="st19" points="355.1,829.5 341.3,821.7 343.4,807.4 357.2,815.3 									"/>
								</g>
								<g>
									<polygon class="st20" points="360.5,802.4 346.7,794.6 352,780 365.8,787.8 									"/>
								</g>
								<g>
									<polygon class="st21" points="349.1,810 360.5,802.4 365.8,787.8 370.7,797.3 382,793.6 373.7,807.1 375.4,819.4 
										365.3,818.2 355.1,829.5 357.2,815.3 									"/>
								</g>
								<g>
									<polygon class="st22" points="349.1,810 335.3,802.2 346.7,794.6 360.5,802.4 									"/>
								</g>
								<g>
									<polygon class="st23" points="357.2,815.3 343.4,807.4 335.3,802.2 349.1,810 									"/>
								</g>
							</g>
						</g>
					</g>
				</g>
				<g id="St02" class="st13">
					<path class="st14" d="M289.5,666.3l-43.7-25.5c-5.3-3.1-11.9-3.1-17.2,0l-44,25.3c-3.8,2.2-6.3,5.4-7.6,9
						c1.3,3.6,3.8,6.9,7.6,9l43.1,24.9c5.2,3,11.6,3.1,16.9,0.2l44.6-24.7c3.9-2.2,6.5-5.5,7.8-9.2
						C295.7,671.8,293.2,668.5,289.5,666.3z"/>
					<ellipse class="st15" cx="237.2" cy="681.3" rx="23.8" ry="12.7"/>
					<g class="st16">
						<g>
							<g class="st17">
								<g>
									<polygon class="st18" points="249.8,657.8 236,649.9 247.3,646.2 261.1,654 									"/>
								</g>
								<g>
									<polygon class="st19" points="234.2,689.9 220.4,682.2 222.5,667.8 236.3,675.8 									"/>
								</g>
								<g>
									<polygon class="st20" points="239.6,662.8 225.8,655 231.1,640.4 244.9,648.2 									"/>
								</g>
								<g>
									<polygon class="st21" points="228.2,670.4 239.6,662.8 244.9,648.2 249.8,657.8 261.1,654 252.8,667.5 254.5,679.8 
										244.4,678.7 234.2,689.9 236.3,675.8 									"/>
								</g>
								<g>
									<polygon class="st22" points="228.2,670.4 214.4,662.7 225.8,655 239.6,662.8 									"/>
								</g>
								<g>
									<polygon class="st23" points="236.3,675.8 222.5,667.8 214.4,662.7 228.2,670.4 									"/>
								</g>
							</g>
						</g>
					</g>
				</g>
				<g id="St03" class="st13">
					<path class="st14" d="M290.3,527.2l-43.7-25.5c-5.3-3.1-11.9-3.1-17.2,0l-44,25.3c-3.8,2.2-6.3,5.4-7.6,9
						c1.3,3.6,3.8,6.9,7.6,9l43.1,24.9c5.2,3,11.6,3.1,16.9,0.2l44.6-24.7c3.9-2.2,6.5-5.5,7.8-9.2
						C296.5,532.6,294,529.4,290.3,527.2z"/>
					<ellipse class="st15" cx="238" cy="542.2" rx="23.8" ry="12.7"/>
					<g class="st16">
						<g>
							<g class="st17">
								<g>
									<polygon class="st18" points="250.6,518.6 236.8,510.8 248.1,507 261.9,514.9 									"/>
								</g>
								<g>
									<polygon class="st19" points="235,550.8 221.2,543 223.3,528.7 237.1,536.6 									"/>
								</g>
								<g>
									<polygon class="st20" points="240.4,523.7 226.6,515.9 231.9,501.3 245.7,509.1 									"/>
								</g>
								<g>
									<polygon class="st21" points="229,531.3 240.4,523.7 245.7,509.1 250.6,518.6 261.9,514.9 253.6,528.4 255.3,540.7 
										245.2,539.5 235,550.8 237.1,536.6 									"/>
								</g>
								<g>
									<polygon class="st22" points="229,531.3 215.2,523.5 226.6,515.9 240.4,523.7 									"/>
								</g>
								<g>
									<polygon class="st23" points="237.1,536.6 223.3,528.7 215.2,523.5 229,531.3 									"/>
								</g>
							</g>
						</g>
					</g>
				</g>
				<g id="St04" class="st13">
					<path class="st14" d="M457.9,422.9l-43.7-25.5c-5.3-3.1-11.9-3.1-17.2,0l-44,25.3c-3.8,2.2-6.3,5.4-7.6,9
						c1.3,3.6,3.8,6.9,7.6,9l43.1,24.9c5.2,3,11.6,3.1,16.9,0.2l44.6-24.7c3.9-2.2,6.5-5.5,7.8-9.2
						C464.1,428.3,461.6,425.1,457.9,422.9z"/>
					<ellipse class="st15" cx="405.6" cy="437.9" rx="23.8" ry="12.7"/>
					<g class="st16">
						<g>
							<g class="st17">
								<g>
									<polygon class="st18" points="418.2,414.3 404.4,406.5 415.7,402.7 429.5,410.6 									"/>
								</g>
								<g>
									<polygon class="st19" points="402.6,446.5 388.8,438.7 390.9,424.4 404.7,432.3 									"/>
								</g>
								<g>
									<polygon class="st20" points="408,419.4 394.2,411.6 399.5,397 413.3,404.8 									"/>
								</g>
								<g>
									<polygon class="st21" points="396.6,427 408,419.4 413.3,404.8 418.2,414.3 429.5,410.6 421.2,424.1 422.9,436.4 
										412.8,435.2 402.6,446.5 404.7,432.3 									"/>
								</g>
								<g>
									<polygon class="st22" points="396.6,427 382.8,419.2 394.2,411.6 408,419.4 									"/>
								</g>
								<g>
									<polygon class="st23" points="404.7,432.3 390.9,424.4 382.8,419.2 396.6,427 									"/>
								</g>
							</g>
						</g>
					</g>
				</g>
				<g id="St05" class="st13">
					<path class="st14" d="M677.7,359.6L634,334.1c-5.3-3.1-11.9-3.1-17.2,0l-44,25.3c-3.8,2.2-6.3,5.4-7.6,9c1.3,3.6,3.8,6.9,7.6,9
						l43.1,24.9c5.2,3,11.6,3.1,16.9,0.2l44.6-24.7c3.9-2.2,6.5-5.5,7.8-9.2C683.9,365,681.4,361.8,677.7,359.6z"/>
					<ellipse class="st15" cx="625.4" cy="374.6" rx="23.8" ry="12.7"/>
					<g class="st16">
						<g>
							<g class="st17">
								<g>
									<polygon class="st18" points="638,351 624.2,343.2 635.5,339.4 649.3,347.3 									"/>
								</g>
								<g>
									<polygon class="st19" points="622.4,383.2 608.6,375.4 610.7,361.1 624.5,369 									"/>
								</g>
								<g>
									<polygon class="st20" points="627.8,356.1 614,348.3 619.3,333.7 633.1,341.5 									"/>
								</g>
								<g>
									<polygon class="st21" points="616.4,363.7 627.8,356.1 633.1,341.5 638,351 649.3,347.3 641,360.8 642.7,373.1 
										632.6,371.9 622.4,383.2 624.5,369 									"/>
								</g>
								<g>
									<polygon class="st22" points="616.4,363.7 602.6,355.9 614,348.3 627.8,356.1 									"/>
								</g>
								<g>
									<polygon class="st23" points="624.5,369 610.7,361.1 602.6,355.9 616.4,363.7 									"/>
								</g>
							</g>
						</g>
					</g>
				</g>
				<g id="St06" class="st13">
					<path class="st14" d="M880.5,392.7l-43.7-25.5c-5.3-3.1-11.9-3.1-17.2,0l-44,25.3c-3.8,2.2-6.3,5.4-7.6,9
						c1.3,3.6,3.8,6.9,7.6,9l43.1,24.9c5.2,3,11.6,3.1,16.9,0.2l44.6-24.7c3.9-2.2,6.5-5.5,7.8-9.2
						C886.7,398.1,884.2,394.9,880.5,392.7z"/>
					<ellipse class="st15" cx="828.2" cy="407.7" rx="23.8" ry="12.7"/>
					<g class="st16">
						<g>
							<g class="st17">
								<g>
									<polygon class="st18" points="840.8,384.1 827,376.3 838.3,372.5 852.1,380.4 									"/>
								</g>
								<g>
									<polygon class="st19" points="825.2,416.3 811.4,408.5 813.5,394.2 827.3,402.1 									"/>
								</g>
								<g>
									<polygon class="st20" points="830.6,389.2 816.8,381.4 822.1,366.8 835.9,374.6 									"/>
								</g>
								<g>
									<polygon class="st21" points="819.2,396.8 830.6,389.2 835.9,374.6 840.8,384.1 852.1,380.4 843.8,393.9 845.5,406.2 
										835.4,405 825.2,416.3 827.3,402.1 									"/>
								</g>
								<g>
									<polygon class="st22" points="819.2,396.8 805.4,389 816.8,381.4 830.6,389.2 									"/>
								</g>
								<g>
									<polygon class="st23" points="827.3,402.1 813.5,394.2 805.4,389 819.2,396.8 									"/>
								</g>
							</g>
						</g>
					</g>
				</g>
				<g id="St107" class="st13">
					<path class="st14" d="M867.8,522.8l-43.7-25.5c-5.3-3.1-11.9-3.1-17.2,0l-44,25.3c-3.8,2.2-6.3,5.4-7.6,9
						c1.3,3.6,3.8,6.9,7.6,9l43.1,24.9c5.2,3,11.6,3.1,16.9,0.2l44.6-24.7c3.9-2.2,6.5-5.5,7.8-9.2C874,528.2,871.5,525,867.8,522.8
						z"/>
					<ellipse class="st15" cx="815.5" cy="537.8" rx="23.8" ry="12.7"/>
					<g class="st16">
						<g>
							<g class="st17">
								<g>
									<polygon class="st18" points="828.1,514.2 814.3,506.4 825.6,502.6 839.4,510.5 									"/>
								</g>
								<g>
									<polygon class="st19" points="812.5,546.4 798.7,538.6 800.8,524.3 814.6,532.2 									"/>
								</g>
								<g>
									<polygon class="st20" points="817.9,519.3 804.1,511.5 809.4,496.9 823.2,504.7 									"/>
								</g>
								<g>
									<polygon class="st21" points="806.5,526.9 817.9,519.3 823.2,504.7 828.1,514.2 839.4,510.5 831.1,524 832.8,536.3 
										822.7,535.1 812.5,546.4 814.6,532.2 									"/>
								</g>
								<g>
									<polygon class="st22" points="806.5,526.9 792.7,519.1 804.1,511.5 817.9,519.3 									"/>
								</g>
								<g>
									<polygon class="st23" points="814.6,532.2 800.8,524.3 792.7,519.1 806.5,526.9 									"/>
								</g>
							</g>
						</g>
					</g>
				</g>
				<g id="St08" class="st13">
					<path class="st14" d="M1069.9,423.7l-43.7-25.5c-5.3-3.1-11.9-3.1-17.2,0l-44,25.3c-3.8,2.2-6.3,5.4-7.6,9
						c1.3,3.6,3.8,6.9,7.6,9l43.1,24.9c5.2,3,11.6,3.1,16.9,0.2l44.6-24.7c3.9-2.2,6.5-5.5,7.8-9.2
						C1076.1,429.1,1073.6,425.9,1069.9,423.7z"/>
					<ellipse class="st15" cx="1017.6" cy="438.7" rx="23.8" ry="12.7"/>
					<g class="st16">
						<g>
							<g class="st17">
								<g>
									<polygon class="st18" points="1030.2,415.1 1016.4,407.3 1027.7,403.5 1041.5,411.4 									"/>
								</g>
								<g>
									<polygon class="st19" points="1014.6,447.3 1000.8,439.5 1002.9,425.2 1016.7,433.1 									"/>
								</g>
								<g>
									<polygon class="st20" points="1020,420.2 1006.2,412.4 1011.5,397.8 1025.3,405.6 									"/>
								</g>
								<g>
									<polygon class="st21" points="1008.6,427.8 1020,420.2 1025.3,405.6 1030.2,415.1 1041.5,411.4 1033.2,424.9 1034.9,437.2 
										1024.8,436 1014.6,447.3 1016.7,433.1 									"/>
								</g>
								<g>
									<polygon class="st22" points="1008.6,427.8 994.8,420 1006.2,412.4 1020,420.2 									"/>
								</g>
								<g>
									<polygon class="st23" points="1016.7,433.1 1002.9,425.2 994.8,420 1008.6,427.8 									"/>
								</g>
							</g>
						</g>
					</g>
				</g>
				<g id="St09" class="st13">
					<path class="st14" d="M1317.4,551.2l-43.7-25.5c-5.3-3.1-11.9-3.1-17.2,0l-44,25.3c-3.8,2.2-6.3,5.4-7.6,9
						c1.3,3.6,3.8,6.9,7.6,9l43.1,24.9c5.2,3,11.6,3.1,16.9,0.2l44.6-24.7c3.9-2.2,6.5-5.5,7.8-9.2
						C1323.6,556.6,1321.1,553.4,1317.4,551.2z"/>
					<ellipse class="st15" cx="1265.1" cy="566.2" rx="23.8" ry="12.7"/>
					<g class="st16">
						<g>
							<g class="st17">
								<g>
									<polygon class="st18" points="1277.7,542.6 1263.9,534.8 1275.2,531 1289,538.9 									"/>
								</g>
								<g>
									<polygon class="st19" points="1262.1,574.8 1248.3,567 1250.4,552.7 1264.2,560.6 									"/>
								</g>
								<g>
									<polygon class="st20" points="1267.5,547.7 1253.7,539.9 1259,525.3 1272.8,533.1 									"/>
								</g>
								<g>
									<polygon class="st21" points="1256.1,555.3 1267.5,547.7 1272.8,533.1 1277.7,542.6 1289,538.9 1280.7,552.4 1282.4,564.7 
										1272.3,563.5 1262.1,574.8 1264.2,560.6 									"/>
								</g>
								<g>
									<polygon class="st22" points="1256.1,555.3 1242.3,547.5 1253.7,539.9 1267.5,547.7 									"/>
								</g>
								<g>
									<polygon class="st23" points="1264.2,560.6 1250.4,552.7 1242.3,547.5 1256.1,555.3 									"/>
								</g>
							</g>
						</g>
					</g>
				</g>
				<g id="St10" class="st13">
					<path class="st14" d="M1071,561.7l-43.7-25.5c-5.3-3.1-11.9-3.1-17.2,0l-44,25.3c-3.8,2.2-6.3,5.4-7.6,9c1.3,3.6,3.8,6.9,7.6,9
						l43.1,24.9c5.2,3,11.6,3.1,16.9,0.2l44.6-24.7c3.9-2.2,6.5-5.5,7.8-9.2C1077.2,567,1074.7,563.8,1071,561.7z"/>
					<ellipse class="st15" cx="1018.7" cy="576.7" rx="23.8" ry="12.7"/>
					<g class="st16">
						<g>
							<g class="st17">
								<g>
									<polygon class="st18" points="1031.3,553 1017.5,545.2 1028.8,541.4 1042.6,549.3 									"/>
								</g>
								<g>
									<polygon class="st19" points="1015.7,585.2 1001.9,577.4 1004,563.2 1017.8,571 									"/>
								</g>
								<g>
									<polygon class="st20" points="1021.1,558.2 1007.3,550.3 1012.6,535.8 1026.4,543.5 									"/>
								</g>
								<g>
									<polygon class="st21" points="1009.7,565.8 1021.1,558.2 1026.4,543.5 1031.3,553 1042.6,549.3 1034.3,562.8 1036,575.2 
										1025.9,573.9 1015.7,585.2 1017.8,571 									"/>
								</g>
								<g>
									<polygon class="st22" points="1009.7,565.8 995.9,557.9 1007.3,550.3 1021.1,558.2 									"/>
								</g>
								<g>
									<polygon class="st23" points="1017.8,571 1004,563.2 995.9,557.9 1009.7,565.8 									"/>
								</g>
							</g>
						</g>
					</g>
				</g>
				<g id="St11" class="st13">
					<path class="st14" d="M1310.9,699.5l-43.7-25.5c-5.3-3.1-11.9-3.1-17.2,0l-44,25.3c-3.8,2.2-6.3,5.4-7.6,9
						c1.3,3.6,3.8,6.9,7.6,9l43.1,24.9c5.2,3,11.6,3.1,16.9,0.2l44.6-24.7c3.9-2.2,6.5-5.5,7.8-9.2
						C1317.1,704.9,1314.6,701.7,1310.9,699.5z"/>
					<ellipse class="st15" cx="1258.6" cy="714.5" rx="23.8" ry="12.7"/>
					<g class="st16">
						<g>
							<g class="st17">
								<g>
									<polygon class="st18" points="1271.2,690.9 1257.4,683.1 1268.7,679.3 1282.5,687.2 									"/>
								</g>
								<g>
									<polygon class="st19" points="1255.6,723.1 1241.8,715.3 1243.9,701 1257.7,708.9 									"/>
								</g>
								<g>
									<polygon class="st20" points="1261,696 1247.2,688.2 1252.5,673.6 1266.3,681.4 									"/>
								</g>
								<g>
									<polygon class="st21" points="1249.6,703.6 1261,696 1266.3,681.4 1271.2,690.9 1282.5,687.2 1274.2,700.7 1275.9,713 
										1265.8,711.8 1255.6,723.1 1257.7,708.9 									"/>
								</g>
								<g>
									<polygon class="st22" points="1249.6,703.6 1235.8,695.8 1247.2,688.2 1261,696 									"/>
								</g>
								<g>
									<polygon class="st23" points="1257.7,708.9 1243.9,701 1235.8,695.8 1249.6,703.6 									"/>
								</g>
							</g>
						</g>
					</g>
				</g>
				<g id="St12" class="st13">
					<path class="st14" d="M1453.8,783.9l-43.7-25.5c-5.3-3.1-11.9-3.1-17.2,0l-44,25.3c-3.8,2.2-6.3,5.4-7.6,9
						c1.3,3.6,3.8,6.9,7.6,9l43.1,24.9c5.2,3,11.6,3.1,16.9,0.2l44.6-24.7c3.9-2.2,6.5-5.5,7.8-9.2
						C1460,789.3,1457.5,786.1,1453.8,783.9z"/>
					<ellipse class="st15" cx="1401.5" cy="798.9" rx="23.8" ry="12.7"/>
					<g class="st16">
						<g>
							<g class="st17">
								<g>
									<polygon class="st18" points="1414.1,775.3 1400.3,767.5 1411.6,763.8 1425.4,771.6 									"/>
								</g>
								<g>
									<polygon class="st19" points="1398.5,807.5 1384.7,799.8 1386.8,785.4 1400.6,793.3 									"/>
								</g>
								<g>
									<polygon class="st20" points="1403.9,780.4 1390.1,772.6 1395.4,758 1409.2,765.8 									"/>
								</g>
								<g>
									<polygon class="st21" points="1392.5,788 1403.9,780.4 1409.2,765.8 1414.1,775.3 1425.4,771.6 1417.1,785.1 1418.8,797.4 
										1408.7,796.2 1398.5,807.5 1400.6,793.3 									"/>
								</g>
								<g>
									<polygon class="st22" points="1392.5,788 1378.7,780.2 1390.1,772.6 1403.9,780.4 									"/>
								</g>
								<g>
									<polygon class="st23" points="1400.6,793.3 1386.8,785.4 1378.7,780.2 1392.5,788 									"/>
								</g>
							</g>
						</g>
					</g>
				</g>
			</g>
		</g>
		<g id="cerca_2">
			<path class="st24" d="M1137.8,709.7L1137.8,709.7c4.7,0,8.5-3.8,8.5-8.5v-93.8c0-4.7-3.8-8.5-8.5-8.5l0,0c-4.7,0-8.5,3.8-8.5,8.5
				v93.8C1129.3,705.9,1133.1,709.7,1137.8,709.7z"/>
			<polygon class="st25" points="1018.5,674.5 1018.4,688.3 1134.2,620.7 1134.1,607 			"/>
			<path class="st24" d="M1017.6,777.5L1017.6,777.5c4.7,0,8.5-3.8,8.5-8.5v-93.8c0-4.7-3.8-8.5-8.5-8.5l0,0c-4.7,0-8.5,3.8-8.5,8.5
				V769C1009.1,773.7,1012.9,777.5,1017.6,777.5z"/>
		</g>
		<g id="Cerca1">
			<path class="st24" d="M478.1,606.8L478.1,606.8c-4.7,0-8.5-3.8-8.5-8.5v-93.8c0-4.7,3.8-8.5,8.5-8.5l0,0c4.7,0,8.5,3.8,8.5,8.5
				v93.8C486.5,603,482.7,606.8,478.1,606.8z"/>
			<polygon class="st25" points="481.8,504.1 481.6,517.8 597.4,585.4 597.4,571.6 			"/>
			<path class="st24" d="M598.3,674.6L598.3,674.6c-4.7,0-8.5-3.8-8.5-8.5v-93.8c0-4.7,3.8-8.5,8.5-8.5l0,0c4.7,0,8.5,3.8,8.5,8.5
				v93.8C606.7,670.7,602.9,674.6,598.3,674.6z"/>
		</g>
		<polygon class="st26" points="837.8,669.3 418.7,912.9 656.3,1050 1496,1050 		"/>
		<polygon class="st27" points="1256.8,1051.6 837.8,808.5 657,912 657.7,773.2 837.8,669.3 1257.5,912.1 		"/>
		<polygon class="st27" points="537.8,773.2 537.6,911.8 717.8,1015.8 717.7,877.2 		"/>
		<polygon class="st28" points="1316.5,878.4 1256.7,913 1256.8,1051.6 1316.6,1016.8 		"/>
		<polygon class="st28" points="422.9,1050 660.9,1050 777.8,981.8 777.6,843.4 		"/>
		<polygon class="st29" points="537.8,773.2 656.9,842 299.6,1050 419.4,1050 717.7,877.2 777.7,842.5 657.7,773.2 837.8,669.3 
			1260.1,912.1 1320,877.2 837.8,600 		"/>
		<polygon class="st27" points="1680,531.1 1499.6,634.8 1499.6,981.2 1680,877.3 		"/>
		<polygon id="papeles" class="st30" points="756.2,714 784.8,698.1 738.8,671 710,687.4 		"/>
		<g id="Avisos">
			<polygon class="st2" points="1138.7,74 1199.4,107.3 1198.3,66.6 1137.3,33.5 			"/>
			<polygon class="st2" points="117.8,47.8 56.7,81 55.7,121.6 116.3,88.3 			"/>
		</g>
		<g id="Comp1">
			<polygon class="st31" points="666.2,760.9 726.2,726.5 691,706.2 630.9,741 			"/>
			<polygon class="st32" points="625.2,693.2 685.1,658.8 691,706.2 630.9,741 			"/>
		</g>
		<g id="Comp2">
			<polygon class="st31" points="1251.2,848.5 1191.1,813.7 1155.9,834 1215.9,868.4 			"/>
			<polygon class="st32" points="1251.2,848.5 1191.1,813.7 1197,766.3 1256.9,800.7 			"/>
		</g>
		<g id="Matera">
			<path class="st33" d="M634.4,74c0,3.3,9.9,38.9,13,49c2.2,7.1,24.5,7.6,27.4-0.8c3.5-10.1,10.9-44.6,10.9-47.6
				s-4.3-10.3-26.1-10.6C642.2,63.7,634.4,70.7,634.4,74z"/>
			<path class="st11" d="M654,4.7c-2,0.5-21.5,20.2-22.2,27.4s-0.7,23.5,2.6,31.9c3.3,8.5,7.2,14.3,20.2,15.6
				c13,1.3,26.7-4.6,31.9-14.3s-3.9-28-7.8-32.6S669,0.8,654,4.7z"/>
		</g>
		<g id="Reloj">
			<ellipse class="st34" cx="1497.6" cy="81.3" rx="39.4" ry="56.7"/>
			<polyline class="st35" points="1497.8,113.3 1497.8,81.1 1510.7,73.4 			"/>
		</g>
	</g>
</g>
<g id="Enfermera" class="st13">
	<path class="st36" d="M24.5,876.7C11,889.1,22,929,81.6,925.3s98.5-7.3,124-17s63.2-24.3,19.5-36.5S91.3,814.7,24.5,876.7z"/>
	<path class="st37" d="M112.1,294.4c0,0,8.3,2.2,9.8,5.4c1.5,3.2,2.7,14.5,2.3,15.5s-1.3,6.3-1.5,7.2s-0.2,6.5,1,7.8s1.5,4.6,0,5.9
		s0.4,5.3-0.2,6.3s-1.9,7.8-3.2,8.7c-1.3,0.9-1.2,2.9-1.2,5.1s0.4,6.1-4.9,7s-10.1,0.4-11.6,2.3s-2.3,18-1,20.1s4.4,4,5.3,5.1
		s3.4,27,3.4,27l-35.9-20.7l-14-18.2c1.6-1.7,3-3.6,4-5.7c1.9-3.8,5.1-19.9,3.6-22.2c-1.5-2.3-7-20.9-6.1-24.1s-6.8-16.9-0.6-23.5
		S102.6,289.8,112.1,294.4z"/>
	<path class="st38" d="M123.7,330.4c-1.3-1.3-1.3-7-1-7.8s1-6.1,1.5-7.2s-1.2-10.4-2.7-13.6s-7.8-8.5-7.8-8.5
		c-9.5-4.6-46.3,3.7-52.4,10.2c-6.1,6.6,1.5,20.3,0.6,23.5s4.6,21.8,6.1,24.1s-1.7,18.4-3.6,22.2c-1,2.1-2.4,4-4,5.7l9.1,11.8
		c-0.2-0.6,0.1-1.1,0.9-1.5c4.4-2.1,9.7,1.7,9.5-5.7c-0.2-7.4,0.8-20.1,0.4-27s1.9-11.8,5.1,4.2c0.5,2.4,3.4,20.7,6.1,23.2
		s10.2,10.1,11.4,13.1c1.3,3,5.9,12.9,3.4,15.4s-11.5-5.1-19.7-10.4c-5.5-3.6-13-7.2-15.9-9.8l3.7,4.8l35.9,20.7c0,0-2.5-26-3.4-27
		s-4-3-5.3-5.1s-0.4-18.2,1-20.1s6.3-1.5,11.6-2.3s4.9-4.9,4.9-7s0-4.2,1.3-5.1c1.3-0.8,2.5-7.6,3.2-8.7s-1.3-5.1,0.2-6.3
		S125,331.6,123.7,330.4z M71.5,336.9c-1,1.9-6.1-4.6-6.1-5.7s0-4,1.7-4.2s2.8-0.6,3.6,4C70.8,331.8,72.5,335,71.5,336.9L71.5,336.9
		z M118.7,331.6c-1.9-0.8-3.8,2.7-6.4,1.5c-2.7-1.3,7.5,3.6,1.4,7.8c3.2,1.7,13.7,0.9,0.4,10.2c5.7,1.9,5.9,9.9-2.6,10.6
		c-6.4,0.5-22.8-4.5-27.4-12.5c-4.7-8-6.4-14.3-2-14.3s18-11.1,17.8-12c-0.7-3.7,4.6-15.2,11.5-2.4c3.6-3.6,6-5.1,3.8-7.4
		c-2.1-2.3-8.5-1.9-7.6-4.9s4.2-11.6,11.4-9.3c0,0,8.4,12.3,1.7,15.2c-6.7,3,1.7,14.4,3.4,18.8S120.6,332.5,118.7,331.6z"/>
	<g id="cara" class="st16">
		<path class="st39" d="M113.8,314.4c-0.2-0.9-0.7-1.8-1.5-2.3c-0.3-0.2-0.7-0.4-1-0.6c-0.6-0.3-1.2-0.5-1.8-0.7
			c-0.7-0.2-1.2-0.3-1.2-0.3c-0.9-0.2-1.9-0.3-2.9-0.4c-0.6,0-1.1,0-1.7,0c-0.9,0-1.8,0.3-2.6,0.8l2.7-0.1c0.5,0,1.1,0,1.6,0
			c0.9,0.1,1.9,0.2,2.8,0.4c0,0,0.5,0.1,1.2,0.3c0.6,0.2,1.1,0.4,1.7,0.7c0.3,0.2,0.6,0.4,0.9,0.6
			C112.5,313.1,113.2,313.7,113.8,314.4z"/>
		<path class="st39" d="M113.8,314.3c0.4-2.4-1.2-3.2-2.2-3.7c-0.4-0.2-0.7-0.3-1.1-0.4c-0.3-0.1-0.6-0.1-0.9-0.2
			c-0.2,0-0.4-0.1-0.6-0.1c-0.7-0.1-1.3-0.2-2-0.2c-1.2,0-2.4,0.2-3.6,0.3c-1.1,0.3,0.8,0-0.1,0.6c1-0.1,1.8-0.2,2.8-0.2
			c0.5,0.2,1.1,0.3,1.7,0.3c0.4,0,0.8,0.2,1.1,0.4c0,0,0.5,0.1,0.8,0.1c0.2,0,0.5,0.1,0.7,0.2c0.6,0.2,0.5,0.5,0.7,0.5
			C112.1,312.7,112.9,313.4,113.8,314.3z"/>
		<path class="st39" d="M110.2,319.3c-1.4-2.2-6.7-2.8-11.5,1.4C100.4,320.4,106.3,316.4,110.2,319.3z"/>
		<path class="st40" d="M109.9,318.9c0.4-2-2.5-5.3-7-3.8C103.6,315.6,107.6,313.8,109.9,318.9z"/>
		<path class="st39" d="M108,318.6c-0.5-1.1-2.4-0.6-2.6-0.2c-0.6,1.1-0.2,2.5,0.9,3.1l0.1,0.1c0.3,0.1,0.3,0.1,0.3,0.1
			c1.2-0.4,1.8-1.7,1.4-2.8C108.1,318.8,108,318.7,108,318.6z"/>
		<path class="st40" d="M108.1,318.1c0.7,0.3,0.7,2,1,4.3c-0.1-0.6,0.4-2.2,0-3.8C109,318.3,108.3,318.6,108.1,318.1z"/>
		<path class="st39" d="M108.7,322c-0.7-0.3-1.5-0.5-2.2-0.6c-0.3-0.1-2-0.2-2-0.2s-1.7,0-2,0s-0.5,0.2-0.7,0.4
			c0.3,0.2,0.7-0.1,1-0.1c0.6,0.1,1.1,0.2,1.7,0.5c0,0,1.9-0.2,2.2-0.1C107,321.9,108.4,322.2,108.7,322z"/>
		<ellipse class="st39" cx="121.6" cy="322.5" rx="0.9" ry="1.5"/>
		<path class="st39" d="M122.7,323.8c-0.8-0.1-1.7,0-2.5,0.2c-0.6,0.2,0,0.3,1.2,0C121,323.9,122.6,324.9,122.7,323.8z"/>
		<path class="st40" d="M119.2,320.4c-0.2,2,3.5,8.8,4.7,10.1C123,329.6,118.5,324.5,119.2,320.4z"/>
		<path class="st40" d="M118.9,334.2c-0.1-0.7-3.4-0.8-3.5,1.3c0.8-0.2,0.3-0.1,1.7-0.9C117,334.4,117.4,334.8,118.9,334.2z"/>
		<path class="st40" d="M121.3,345.4c-1.3-0.7-2.9-0.7-4.1,0.2C118.6,346,120,345.9,121.3,345.4z"/>
		<path class="st40" d="M119.2,345.1c0,0.3-2.3-1.1-3.8-1.1c-2.1-0.2-4.2-0.4-6.3-0.8c1.7,1.4,4.8,1.2,6.1,1.6
			C116.8,345.2,117.4,346.2,119.2,345.1z"/>
		<path class="st40" d="M119.3,348c-1.9-0.2-3.8-0.6-5.6-1.1C114.7,347.1,117,349,119.3,348z"/>
		<path class="st40" d="M120.9,343.1c-1.1-0.2-1.9,0.4-3.8-0.8C117,343.2,119.8,344.3,120.9,343.1z"/>
		<path class="st39" d="M119.5,316.1c0.3,0.1,0.7,0,0.9-0.2c0.2-0.1,0.5-0.7,0.9-0.9c0.3-0.1,0.6-0.2,0.8-0.3c0,0,1.8-0.2,2,0
			s-0.1,0.3,0.2,0.5c0.1-0.4,0.5-0.8,0.1-1c-0.4-0.1-0.9-0.2-1.3-0.1c-0.4,0-0.7,0-1.1,0.1c-0.4,0-0.7,0.2-1.1,0.3
			c-0.4,0.2-0.8,0.5-1.1,0.9C119.7,315.6,119.6,315.8,119.5,316.1z"/>
		<path class="st39" d="M119.5,316c0.3-0.2,0.6-0.9,0.9-1.1c0.5-0.3,1-0.6,1.6-0.8c0.3,0,0.6,0,0.9,0c0.4,0,0.8,0.1,1.1,0.3
			c0.3,0.1,0.1,0.2,0.5,0.2c-0.1-0.4,0-0.6-0.3-0.7c-0.3-0.2-0.6-0.3-1-0.3l-1.3-0.1c-0.2-0.1-0.5-0.1-0.7,0
			c-0.5,0.1-0.9,0.4-1.3,0.7C119.6,314.5,118.7,315.6,119.5,316z"/>
		<path class="st40" d="M120.9,318.4c2.5,1.1,1.3,4.3,2.2,3.1C123.1,321.8,123.4,318.8,120.9,318.4z"/>
		<path class="st39" d="M124.8,322.1c-1.1-0.5-0.8-1.2-2-1.1c-0.9-0.5-3.2,0.3-3.3,1.5c0-0.2,2.3-1.7,3.2-0.7
			C123.4,321.8,124.1,321.9,124.8,322.1z"/>
		<path class="st40" d="M119.6,317.8c-1.2,2.5-0.9,5.4,0.9,7.6C119.9,324.6,118.9,323.2,119.6,317.8z"/>
		<path class="st40" d="M118.3,337.4c0.3,0.7,4.2,1.4,5.1-0.8c-0.8,0-0.8,0.5-2.2,0.8C120.3,337.8,119.3,337.8,118.3,337.4z"/>
		<path class="st40" d="M121,343.1c-0.4,0.2-0.6,2.3,0.7,2.7C121.8,345.3,120.7,345,121,343.1z"/>
	</g>
	<path class="st37" d="M310.1,344.5c0.5,1.5-1.6,7.9-2.5,8.2c-1.2,0.4-2.1,1.3-2.5,2.5c-0.6,1.6-1,4.8-5.1,7s-4.8,5.4-6.7,8.2
		s-44.1,60.9-54.5,64c-10.5,3.1-42.5,7.9-51,6.3s-1.3-21.5,1-23.1s30.1-8.2,33.6-7.3s26.9-20.9,33-25.7s21.9-22.8,22.2-26.3
		s-3.5-12.4-0.6-15.9s5.4-7.3,6-10.8s-0.3-17.1,1.3-17.4s5.4,4.1,5.4,6c2.5-1,5.7-2.9,6.7-0.3c0.9,2.5,1.9,3.5-1,6.3
		c4.8-0.6,8.9,0.3,5.1,7c2.2,1,4.8,5.1,3.5,9.2S308.5,339.4,310.1,344.5z"/>
	<path class="st38" d="M310.1,344.5c0.5,1.5-1.6,7.9-2.5,8.2c-1.2,0.4-2.1,1.3-2.5,2.5c-0.6,1.6-1,4.8-5.1,7s-4.8,5.4-6.7,8.2
		s-44.1,60.9-54.5,64c-10.5,3.1-42.5,7.9-51,6.3s-1.3-21.5,1-23.1s30.1-8.2,33.6-7.3s26.9-20.9,33-25.7s21.9-22.8,22.2-26.3
		s-3.5-12.4-0.6-15.9s5.4-7.3,6-10.8s-0.3-17.1,1.3-17.4s5.4,4.1,5.4,6c2.5-1,5.7-2.9,6.7-0.3c0.9,2.5,1.9,3.5-1,6.3
		c4.8-0.6,8.9,0.3,5.1,7c2.2,1,4.8,5.1,3.5,9.2S308.5,339.4,310.1,344.5z"/>
	<path class="st41" d="M203.3,419c0,0-4.3,20.5-6.4,24.2s-8.1,16.4-11.3,17.6s-11.7-6.3-16.8-6s-14.3-2.9-20.3-5.7
		s-38-48.8-37.4-53.6s13-7.3,14.6-5.4s3.8-0.6,6.7-0.6s7.3,2.2,8.2,3.8s3.5-0.6,5.7-0.6s6.7,2.2,8.6,1.9s10.8,2.5,12,4.4
		s5.4,7.3,8.6,5.4s2.2-3.5,5.4-1.9C183.9,404.1,203.3,412.3,203.3,419z"/>
	<path class="st42" d="M203.3,419c0,0-4.3,20.5-6.4,24.2s-8.1,16.4-11.3,17.6s-11.7-6.3-16.8-6s-14.3-2.9-20.3-5.7
		s-38-48.8-37.4-53.6s13-7.3,14.6-5.4s3.8-0.6,6.7-0.6s7.3,2.2,8.2,3.8s3.5-0.6,5.7-0.6s6.7,2.2,8.6,1.9s10.8,2.5,12,4.4
		s5.4,7.3,8.6,5.4s2.2-3.5,5.4-1.9C183.9,404.1,203.3,412.3,203.3,419z"/>
	<path class="st43" d="M123.6,308.7c0,0-2.7-9.6-5.9-10.8c-3.2-1.3-6,2.2-8.2,1.5s-7.3,1.7-7.6,4.9c-0.3,3.2,4.3,18.6-18.2,24
		c15.2-8.6,6.7-17.9,1.2-16.4c-2.8,5.5-3.2,11.5-6.4,12.5c-3.2,1-3.6,1.2-4.5,0.5c-0.9-0.6-3.5-2.5-6.3-1.6
		c-2.9,0.9-6.6,2.2-5.7,5.1c0.9,2.9,4.8,7,5.1,10.8s1,14.3,1,14.3s-2.1-0.3-4.7-5c-3.2-6.5-5-13.5-5.5-20.7
		c-3.2-2.5,0.9,18.7,1.8,23.1S57.5,361,59.1,368s3.8,8.2,3.5,14.6s-7.8,11.1-11.1,12c-6.7,1.9-12.7,10.8-14.3,7.9s0.4-13.1-0.9-20.1
		s0-13.7-0.2-17.6c-0.2-4.6,1.4-10.2,1.1-17.8c-0.3-7.6,4.9-15.3,7.4-19.1c2.5-3.8,5.3-5.4,8.5-8.2c-3-1.7,0-20.2,6.3-26.5
		s9.5-14.1,16.3-18c12.4-7.2,21.8-0.4,24.3,1.5c4.9-4.2,14.5,0.2,17.8,3.4c6.7,6.4,4.2,7.6,4.2,11.4
		C128,296.2,127.3,303.3,123.6,308.7z"/>
	<path class="st44" d="M130.5,838.8c0,0,8,5.9,9.3,7.2s9.3,4.2,13.5,5.1s13.5,0.4,16.1,3.4s1.7,14-0.8,15.2s-25.8,4.7-31.3,3.8
		s-18.2-10.6-20.7-8.9s-4.2,5.9-10.6,5.5s-15.6,0.8-20.3-4.7s-4.2-19.4,3-20.3S125.9,837.9,130.5,838.8z"/>
	<path class="st41" d="M163.1,598.7c0,0,1.9,17.1-0.6,30.4c-2.5,13.3-6.3,53.9-7.6,59.6c-1.3,5.7-1.9,34.2-4.4,36.1
		s-11.4,9.5-11.4,12s5.1,18.4,5.7,23.5s0,15.2-1.3,19.7s-5.7,29.2-5.7,33.6s-5.7,5.7-7,9.5s-3.8,7.6-3.2,10.1
		c0.3,1.3,2.4,1.6,4.4,2.1s3.9,1.1,3.9,3c0,3.8-5.7,8.2-11.4,14c-5.7,5.8-12,7-24.7,6.3S80,836.4,80,818.7s6.3-56.4,7.6-66.6
		s2.5-19.7,5.1-29.2s5.1-5.1,2.5-23.5s-7-66.6,3.8-83S153.5,580.3,163.1,598.7z"/>
	<path class="st42" d="M163.1,598.7c0,0,1.9,17.1-0.6,30.4c-2.5,13.3-6.3,53.9-7.6,59.6c-1.3,5.7-1.9,34.2-4.4,36.1
		s-11.4,9.5-11.4,12s5.1,18.4,5.7,23.5s0,15.2-1.3,19.7s-5.7,29.2-5.7,33.6s-5.7,5.7-7,9.5s-3.8,7.6-3.2,10.1
		c0.3,1.3,2.4,1.6,4.4,2.1s3.9,1.1,3.9,3c0,3.8-5.7,8.2-11.4,14c-5.7,5.8-12,7-24.7,6.3S80,836.4,80,818.7s6.3-56.4,7.6-66.6
		s2.5-19.7,5.1-29.2s5.1-5.1,2.5-23.5s-7-66.6,3.8-83S153.5,580.3,163.1,598.7z"/>
	<path class="st44" d="M100.9,864.1c0,0,5.9,7.2,9.7,9.7s19.4,8.5,21.1,9.7s6.8,8.9,4.2,14.4s-11.4,8.5-16.9,8.5s-24.9-0.4-30.4-5.1
		s-9.7-8.9-13.1-7.6s-4.6,2.5-8.9,0.8s-9.7-3-11-4.2s-6.3-16.9-4.2-18.4s12.7-15.4,19-14.6C76.8,858.2,94.2,856.5,100.9,864.1z"/>
	<path class="st41" d="M128.2,611.4c0,0-14,21.5-15.2,24.7s-10.2,26.6-10.2,32.3s-8.2,37.4-8.2,39.9s-8.2,17.8-7.6,20.3
		s2.5,8.9,4.4,15.8s6.3,53.9,7,62.1s2.5,37.4,0,43.1s-0.6,7.6,1.3,8.9S106,870,106,870s-22.2,12.7-27.2,14s-11.4,9.5-17.1,7
		s-8.9-15.2-10.1-19s4.4-5.1,1.9-9.5s-10.8-38-11.4-41.8S37.7,766.2,37,756s1.9-36.1,0.6-50.7c-1.3-14.6,5.7-38,5.1-46.9
		c-0.6-8.9-2.5-33.6,1.9-45.6S126.9,585.4,128.2,611.4z"/>
	<path class="st42" d="M60.5,873.8c-1.6-5.7-8.1-38.1-7.3-51.9s9.7-17,13.8-29.2c3.3-10.3,3.3-21.3,0-31.6
		c-2.4-7.3-13.8-7.3-20.3-12.2s-3.2-38.1,0.8-51.1c4.1-13,8.1-41.3,13.8-54.3s29.1-9.3,31.6-9.7c10-1.6,14.2,3.3,16.8,11.2
		c1.6-4.3,2.9-7.8,3.3-8.9c1.3-3.2,15.2-24.7,15.2-24.7c-1.3-26-79.2-10.8-83.7,1.3c-4.4,12-2.5,36.8-1.9,45.6s-6.3,32.3-5.1,46.9
		c1.3,14.6-1.3,40.6-0.6,50.7s4.4,60.9,5.1,64.7s8.9,37.4,11.4,41.8s-3.2,5.7-1.9,9.5s4.4,16.5,10.1,19c2.4,1,4.8,0.2,7.2-1.1
		C65.3,884.9,62.5,879.5,60.5,873.8z"/>
	<path class="st41" d="M166.9,609.7c0,0-3.4-35.5-5.1-41.4s-3.4-30.4-5.9-38.9s-4.2-27.9-2.5-35.5s7.6-39.7,7.6-43.1
		s-11.9-22.8-17-28.7s-15.2-21.1-17.7-27s-4.2-5.9-11-4.2s-7.6-0.8-10.1-2.5s1.7,26.2,1.7,26.2s-15.2-14.4-19.4-17.8
		s-17.8-9.3-20.3-11.8s-7.6-12.7-7.6-12.7s-7.6,16.1-11.8,19.4c-4.2,3.4-14.4,5.9-15.2,11c-0.8,5.1,5.9,26.2,9.3,38.9
		c3.4,12.7,15.2,44,14.4,54.9s-2.5,51.6-5.1,63.4c-2.5,11.8-3.4,14.4-5.1,26.2s-6.8,31.3-3.4,33c3.4,1.7,50.7,5.1,58.3,6.8
		s33.8-2.5,40.6-4.2S166.9,609.7,166.9,609.7z"/>
	<path class="st42" d="M153,511c-0.5-6.8-0.5-13.4,0.3-17.1c1.3-5.9,5.2-26.8,6.9-37.3c-4.5-3.9-9.1-6.9-11.7-7.5
		c-6.8-1.6-15.1,21-24.8,22.6S97,462,94.5,456.8c-2.4-5.2-6.5-26.4-10.5-32.9s-27.6-13-34-12.2c-2.7,0.3-9.2,1.2-15.8,2.2
		c2.1,8.5,5.5,19.7,7.6,27.5c2.4,9.2,9.3,28,12.6,41.9c20.1,6.2,5.3,50.1,6.1,59.6c0.8,9.7-1.6,16.2,4.1,31.6s4.9,22.7-2.4,29.2
		c-6.3,5.6,11.4,12.9,23.7,20c7.1,0.7,12.9,1.4,15.2,1.9c3.4,0.5,6.8,0.6,10.1,0.2c6.1-3.5,14.2-8.7,26.4-14.8
		c29.2-14.6,29.2-8.1,25.6-12.4s-34.5-8.6-44.2-11.1s9.7-38.9,20.3-55.1C142.9,526.7,148,518.9,153,511z"/>
	<path class="st41" d="M36.3,438c0,0,3.3,35.9,6.4,39.5s8.2,12.2,14,12.2s11,4.6,16.4-7.9s2.7-48.6-6.1-49.2
		C58.2,431.9,38.7,432.5,36.3,438z"/>
	<path class="st45" d="M36.3,438c0,0,3.3,35.9,6.4,39.5s8.2,12.2,14,12.2s11,4.6,16.4-7.9s2.7-48.6-6.1-49.2
		C58.2,431.9,38.7,432.5,36.3,438z"/>
	<path class="st46" d="M200,325.5c0,0,19,113.5,20.3,117.9c21.1-10.5,72.1-44.2,77.8-46.2c1.6-10.5-10.5-83.9-8.5-97.7
		C275.3,301.5,217,320.6,200,325.5z"/>
	<path class="st37" d="M53.2,458.8c0,0,24.9,11.8,32.1,13.9s4.2,0.8,7.2,2.1s18.2-1.3,22.8-1.3s60.4-19.4,65.1-21.6
		c4.6-2.1,15.2-5.1,16.5-8.9s5.5-6.8,7.6-8s3.4-0.4,6.3-0.9s5.5,0.4,5.5-3s4.2-3,3-5.9c-1.3-2.9,3-1.3,3-5.1c0-3.8-0.4-5.1-0.4-7.6
		s3-5.9-0.8-9.7c-3.8-3.8-5.9-7.2-8.9-6.8c-3,0.4-9.3,4.6-11.8,4.6s-8.5,2.1-12.3,5.9c-1.6,1.6-7.6,17.3-11,19.4s-15.6,7.2-22.8,7.2
		s-13.1,3-24.9,4.2c-11.8,1.2-30.8,4.2-35.1,4.6c-4.2-4.2-4.7-6.8-10.6-6.8s-9.3,0.4-14.8,5.1C63.3,445.3,53.2,458.8,53.2,458.8z"/>
	<path class="st38" d="M220.9,403.1c-2.1-2.1-3.7-4.1-5.2-5.3c-0.3,0.8-0.6,1.5-0.7,2.3c-0.4,3.1-7,6.2-5.1,8.2s0,6.6,0,7.8
		s-6.2,2.7-9.3,3.1s-1.9,5.1-1.9,8.2s-12,10.1-13.2,11.3c-1.2,1.2-13.6,4.3-17.9,4.7s-35.8,14.4-45.1,16.3s-25.3-1.2-28-2.7
		s-15.9,0.4-21.8-4.7c-4-3.5-5.3-6.6-4-11.5c-5.5,4.7-15.6,18.1-15.6,18.1s25,11.8,32.2,13.9s4.2,0.8,7.2,2.1s18.2-1.3,22.8-1.3
		s60.4-19.4,65.1-21.6c4.6-2.1,15.2-5.1,16.5-8.9s5.5-6.8,7.6-8s3.4-0.4,6.3-0.9s5.5,0.4,5.5-3s4.2-3,3-5.9c-1.3-2.9,3-1.3,3-5.1
		c0-3.8-0.4-5.1-0.4-7.6S224.8,406.9,220.9,403.1z"/>
	<path class="st41" d="M58.1,404.1c2.7,1.8,14.6,12.4,16.5,15.2c1.9,2.9,15.2,17.1,16.5,18.7c-9.2-2.5-6-4.4-16.2-1.6
		s-18.2,19.8-21.8,22.4s-15.6,16.3-8.3,21.4c-8.2-9.8-8.6-13.3-10.8-15.5s-7.6-10.8-7.9-14.9s4.8-13,2.5-18.1
		c-2.2-5.1-1.3-15.5,0-19.3s3.2-11.7,6-12.7C37.5,398.8,46.1,396.2,58.1,404.1z"/>
	<path class="st37" d="M285.7,325.8c-0.4,1.4,0.8,5.3,4,3.6c-2.9,5.8-5.2,10-5,11.9s2.1,2.5,2.5,3.4c-0.5,1.8,0.1,4.8,1.4,6.9
		s3.5-1.8,4.8-3.4s2.8-1.4,5.1-2.7c2.1-1.4,3.9-3,5.6-4.8c0-3.3-2-6.3-3.8-7c3.8-6.7-0.3-7.6-5.1-7c2.8-2.9,1.9-3.8,1-6.3
		s-4.1-0.6-6.7,0.3C288.6,320.6,286.1,324.3,285.7,325.8z"/>
</g>
<g id="Silla_1_1_">
	<g>
		<circle class="st24" cx="822.5" cy="935" r="4.7"/>
		<circle class="st24" cx="871.6" cy="935" r="4.7"/>
		<ellipse class="st24" cx="846.5" cy="922" rx="43" ry="14.2"/>
	</g>
	<path class="st24" d="M847.4,925.3L847.4,925.3c-4.7,0-8.5-3.8-8.5-8.5V823c0-4.7,3.8-8.5,8.5-8.5l0,0c4.7,0,8.5,3.8,8.5,8.5v93.8
		C855.8,921.5,852,925.3,847.4,925.3z"/>
	<polygon class="st47" points="845,848.7 905,814.3 845.3,779.3 785.2,814.2 	"/>
	<polygon class="st24" points="845,848.7 905,814.3 975,729.1 914.9,764 	"/>
</g>
<g id="Silla_2_1_">
	<path class="st24" d="M1112,1039.9L1112,1039.9c4.7,0,8.5-3.8,8.5-8.5v-93.8c0-4.7-3.8-8.5-8.5-8.5l0,0c-4.7,0-8.5,3.8-8.5,8.5
		v93.8C1103.6,1036.1,1107.4,1039.9,1112,1039.9z"/>
	<polygon class="st47" points="1174.2,928.8 1114.1,893.9 1054.4,928.9 1114.4,963.3 	"/>
	<polygon class="st24" points="1044.5,878.6 984.4,843.7 1054.4,928.9 1114.4,963.3 	"/>
	<g>
		<circle class="st24" cx="1087" cy="1047.2" r="4.7"/>
		<circle class="st24" cx="1136.2" cy="1047.2" r="4.7"/>
		<ellipse class="st24" cx="1111" cy="1034.2" rx="43" ry="14.2"/>
	</g>
</g>
</svg>
