<svg id="HOSPITAL" xmlns="http://www.w3.org/2000/svg" viewBox="0 0 1322.9 604"><defs><style>.cls-1{fill:#667f73;}.cls-2{fill:#9dbbae;}.cls-3{fill:#b5d0ee;stroke:#00adc6;stroke-miterlimit:10;stroke-width:4px;}</style></defs><g id="cojin"><path class="cls-1" d="M349.5,778.8l-44,25.3a17.2,17.2,0,0,0,0,29.8l43.1,24.9a17.2,17.2,0,0,0,16.9.2l44.6-24.7a17.2,17.2,0,0,0,6.7-23.4,16.7,16.7,0,0,0-6.4-6.5l-43.7-25.5A17.3,17.3,0,0,0,349.5,778.8Z" transform="translate(-176 -257.1)"/><path class="cls-2" d="M410.4,804.4l-43.7-25.5a17.1,17.1,0,0,0-17.2,0l-44,25.3a17.2,17.2,0,0,0-7.6,9,16.8,16.8,0,0,0,7.6,9l43.1,24.9a17.2,17.2,0,0,0,16.9.2l44.6-24.7a16.8,16.8,0,0,0,7.8-9.2A16.6,16.6,0,0,0,410.4,804.4Z" transform="translate(-176 -257.1)"/><ellipse class="cls-3" cx="182.2" cy="551.3" rx="37" ry="19.7"/></g><g id="cojin-2"><path class="cls-1" d="M228.6,640.8l-44,25.3a17.2,17.2,0,0,0,0,29.8l43.1,24.8a17.2,17.2,0,0,0,16.9.2l44.6-24.7a17.2,17.2,0,0,0,6.7-23.4,16.7,16.7,0,0,0-6.4-6.5l-43.7-25.5A17.6,17.6,0,0,0,228.6,640.8Z" transform="translate(-176 -257.1)"/><path class="cls-2" d="M289.6,666.4l-43.7-25.5a17.1,17.1,0,0,0-17.2,0l-44,25.3a17.2,17.2,0,0,0-7.6,9,17.2,17.2,0,0,0,7.6,9L227.8,709a17.2,17.2,0,0,0,16.9.2l44.6-24.7a16.8,16.8,0,0,0,7.8-9.2A16.8,16.8,0,0,0,289.6,666.4Z" transform="translate(-176 -257.1)"/><ellipse class="cls-3" cx="61.3" cy="413.2" rx="37.1" ry="19.7"/></g><g id="cojin-3"><path class="cls-1" d="M229.4,501.8l-44,25.3a17.2,17.2,0,0,0,0,29.8l43.1,24.8a17.2,17.2,0,0,0,16.9.2L290,557.2a17.2,17.2,0,0,0,6.7-23.4,16.7,16.7,0,0,0-6.4-6.5l-43.7-25.5A17.3,17.3,0,0,0,229.4,501.8Z" transform="translate(-176 -257.1)"/><path class="cls-2" d="M290.4,527.3l-43.7-25.5a17.1,17.1,0,0,0-17.2,0l-44,25.3a17.2,17.2,0,0,0-7.6,9,16.8,16.8,0,0,0,7.6,9l43.1,24.8a17.2,17.2,0,0,0,16.9.2l44.6-24.6a16.4,16.4,0,0,0,7.8-9.2A17.9,17.9,0,0,0,290.4,527.3Z" transform="translate(-176 -257.1)"/><ellipse class="cls-3" cx="62.1" cy="274.2" rx="37.1" ry="19.7"/></g><g id="cojin-4"><path class="cls-1" d="M349.2,432.8l-44,25.3a17.2,17.2,0,0,0,0,29.8l43.1,24.9a17.2,17.2,0,0,0,16.9.2l44.6-24.7a17.2,17.2,0,0,0,6.7-23.4,16.7,16.7,0,0,0-6.4-6.5l-43.7-25.5A17.3,17.3,0,0,0,349.2,432.8Z" transform="translate(-176 -257.1)"/><path class="cls-2" d="M410.2,458.4l-43.7-25.5a17.1,17.1,0,0,0-17.2,0l-44,25.3a17.2,17.2,0,0,0-7.6,9,16.8,16.8,0,0,0,7.6,9l43.1,24.9a17,17,0,0,0,16.9.1l44.6-24.7a16.8,16.8,0,0,0,7.8-9.2A16.4,16.4,0,0,0,410.2,458.4Z" transform="translate(-176 -257.1)"/><ellipse class="cls-3" cx="181.9" cy="205.2" rx="37" ry="19.7"/></g><g id="cojin-5"><path class="cls-1" d="M469,293.6l-44,25.3a17.2,17.2,0,0,0,0,29.8l43.1,24.9a17,17,0,0,0,16.9.1L529.6,349a17.2,17.2,0,0,0,6.7-23.4,16.7,16.7,0,0,0-6.4-6.5l-43.7-25.5A17.1,17.1,0,0,0,469,293.6Z" transform="translate(-176 -257.1)"/><path class="cls-2" d="M530,319.1l-43.7-25.5a17.1,17.1,0,0,0-17.2,0l-44,25.3a17.2,17.2,0,0,0-7.6,9,17.2,17.2,0,0,0,7.6,9l43.1,24.9a17.2,17.2,0,0,0,16.9.2l44.6-24.7a16.8,16.8,0,0,0,7.8-9.2A17.1,17.1,0,0,0,530,319.1Z" transform="translate(-176 -257.1)"/><ellipse class="cls-3" cx="301.7" cy="66" rx="37.1" ry="19.7"/></g><g id="cojin-6"><path class="cls-1" d="M649.2,259.4l-44,25.3a17.2,17.2,0,0,0,0,29.8l43.1,24.9a17,17,0,0,0,16.9.1l44.6-24.7a17.1,17.1,0,0,0,6.7-23.3,16.7,16.7,0,0,0-6.4-6.5l-43.7-25.5A16.8,16.8,0,0,0,649.2,259.4Z" transform="translate(-176 -257.1)"/><path class="cls-2" d="M710.1,284.9l-43.7-25.5a17.1,17.1,0,0,0-17.2,0l-44,25.3a17.2,17.2,0,0,0-7.6,9,16.8,16.8,0,0,0,7.6,9l43.1,24.9a17,17,0,0,0,16.9.1L709.8,303a16.8,16.8,0,0,0,7.8-9.2A16.8,16.8,0,0,0,710.1,284.9Z" transform="translate(-176 -257.1)"/><ellipse class="cls-3" cx="481.9" cy="31.8" rx="37" ry="19.7"/></g><g id="cojin-7"><path class="cls-1" d="M769.6,398.2l-44,25.3a17.2,17.2,0,0,0,0,29.8l43.1,24.9a17,17,0,0,0,16.9.1l44.6-24.7a17.2,17.2,0,0,0,6.7-23.4,16.7,16.7,0,0,0-6.4-6.5l-43.7-25.5A17.1,17.1,0,0,0,769.6,398.2Z" transform="translate(-176 -257.1)"/><path class="cls-2" d="M830.6,423.7l-43.7-25.5a17.1,17.1,0,0,0-17.2,0l-44,25.3a17.2,17.2,0,0,0-7.6,9,16.8,16.8,0,0,0,7.6,9l43.1,24.9a17,17,0,0,0,16.9.1l44.6-24.7a16.8,16.8,0,0,0,7.8-9.2A17.2,17.2,0,0,0,830.6,423.7Z" transform="translate(-176 -257.1)"/><ellipse class="cls-3" cx="602.3" cy="170.6" rx="37" ry="19.7"/></g><g id="cojin-8"><path class="cls-1" d="M1009,397.4l-44,25.3a17.2,17.2,0,0,0,0,29.8l43.1,24.9a17,17,0,0,0,16.9.1l44.6-24.7a17.2,17.2,0,0,0,6.7-23.4,16.7,16.7,0,0,0-6.4-6.5l-43.7-25.5A17.1,17.1,0,0,0,1009,397.4Z" transform="translate(-176 -257.1)"/><path class="cls-2" d="M1070,422.9l-43.7-25.5a17.1,17.1,0,0,0-17.2,0l-44,25.3a17.2,17.2,0,0,0-7.6,9,17.2,17.2,0,0,0,7.6,9l43.1,24.9a17,17,0,0,0,16.9.1l44.6-24.7a16.8,16.8,0,0,0,7.8-9.2A16.8,16.8,0,0,0,1070,422.9Z" transform="translate(-176 -257.1)"/><ellipse class="cls-3" cx="841.7" cy="169.8" rx="37" ry="19.7"/></g><g id="cojin-9"><path class="cls-1" d="M1009.8,536.1l-44,25.3a17.2,17.2,0,0,0,0,29.8l43.1,24.8a17.2,17.2,0,0,0,16.9.2l44.6-24.7a17.2,17.2,0,0,0,6.7-23.4,16.7,16.7,0,0,0-6.4-6.5L1027,536.1A17.6,17.6,0,0,0,1009.8,536.1Z" transform="translate(-176 -257.1)"/><path class="cls-2" d="M1070.7,561.7,1027,536.2a17.1,17.1,0,0,0-17.2,0l-44,25.3a17.2,17.2,0,0,0-7.6,9,17.2,17.2,0,0,0,7.6,9l43.1,24.8a17.2,17.2,0,0,0,16.9.2l44.6-24.7a16.4,16.4,0,0,0,7.8-9.2A16.4,16.4,0,0,0,1070.7,561.7Z" transform="translate(-176 -257.1)"/><ellipse class="cls-3" cx="842.5" cy="308.6" rx="37" ry="19.7"/></g><g id="cojin-10"><path class="cls-1" d="M1249.4,467.4l-44,25.3a17.2,17.2,0,0,0,0,29.8l43.1,24.9a17.2,17.2,0,0,0,16.9.2l44.6-24.7a17.2,17.2,0,0,0,6.7-23.4,16.7,16.7,0,0,0-6.4-6.5l-43.7-25.5A16.8,16.8,0,0,0,1249.4,467.4Z" transform="translate(-176 -257.1)"/><path class="cls-2" d="M1310.4,492.9l-43.7-25.5a17.1,17.1,0,0,0-17.2,0l-44,25.3a17.2,17.2,0,0,0-7.6,9,16.8,16.8,0,0,0,7.6,9l43.1,24.9a17.2,17.2,0,0,0,16.9.2l44.6-24.7a16.8,16.8,0,0,0,7.8-9.2A17.1,17.1,0,0,0,1310.4,492.9Z" transform="translate(-176 -257.1)"/><ellipse class="cls-3" cx="1082.1" cy="239.8" rx="37.1" ry="19.7"/></g><g id="cojin-11"><path class="cls-1" d="M1249.4,674.1l-44,25.3a17.2,17.2,0,0,0,0,29.8l43.1,24.8a17.2,17.2,0,0,0,16.9.2l44.6-24.7a17.2,17.2,0,0,0,6.7-23.4,16.7,16.7,0,0,0-6.4-6.5l-43.7-25.5A17.1,17.1,0,0,0,1249.4,674.1Z" transform="translate(-176 -257.1)"/><path class="cls-2" d="M1310.4,699.6l-43.7-25.5a17.1,17.1,0,0,0-17.2,0l-44,25.3a17.2,17.2,0,0,0-7.6,9,17.2,17.2,0,0,0,7.6,9l43.1,24.8a17.2,17.2,0,0,0,16.9.2l44.6-24.7a16.8,16.8,0,0,0,7.8-9.2A17.2,17.2,0,0,0,1310.4,699.6Z" transform="translate(-176 -257.1)"/><ellipse class="cls-3" cx="1082.1" cy="446.5" rx="37.1" ry="19.7"/></g><g id="cojin-12"><path class="cls-1" d="M1429.4,778.9l-44,25.3a17.2,17.2,0,0,0,0,29.8l43.1,24.8a17.2,17.2,0,0,0,16.9.2l44.6-24.7a17.1,17.1,0,0,0,6.7-23.3,16.7,16.7,0,0,0-6.4-6.5L1446.5,779A17.1,17.1,0,0,0,1429.4,778.9Z" transform="translate(-176 -257.1)"/><path class="cls-2" d="M1490.4,804.5,1446.7,779a17.1,17.1,0,0,0-17.2,0l-44,25.3a17.2,17.2,0,0,0-7.6,9,16.8,16.8,0,0,0,7.6,9l43.1,24.8a17.2,17.2,0,0,0,16.9.2l44.6-24.7a16.8,16.8,0,0,0,7.8-9.2A16.8,16.8,0,0,0,1490.4,804.5Z" transform="translate(-176 -257.1)"/><ellipse class="cls-3" cx="1262.2" cy="551.4" rx="37.1" ry="19.7"/></g></svg>