<svg id="Capa_1" data-name="Capa 1" xmlns="http://www.w3.org/2000/svg" viewBox="0 0 1727.2 1085.3"><defs><style>.cls-1,.cls-14{fill:#b5d0ee;}.cls-2,.cls-26{fill:none;}.cls-2{stroke:#aaa;}.cls-13,.cls-14,.cls-2,.cls-25,.cls-26{stroke-miterlimit:10;}.cls-2,.cls-25,.cls-26{stroke-width:5px;}.cls-3{fill:#7da9c9;}.cls-4{fill:#9ac3e2;}.cls-5{fill:#a0cad8;}.cls-6{fill:#6798b7;}.cls-7{fill:#97afbf;}.cls-8{fill:#c0d5ed;}.cls-9{fill:#a3c7e5;}.cls-10{fill:#98bed8;}.cls-11{fill:#667f73;}.cls-12{fill:#9dbbae;}.cls-13{fill:#edff91;}.cls-13,.cls-14{stroke:#00adc6;stroke-width:4px;}.cls-15{fill:#9190ac;}.cls-16{fill:#cc87a2;}.cls-17{fill:#8ab2bc;}.cls-18{fill:#008b99;}.cls-19{fill:#128d93;}.cls-20{fill:#01aac4;}.cls-21{fill:#f4e8d7;}.cls-22{fill:#9aa1a5;}.cls-23{fill:#564d41;}.cls-24{fill:#fad085;}.cls-25{fill:#dfe9ef;}.cls-25,.cls-26{stroke:#576f84;}.cls-27{fill:#fad6de;}</style></defs><g id="CLINICA"><g id="BACK"><rect class="cls-1" x="2.4" y="5.7" width="1724.9" height="1078.04"/><line class="cls-2" x1="1724.5" y1="334" x2="1149.5" y2="5.9"/><polygon class="cls-3" points="678.6 88.1 1045.1 300.2 1044.5 157.7 780 5.7 677.3 5.7 678.6 88.1"/><polygon class="cls-3" points="1724.8 693.6 1359.6 481.4 1359.6 341 1722.8 547.5 1724.8 693.6"/><line class="cls-2" x1="1.2" y1="122.6" x2="209.9" y2="2.2"/><polygon class="cls-4" points="678.6 87.5 2.4 477.8 2.4 5.7 677.4 7.4 678.6 87.5"/><polygon class="cls-5" points="1727.1 1083.9 1727.1 694.6 677.9 88.8 3.2 479.8 3.2 1083.9 1727.1 1083.9"/><polygon class="cls-6" points="2.4 337.1 2.4 477.8 678.6 87.5 677.3 5.7 575.1 5.7 2.4 337.1"/><polygon class="cls-4" points="1047.8 17.9 1047.8 302.2 1356.2 479.5 1354.9 195.8 1047.8 17.9"/><polygon class="cls-3" points="1045.5 14.7 1047.8 304.2 1294.4 159.3 1294.4 161.2 1045.5 14.7"/><polygon class="cls-7" points="50.4 434.4 60.2 480.2 244.2 373.1 234.7 326.3 50.4 434.4"/><polygon class="cls-8" points="50.6 433.8 112.9 469.2 297.6 362.8 234.6 326.7 50.6 433.8"/><polygon class="cls-9" points="37.3 370.1 50.6 433.8 234.6 326.7 223.2 263.2 37.3 370.1"/><polygon class="cls-9" points="112.2 469.6 122 515.4 306 408.3 298.2 362.6 112.2 469.6"/><path class="cls-10" d="M270.2,347.3l-28.5-16.5a17.3,17.3,0,0,0-17.6,0L96.7,404.4a18.1,18.1,0,0,0-7.8,9.2,17.8,17.8,0,0,0,7.8,9.3l27.9,15.8a17.5,17.5,0,0,0,17.3.2L269.8,366a17.4,17.4,0,0,0,8.1-9.4A19.6,19.6,0,0,0,270.2,347.3Z" transform="translate(2.2 4.3)"/><polygon class="cls-7" points="356.8 251 366.6 296.8 550.5 189.7 541.2 142.9 356.8 251"/><polygon class="cls-8" points="357 250.5 419.2 285.9 603.9 179.6 541 143.4 357 250.5"/><polygon class="cls-9" points="343.7 186.9 357 250.5 541 143.4 529.6 79.9 343.7 186.9"/><polygon class="cls-9" points="418.6 286.3 428.4 332.1 612.3 225.1 604.5 179.3 418.6 286.3"/><path class="cls-10" d="M576.5,163.9l-28.4-16.5a17.5,17.5,0,0,0-17.7,0L403.1,221a17.8,17.8,0,0,0-7.8,9.3,16.8,16.8,0,0,0,7.8,9.2l27.8,15.8a17.7,17.7,0,0,0,17.4.2l127.9-72.9a16.5,16.5,0,0,0,8-9.4A18.5,18.5,0,0,0,576.5,163.9Z" transform="translate(2.2 4.3)"/><polygon class="cls-7" points="808.2 115.2 798.9 162 982.9 269.1 992.6 223.3 808.2 115.2"/><polygon class="cls-8" points="808.4 115.6 745.5 151.8 930.2 258.1 992.4 222.7 808.4 115.6"/><polygon class="cls-9" points="819.8 52.1 808.4 115.6 992.4 222.7 1005.8 159 819.8 52.1"/><polygon class="cls-9" points="744.9 151.6 737.1 197.2 921.1 304.3 930.8 258.5 744.9 151.6"/><path class="cls-10" d="M760.7,145.5a16.5,16.5,0,0,0,8,9.4l128,72.9a17.5,17.5,0,0,0,17.3-.2l27.8-15.8a17.4,17.4,0,0,0,7.8-9.3,17.6,17.6,0,0,0-7.8-9.2L814.5,119.7a17.3,17.3,0,0,0-17.6,0l-28.5,16.5A19,19,0,0,0,760.7,145.5Z" transform="translate(2.2 4.3)"/><polygon class="cls-7" points="1450.4 483.5 1441.1 530.3 1625.1 637.4 1634.8 591.5 1450.4 483.5"/><polygon class="cls-8" points="1450.7 483.9 1387.7 520 1572.4 626.4 1634.6 591 1450.7 483.9"/><polygon class="cls-9" points="1462.1 420.3 1450.7 483.9 1634.6 591 1648 527.3 1462.1 420.3"/><polygon class="cls-9" points="1387.1 519.7 1379.3 565.5 1563.3 672.6 1573 626.7 1387.1 519.7"/><path class="cls-10" d="M1402.9,513.7a17.4,17.4,0,0,0,8,9.5l128,72.9a17.5,17.5,0,0,0,17.3-.2l27.8-15.8a17.4,17.4,0,0,0,7.8-9.3,17.2,17.2,0,0,0-7.8-9.2L1456.7,488a17.3,17.3,0,0,0-17.6,0l-28.5,16.5A18.8,18.8,0,0,0,1402.9,513.7Z" transform="translate(2.2 4.3)"/><g id="niveles"><g id="cojin"><path class="cls-11" d="M359,800.9l-45.2,26a17.6,17.6,0,0,0-6.5,24.1,18.4,18.4,0,0,0,6.5,6.5L358,883.1a18.2,18.2,0,0,0,17.4.2l45.8-25.4a17.7,17.7,0,0,0,6.9-24,17,17,0,0,0-6.6-6.7L376.6,801A17.6,17.6,0,0,0,359,800.9Z" transform="translate(2.2 4.3)"/><path class="cls-12" d="M421.5,827.2,376.6,801a17.3,17.3,0,0,0-17.6,0l-45.2,26a17.2,17.2,0,0,0-7.8,9.2,17.4,17.4,0,0,0,7.8,9.3L358,871a17.7,17.7,0,0,0,17.4.2l45.8-25.3a17.4,17.4,0,0,0,8-9.5A17,17,0,0,0,421.5,827.2Z" transform="translate(2.2 4.3)"/><ellipse class="cls-13" cx="370.1" cy="835.6" rx="38" ry="20.2"/></g><g id="cojin-2"><path class="cls-11" d="M234.8,659.2l-45.1,26a17.5,17.5,0,0,0-6.5,24.1,16.9,16.9,0,0,0,6.5,6.5l44.2,25.5a18.2,18.2,0,0,0,17.4.2l45.8-25.4a17.6,17.6,0,0,0,6.8-24,16.8,16.8,0,0,0-6.5-6.7l-44.9-26.2A18,18,0,0,0,234.8,659.2Z" transform="translate(2.2 4.3)"/><path class="cls-12" d="M297.5,685.5l-44.9-26.2a17.5,17.5,0,0,0-17.7,0l-45.1,26a17.6,17.6,0,0,0-7.8,9.2,17.8,17.8,0,0,0,7.8,9.3L234,729.2a17.9,17.9,0,0,0,17.4.3l45.8-25.4a17.4,17.4,0,0,0,8-9.5A18,18,0,0,0,297.5,685.5Z" transform="translate(2.2 4.3)"/><ellipse class="cls-13" cx="246" cy="693.9" rx="38.1" ry="20.2"/></g><g id="cojin-3"><path class="cls-11" d="M235.7,516.5l-45.2,26a17.7,17.7,0,0,0-6.5,24.1,18.4,18.4,0,0,0,6.5,6.5l44.2,25.4a17.9,17.9,0,0,0,17.4.3l45.8-25.4a17.7,17.7,0,0,0,6.9-24,17,17,0,0,0-6.6-6.7l-44.9-26.2A17.6,17.6,0,0,0,235.7,516.5Z" transform="translate(2.2 4.3)"/><path class="cls-12" d="M298.3,542.7l-44.9-26.2a17.3,17.3,0,0,0-17.6,0l-45.2,26a17.2,17.2,0,0,0-7.8,9.2,17.4,17.4,0,0,0,7.8,9.3l44.2,25.4a17.7,17.7,0,0,0,17.4.2L298,561.4a17,17,0,0,0,8-9.5A18.8,18.8,0,0,0,298.3,542.7Z" transform="translate(2.2 4.3)"/><ellipse class="cls-13" cx="246.8" cy="551.1" rx="38.1" ry="20.2"/></g><g id="cojin-4"><path class="cls-11" d="M358.7,445.7l-45.2,25.9a17.8,17.8,0,0,0-6.5,24.2,18.1,18.1,0,0,0,6.5,6.4l44.2,25.6a17.7,17.7,0,0,0,17.4.2l45.8-25.3a17.8,17.8,0,0,0,6.9-24.1,17.4,17.4,0,0,0-6.6-6.6l-44.9-26.2A17.6,17.6,0,0,0,358.7,445.7Z" transform="translate(2.2 4.3)"/><path class="cls-12" d="M421.3,472l-44.9-26.2a17.3,17.3,0,0,0-17.6,0l-45.2,26a17.2,17.2,0,0,0-7.8,9.2,16.8,16.8,0,0,0,7.8,9.2l44.2,25.6a17.4,17.4,0,0,0,17.4.1L421,490.5a17.2,17.2,0,0,0,8-9.4A16.4,16.4,0,0,0,421.3,472Z" transform="translate(2.2 4.3)"/><ellipse class="cls-13" cx="369.8" cy="480.3" rx="38" ry="20.2"/></g><g id="cojin-5"><path class="cls-11" d="M481.7,302.8l-45.2,25.9a17.7,17.7,0,0,0-6.5,24.2,18.1,18.1,0,0,0,6.5,6.4l44.2,25.6a17.4,17.4,0,0,0,17.4.1l45.8-25.4a17.6,17.6,0,0,0,.3-30.7l-44.9-26.1A17.3,17.3,0,0,0,481.7,302.8Z" transform="translate(2.2 4.3)"/><path class="cls-12" d="M544.3,328.9l-44.9-26.1a17.3,17.3,0,0,0-17.6,0l-45.2,25.9a17.8,17.8,0,0,0-7.8,9.3,17.2,17.2,0,0,0,7.8,9.2l44.2,25.6a17.7,17.7,0,0,0,17.4.2L544,347.6a17.2,17.2,0,0,0,8-9.4A18.1,18.1,0,0,0,544.3,328.9Z" transform="translate(2.2 4.3)"/><ellipse class="cls-14" cx="492.8" cy="337.4" rx="38.1" ry="20.2"/></g><g id="cojin-6"><path class="cls-11" d="M666.7,267.6l-45.2,26a17.7,17.7,0,0,0,0,30.6l44.2,25.6a17.4,17.4,0,0,0,17.4.1l45.8-25.4a17.5,17.5,0,0,0,.3-30.6l-44.9-26.2A17.6,17.6,0,0,0,666.7,267.6Z" transform="translate(2.2 4.3)"/><path class="cls-12" d="M729.2,293.8l-44.9-26.2a17.8,17.8,0,0,0-17.6,0l-45.2,26a17.8,17.8,0,0,0-7.8,9.3,17.2,17.2,0,0,0,7.8,9.2l44.2,25.6a17.9,17.9,0,0,0,17.4.1l45.8-25.4a16.8,16.8,0,0,0,8-9.4A17.3,17.3,0,0,0,729.2,293.8Z" transform="translate(2.2 4.3)"/><ellipse class="cls-14" cx="677.9" cy="302.3" rx="38" ry="20.2"/></g><g id="cojin-7"><path class="cls-11" d="M790.3,410.1l-45.2,26a17.7,17.7,0,0,0-6.5,24.2,18.1,18.1,0,0,0,6.5,6.4l44.3,25.6a17.3,17.3,0,0,0,17.3.1L852.5,467a17.6,17.6,0,0,0,.3-30.7l-44.9-26.2A17.8,17.8,0,0,0,790.3,410.1Z" transform="translate(2.2 4.3)"/><path class="cls-12" d="M852.9,436.3,808,410.1a17.8,17.8,0,0,0-17.6,0l-45.2,26a17.8,17.8,0,0,0-7.8,9.3,16.8,16.8,0,0,0,7.8,9.2l44.3,25.6a17.3,17.3,0,0,0,17.3.1l45.8-25.4a16.8,16.8,0,0,0,8-9.4A17.8,17.8,0,0,0,852.9,436.3Z" transform="translate(2.2 4.3)"/><ellipse class="cls-14" cx="801.5" cy="444.8" rx="38" ry="20.2"/></g><g id="cojin-8"><path class="cls-11" d="M1036.1,409.3l-45.2,26a17.7,17.7,0,0,0,0,30.6l44.3,25.6a17.8,17.8,0,0,0,17.3.1l45.8-25.4a17.7,17.7,0,0,0,6.9-24,17,17,0,0,0-6.6-6.7l-44.9-26.2A17.3,17.3,0,0,0,1036.1,409.3Z" transform="translate(2.2 4.3)"/><path class="cls-12" d="M1098.7,435.5l-44.9-26.2a17.3,17.3,0,0,0-17.6,0l-45.2,26a17.6,17.6,0,0,0-7.8,9.2,17.8,17.8,0,0,0,7.8,9.3l44.3,25.5a17.5,17.5,0,0,0,17.3.2l45.8-25.4a17,17,0,0,0,8-9.5A17.1,17.1,0,0,0,1098.7,435.5Z" transform="translate(2.2 4.3)"/><ellipse class="cls-14" cx="1047.3" cy="444" rx="38" ry="20.2"/></g><g id="cojin-9"><path class="cls-11" d="M1036.9,551.7l-45.2,26a17.8,17.8,0,0,0,0,30.6l44.3,25.5a18,18,0,0,0,17.3.2l45.8-25.4a17.7,17.7,0,0,0,6.9-24,17,17,0,0,0-6.6-6.7l-44.8-26.2A18.5,18.5,0,0,0,1036.9,551.7Z" transform="translate(2.2 4.3)"/><path class="cls-12" d="M1099.4,578l-44.8-26.2a18,18,0,0,0-17.7,0l-45.2,26a17.9,17.9,0,0,0-7.8,9.3,18.1,18.1,0,0,0,7.8,9.2l44.3,25.5a18,18,0,0,0,17.3.2l45.8-25.4a16.8,16.8,0,0,0,8-9.4A17,17,0,0,0,1099.4,578Z" transform="translate(2.2 4.3)"/><ellipse class="cls-14" cx="1048.1" cy="586.5" rx="38" ry="20.2"/></g><g id="cojin-10"><path class="cls-11" d="M1282.9,481.2l-45.2,26a17.5,17.5,0,0,0-6.4,24.1,18.1,18.1,0,0,0,6.4,6.5l44.3,25.5a17.5,17.5,0,0,0,17.3.2l45.8-25.3a17.7,17.7,0,0,0,6.9-24,16.4,16.4,0,0,0-6.6-6.7l-44.8-26.2A17.3,17.3,0,0,0,1282.9,481.2Z" transform="translate(2.2 4.3)"/><path class="cls-12" d="M1345.5,507.4l-44.8-26.2a17.5,17.5,0,0,0-17.7,0l-45.2,26a17.7,17.7,0,0,0-7.8,9.2,17.8,17.8,0,0,0,7.8,9.3l44.3,25.5a17.5,17.5,0,0,0,17.3.2l45.8-25.3a17.4,17.4,0,0,0,8-9.5A17.1,17.1,0,0,0,1345.5,507.4Z" transform="translate(2.2 4.3)"/><ellipse class="cls-14" cx="1294.1" cy="515.8" rx="38.1" ry="20.2"/></g><g id="cojin-11"><path class="cls-11" d="M1282.9,693.4l-45.2,26a17.5,17.5,0,0,0-6.4,24.1,18.1,18.1,0,0,0,6.4,6.5l44.3,25.5a18,18,0,0,0,17.3.2l45.8-25.4a17.7,17.7,0,0,0,6.9-24,16.4,16.4,0,0,0-6.6-6.7l-44.8-26.2A17.5,17.5,0,0,0,1282.9,693.4Z" transform="translate(2.2 4.3)"/><path class="cls-12" d="M1345.5,719.6l-44.8-26.2a17.5,17.5,0,0,0-17.7,0l-45.2,26a17.7,17.7,0,0,0-7.8,9.2,18.3,18.3,0,0,0,7.8,9.3l44.3,25.4a17.5,17.5,0,0,0,17.3.2l45.8-25.3a17.4,17.4,0,0,0,8-9.5A17.6,17.6,0,0,0,1345.5,719.6Z" transform="translate(2.2 4.3)"/><ellipse class="cls-14" cx="1294.1" cy="728" rx="38.1" ry="20.2"/></g><g id="cojin-12"><path class="cls-11" d="M1467.7,801l-45.2,26a17.5,17.5,0,0,0-6.4,24.1,18.1,18.1,0,0,0,6.4,6.5l44.3,25.5a18,18,0,0,0,17.3.2l45.8-25.4a17.6,17.6,0,0,0,6.9-23.9,16.4,16.4,0,0,0-6.6-6.7l-44.9-26.2A17.6,17.6,0,0,0,1467.7,801Z" transform="translate(2.2 4.3)"/><path class="cls-12" d="M1530.3,827.3l-44.8-26.2a17.5,17.5,0,0,0-17.7,0l-45.2,26a17.7,17.7,0,0,0-7.8,9.2,17.8,17.8,0,0,0,7.8,9.3l44.3,25.4a17.5,17.5,0,0,0,17.3.2l45.8-25.3a17.4,17.4,0,0,0,8-9.5A17.1,17.1,0,0,0,1530.3,827.3Z" transform="translate(2.2 4.3)"/><ellipse class="cls-14" cx="1479" cy="835.7" rx="38.1" ry="20.2"/></g></g><g id="cerca_2" data-name="cerca 2"><path class="cls-15" d="M1168.3,730h0a8.7,8.7,0,0,0,8.7-8.8V624.9a8.7,8.7,0,0,0-8.7-8.7h0a8.7,8.7,0,0,0-8.7,8.7v96.3A8.7,8.7,0,0,0,1168.3,730Z" transform="translate(2.2 4.3)"/><polygon class="cls-16" points="1048.1 698.2 1048 712.3 1166.9 642.9 1166.8 628.9 1048.1 698.2"/><path class="cls-15" d="M1044.9,799.6h0a8.7,8.7,0,0,0,8.7-8.7V694.5a8.7,8.7,0,0,0-8.7-8.7h0a8.7,8.7,0,0,0-8.7,8.7v96.4A8.7,8.7,0,0,0,1044.9,799.6Z" transform="translate(2.2 4.3)"/></g><g id="Cerca1"><path class="cls-15" d="M491,624.3h0a8.7,8.7,0,0,1-8.7-8.7V519.3a8.7,8.7,0,0,1,8.7-8.7h0a8.7,8.7,0,0,1,8.7,8.7v96.3A8.8,8.8,0,0,1,491,624.3Z" transform="translate(2.2 4.3)"/><polygon class="cls-16" points="497 523.2 496.8 537.3 615.7 606.7 615.7 592.5 497 523.2"/><path class="cls-15" d="M614.4,693.9h0a8.7,8.7,0,0,1-8.7-8.7V588.9a8.7,8.7,0,0,1,8.7-8.7h0a8.7,8.7,0,0,1,8.7,8.7v96.3A8.9,8.9,0,0,1,614.4,693.9Z" transform="translate(2.2 4.3)"/></g><polygon class="cls-17" points="862.6 692.8 432.3 942.9 676.2 1083.7 1538.3 1083.7 862.6 692.8"/><polygon class="cls-18" points="1292.7 1085.3 862.6 835.8 676.9 942 677.6 799.5 862.6 692.8 1293.5 942.1 1292.7 1085.3"/><polygon class="cls-18" points="554.5 799.5 554.3 941.8 739.4 1048.6 739.2 906.3 554.5 799.5"/><polygon class="cls-19" points="1354 907.5 1292.6 943 1292.7 1085.3 1354.1 1049.6 1354 907.5"/><polygon class="cls-19" points="436.6 1083.7 680.9 1083.7 801 1013.7 800.7 871.6 436.6 1083.7"/><polygon class="cls-20" points="554.5 799.5 676.8 870.1 310 1083.7 433 1083.7 739.2 906.3 800.9 870.7 677.6 799.5 862.6 692.8 1296.1 942.1 1357.6 906.3 862.6 621.7 554.5 799.5"/><polygon class="cls-18" points="1727.3 550.9 1542 657.4 1542 1013.1 1727.3 906.4 1727.3 550.9"/><polygon id="papeles" class="cls-21" points="778.8 738.7 808.1 722.4 760.9 694.6 731.3 711.4 778.8 738.7"/><g id="Avisos"><polygon class="cls-3" points="1171.5 81.6 1233.8 115.8 1232.7 74 1170.1 40.1 1171.5 81.6"/><polygon class="cls-3" points="123.3 54.7 60.6 88.8 59.6 130.5 121.8 96.3 123.3 54.7"/></g><g id="Comp1"><polygon class="cls-22" points="686.4 786.9 748 751.6 711.8 730.7 650.1 766.4 686.4 786.9"/><polygon class="cls-23" points="644.3 717.4 705.8 682.1 711.8 730.7 650.1 766.4 644.3 717.4"/></g><g id="Comp2"><polygon class="cls-22" points="1287 876.8 1225.3 841.1 1189.2 861.9 1250.8 897.3 1287 876.8"/><polygon class="cls-23" points="1287 876.8 1225.3 841.1 1231.3 792.4 1292.8 827.7 1287 876.8"/></g><g id="Matera"><path class="cls-24" d="M651.5,77.3c0,3.4,10.1,39.9,13.3,50.3,2.3,7.3,25.2,7.8,28.2-.8,3.5-10.4,11.1-45.8,11.1-48.9S699.7,67.3,677.3,67C659.5,66.7,651.5,73.9,651.5,77.3Z" transform="translate(2.2 4.3)"/><path class="cls-12" d="M671.6,6.1c-2.1.6-22.1,20.8-22.8,28.2s-.7,24.1,2.7,32.7,7.4,14.7,20.7,16,27.4-4.7,32.8-14.6-4-28.8-8-33.5S687,2.1,671.6,6.1Z" transform="translate(2.2 4.3)"/></g><g id="Reloj"><ellipse class="cls-25" cx="1540" cy="89.1" rx="40.5" ry="58.2"/><polyline class="cls-26" points="1540.2 122 1540.2 88.9 1553.4 81"/></g></g></g><g id="Silla_1" data-name="Silla 1"><circle class="cls-15" cx="843.4" cy="964.5" r="4.8"/><circle class="cls-15" cx="893.6" cy="964.5" r="4.8"/><ellipse class="cls-15" cx="868" cy="951.2" rx="44" ry="14.5"/><path class="cls-15" d="M866.6,950.2h0a8.6,8.6,0,0,1-8.7-8.6v-96a8.6,8.6,0,0,1,8.7-8.6h0a8.6,8.6,0,0,1,8.7,8.6v96A8.8,8.8,0,0,1,866.6,950.2Z" transform="translate(2.2 4.3)"/><polygon class="cls-27" points="866.4 876.3 927.8 841.1 866.7 805.3 805.3 841 866.4 876.3"/><polygon class="cls-15" points="866.4 876.3 927.8 841.1 999.4 754 937.9 789.7 866.4 876.3"/></g><g id="Silla_2" data-name="Silla 2"><path class="cls-15" d="M1137.2,1067.4h0a8.7,8.7,0,0,0,8.7-8.7V962.8a8.7,8.7,0,0,0-8.7-8.7h0a8.7,8.7,0,0,0-8.7,8.7v95.9A8.8,8.8,0,0,0,1137.2,1067.4Z" transform="translate(2.2 4.3)"/><polygon class="cls-27" points="1203 958.2 1141.6 922.5 1080.5 958.3 1141.9 993.4 1203 958.2"/><polygon class="cls-15" points="1070.4 906.8 1009 871.2 1080.5 958.3 1141.9 993.4 1070.4 906.8"/><circle class="cls-15" cx="1113.9" cy="1079.2" r="4.8"/><circle class="cls-15" cx="1164.2" cy="1079.2" r="4.8"/><ellipse class="cls-15" cx="1138.4" cy="1065.9" rx="44" ry="14.5"/></g></svg>