<?xml version="1.0" encoding="utf-8"?>
<!-- Generator: Adobe Illustrator 26.0.3, SVG Export Plug-In . SVG Version: 6.00 Build 0)  -->
<svg version="1.1" id="RULETA_V3" xmlns="http://www.w3.org/2000/svg" xmlns:xlink="http://www.w3.org/1999/xlink" x="0px" y="0px"
	 viewBox="0 0 454.4 292.7" style="enable-background:new 0 0 454.4 292.7;" xml:space="preserve">
<style type="text/css">
	.st0{fill:#4FC6D8;}
	.st1{fill:#3DA0AA;}
	.st2{fill:#F7EB2E;}
</style>
<g id="Flecha_00000183954109983992899920000003650827384213535407_">
	<ellipse class="st0" cx="80.8" cy="154.4" rx="64.4" ry="64.4"/>
	
		<ellipse transform="matrix(0.193 -0.9812 0.9812 0.193 -86.2904 203.8184)" class="st1" cx="80.8" cy="154.4" rx="36.7" ry="36.7"/>
	<path class="st0" d="M253,141.4L101.9,40.9c-9.5-5.4-21.1,1.4-21.1,12.2v200.6c0,10.9,11.7,17.6,21.1,12.2L253,165.5
		C262.5,160.3,262.5,146.7,253,141.4z"/>
	<path class="st2" d="M214.7,143.6l-90.2-52.1c-7.6-4.4-17.2,1.2-17.2,10v104.1c0,8.8,9.6,14.4,17.2,10l90.2-52.1
		C222.3,159,222.3,148,214.7,143.6z"/>
</g>
</svg>
