<svg id="Objetos" xmlns="http://www.w3.org/2000/svg" viewBox="0 0 127.3 124"><defs><style>.cls-1{fill:#262626;}.cls-2{fill:#e86d9e;}.cls-3{fill:#ef95ba;}.cls-4{fill:#c4c4c4;stroke:#4c4c4c;stroke-miterlimit:10;stroke-width:6.16px;}.cls-5{fill:#757575;}</style></defs><g id="Lampara"><path class="cls-1" d="M76.3,23.4v3.5c0,.4,3.4,4.2,3.4,4.2l-3.4,1s.3,4.6,1.1,3.9,4.3-.8,4.3-.8l3.1-3.1Z"/><path class="cls-1" d="M33.4,42.6c.9-.3,46.3-9,46.3-9V31.1L32.1,40.8Z"/><path class="cls-1" d="M32.1,44.9,36,44S55.7,94.3,55.6,95.2s-.1,2.7-.1,2.7-5.1.3-5.1,0V92.4Z"/><path class="cls-1" d="M28.7,40.2v6.7l3.4,2.7L40,48.5l.9-3.6-4.2-7Z"/><path class="cls-2" d="M84.8,32.1l-8.5-8.7s-4.2-4.3-.6-8.3,7.5-1.5,8.6-.8,9.5,8.1,9.5,8.1Z"/><path class="cls-2" d="M92,49.7s-9.2-9.2-7-20.2c1.4-7,6.1-7,6.1-7s11.6-.8,20.7,7.1C106.7,36.9,92,49.7,92,49.7Z"/><path class="cls-3" d="M79,15.7c.1.2,8.8,8.2,8.8,8.2s12.7,3,16.6,8.2l5.3-2.4s-8.6-6.7-19.7-7l-9.7-8.5S78.1,14.3,79,15.7Z"/><ellipse class="cls-4" cx="101.9" cy="39.6" rx="13.4" ry="3.3" transform="translate(1.9 83.7) rotate(-45)"/><path class="cls-1" d="M48.7,105.5H42.4v5.4c0,1.9,6.8,3.3,15.2,3.3s15.2-1.5,15.2-3.3v-5.4Z"/><ellipse class="cls-5" cx="57.6" cy="105.5" rx="15.2" ry="3.3"/><path class="cls-1" d="M55.1,94s-7.9,1.9-7.9,2.4-1.3,9.2-1.3,9.2l13.1.8,2.2-1.2-2.6-7.6Z"/></g></svg>