<?xml version="1.0" encoding="utf-8"?>
<!-- Generator: Adobe Illustrator 24.0.0, SVG Export Plug-In . SVG Version: 6.00 Build 0)  -->
<svg version="1.1" id="OFICINA" xmlns="http://www.w3.org/2000/svg" xmlns:xlink="http://www.w3.org/1999/xlink" x="0px" y="0px"
	 viewBox="0 0 1680 1050" style="enable-background:new 0 0 1680 1050;" xml:space="preserve">
<style type="text/css">
	.st0{fill:#B5D0EE;}
	.st1{opacity:0.69;}
	.st2{fill:#BABABA;}
	.st3{fill:#A8A8A8;}
	.st4{fill:#CECECE;}
	.st5{fill:#9B9B9B;}
	.st6{fill:none;stroke:#AAAAAA;stroke-width:5;stroke-miterlimit:10;}
	.st7{fill:#01AAC4;}
	.st8{fill:#9FD9B4;}
	.st9{fill:#B4C2CC;}
	.st10{fill:#7D96AD;}
	.st11{fill:#CAD3D8;}
	.st12{fill:#9FBEAF;}
	.st13{fill:#9DBBAE;}
	.st14{fill:#85A092;}
	.st15{fill:#02858C;}
	.st16{fill:#0496A5;}
	.st17{fill:#D8AF6F;}
	.st18{fill:#828282;}
	.st19{fill:#F4E8D7;}
	.st20{fill:#D1D1D1;}
	.st21{fill:#564D41;}
	.st22{fill:#DFE9EF;stroke:#576F84;stroke-width:5;stroke-miterlimit:10;}
	.st23{fill:none;stroke:#576F84;stroke-width:5;stroke-miterlimit:10;}
	.st24{fill:#9190AC;}
	.st25{fill:#FAD6DE;}
	.st26{fill:#667F73;}
	.st27{fill:#EDFF91;stroke:#00ADC6;stroke-width:4;stroke-miterlimit:10;}
	.st28{fill:#B5D0EE;stroke:#00ADC6;stroke-width:4;stroke-miterlimit:10;}
</style>
<g id="BG">
	<rect class="st0" width="1680" height="1050"/>
	<g id="edificio" class="st1">
		<polygon class="st2" points="1249.7,598.9 1249.1,182.5 1428.9,286.1 1608.8,183.2 1609.7,737.3 1550.5,772.2 		"/>
		<polygon class="st3" points="1249.7,598.9 1249.1,182.5 1428.9,286.1 1429.4,702.4 		"/>
		<polygon class="st4" points="1249.1,182.5 1309.7,148 1369,182.5 1488.9,112.8 1608.8,183.2 1428.9,286.1 		"/>
		<polygon class="st5" points="1416.2,313.1 1262.4,224.1 1262.4,258.8 1416.2,348.4 		"/>
		<polygon class="st5" points="1416.2,382.5 1262.4,293.5 1262.4,328.2 1416.2,417.8 		"/>
		<polygon class="st5" points="1416.2,451.5 1262.4,362.6 1262.4,397.3 1416.2,486.9 		"/>
	</g>
	<g id="Ventanas">
		<line class="st6" x1="1377.7" y1="508.3" x2="1377.7" y2="0"/>
		<line class="st6" x1="957.5" y1="269.2" x2="957.5" y2="0"/>
		<line class="st6" x1="297.7" y1="294.6" x2="297.7" y2="0"/>
		<rect x="626.3" y="-0.1" class="st3" width="62.5" height="131.6"/>
		<line class="st6" x1="1677.3" y1="319.8" x2="1117.2" y2="0"/>
		<line class="st6" x1="-1.1" y1="113.9" x2="196.2" y2="0"/>
	</g>
	<polygon id="Puso" class="st7" points="1679.9,1049.2 1679.9,670 656.9,81 -0.2,461.8 -0.2,1050.2 	"/>
	<g id="Tapetes">
		<polygon class="st8" points="297.7,912.4 56.4,1050 537.1,1050 		"/>
		<polygon class="st8" points="0,875.6 117.8,808.5 0,740.8 		"/>
	</g>
	<g id="Pared">
		<polygon class="st9" points="-1.1,113.9 196.2,0 0,0 		"/>
		<polygon class="st10" points="1680,0 1117.2,0 1679.5,324.4 		"/>
	</g>
</g>
<g id="Muebles">
	<g id="Mueble">
		<polygon class="st10" points="57.5,150.4 117.8,184.9 117.4,461.8 57.8,427.3 		"/>
		<polygon class="st9" points="237.6,392.8 117.4,461.8 117.8,184.9 238.2,115.6 		"/>
		<polygon class="st11" points="177.6,80.9 57.5,150.4 117.8,184.9 238.2,115.6 		"/>
		<polygon class="st10" points="230.4,184.6 230.6,129.8 126.9,189.2 126.8,244.2 		"/>
		<polygon class="st10" points="230.4,254.7 230.6,199.9 126.9,259.3 126.8,314.3 		"/>
	</g>
	<g id="Mata">
		<path class="st12" d="M31.4,385c0,5.2,9.9,62.1,13,78.2c2.2,11.3,24.5,12.2,27.4-1.3c3.5-16.1,10.9-71.2,10.9-76
			s-4.3-16.5-26.1-16.9C39.2,368.5,31.4,379.7,31.4,385z"/>
		<path class="st13" d="M49.7,386.9l-8.5-50.2L4.1,315.2L36,323l-20.2-61.9l16.9,28.7l16.9-58.6c0,0-0.7,78.2,0.7,76.2
			s54.7-26.7,54.1-24.1S52.3,323.7,54.9,323s30.6-0.6,30.6-0.6L47.7,340l1.3,16.3l32.6-7.2l-31.9,15l5.2,23.5L49.7,386.9z"/>
	</g>
	<g id="Division_1">
		<polygon class="st14" points="541.1,244.4 541.4,175.1 360.9,278.6 360.8,348.1 		"/>
		<polygon class="st12" points="260.5,220.8 360.5,279.6 540.6,175.6 440.5,116.9 		"/>
		<polygon class="st14" points="717.8,81 718.4,192 899.9,298.6 899.1,182.6 		"/>
		<polygon class="st15" points="391.5,412.4 391.4,135.3 237.8,46.3 237.8,323.4 		"/>
	</g>
	<g id="Division2">
		<polygon class="st12" points="777.8,46 717.8,80.6 897.9,184.6 958.1,149.8 		"/>
		<polygon class="st16" points="1017.8,288.7 1017.8,11.6 897.9,80.7 897.9,358 		"/>
	</g>
	<g id="Divisiones">
		<polygon class="st15" points="1315.1,808.5 777.9,490.7 778.1,768.5 1254.7,1050 1315.3,1050 		"/>
		<polygon class="st16" points="1557.8,600.5 1557.9,323.4 1345.7,445.6 1345.7,722.8 		"/>
		<polygon class="st16" points="1318.9,1050 1319,807.9 899.4,1050 		"/>
	</g>
	<g id="Mesa_2">
		<polygon class="st12" points="1680,531.8 1617.4,495.5 1436.9,599.7 1680,740.3 		"/>
		<polygon class="st17" points="1497.4,773.8 1497.4,634.8 1436.4,600 1436.4,738.6 		"/>
		<polygon class="st18" points="1680,670.9 1680,634.1 1648.3,652.8 		"/>
		<polygon class="st19" points="1600.1,608.8 1571.4,592.9 1617.4,565.8 1646.2,582.2 		"/>
	</g>
	<g id="Mesa1">
		<polygon class="st12" points="479.5,807.2 660,910.8 959.8,737.5 779.3,633.2 		"/>
		<polygon class="st17" points="599.6,1015.3 599.6,876.3 479.5,807.2 479.5,945.8 		"/>
		<polygon class="st17" points="899.2,911.6 899.2,772.6 960.3,737.8 960.3,876.4 		"/>
		<polygon class="st18" points="732.7,801.1 792.7,766.8 733,731.7 672.9,766.6 		"/>
		<polygon class="st19" points="796.6,746.6 825.2,730.7 779.2,703.6 750.4,720 		"/>
		<polygon class="st20" points="634.9,827.4 694.9,793 659.7,772.7 599.6,807.5 		"/>
		<polygon class="st21" points="593.9,759.7 653.8,725.3 659.7,772.7 599.6,807.5 		"/>
	</g>
	<g id="Reloj">
		<ellipse class="st22" cx="1497.6" cy="81.3" rx="39.4" ry="56.7"/>
		<polyline class="st23" points="1497.8,113.3 1497.8,81.1 1510.7,73.4 		"/>
	</g>
	<g id="Silla_1">
		<g>
			<circle class="st24" cx="813.1" cy="1030.4" r="4.7"/>
			<circle class="st24" cx="862.2" cy="1030.4" r="4.7"/>
			<ellipse class="st24" cx="837.1" cy="1017.3" rx="43" ry="14.2"/>
		</g>
		<path class="st24" d="M838,1020.6L838,1020.6c-4.7,0-8.5-3.8-8.5-8.5v-93.8c0-4.7,3.8-8.5,8.5-8.5l0,0c4.7,0,8.5,3.8,8.5,8.5v93.8
			C846.4,1016.8,842.6,1020.6,838,1020.6z"/>
		<polygon class="st25" points="835.6,944 895.6,909.6 835.9,874.6 775.8,909.5 		"/>
		<polygon class="st24" points="835.6,944 895.6,909.6 965.6,824.4 905.5,859.3 		"/>
	</g>
	<g id="Silla_2_1_">
		<path class="st24" d="M1556.8,887L1556.8,887c4.7,0,8.5-3.8,8.5-8.5v-93.8c0-4.7-3.8-8.5-8.5-8.5l0,0c-4.7,0-8.5,3.8-8.5,8.5v93.8
			C1548.4,883.2,1552.2,887,1556.8,887z"/>
		<polygon class="st25" points="1619,775.9 1558.9,741 1499.2,776 1559.2,810.4 		"/>
		<polygon class="st24" points="1489.3,725.7 1429.2,690.8 1499.2,776 1559.2,810.4 		"/>
		<g>
			<circle class="st24" cx="1531.9" cy="894.3" r="4.7"/>
			<circle class="st24" cx="1581" cy="894.3" r="4.7"/>
			<ellipse class="st24" cx="1555.9" cy="881.2" rx="43" ry="14.2"/>
		</g>
	</g>
</g>
<g id="niveles">
	<g id="cojin">
		<path class="st26" d="M349.5,778.8l-44,25.3c-8.2,4.7-11.1,15.2-6.3,23.5c1.5,2.6,3.7,4.8,6.3,6.3l43.1,24.9
			c5.2,3,11.6,3.1,16.9,0.2l44.6-24.7c8.3-4.6,11.3-15.1,6.7-23.4c-1.5-2.7-3.7-5-6.4-6.5l-43.7-25.5
			C361.4,775.8,354.8,775.8,349.5,778.8z"/>
		<path class="st13" d="M410.4,804.4l-43.7-25.5c-5.3-3.1-11.9-3.1-17.2,0l-44,25.3c-3.5,2-6.2,5.2-7.6,9c1.4,3.8,4,7,7.6,9
			l43.1,24.9c5.2,3,11.6,3.1,16.9,0.2l44.6-24.7c3.7-2,6.4-5.3,7.8-9.2C416.6,809.6,413.9,806.4,410.4,804.4z"/>
		<ellipse class="st27" cx="358.2" cy="808.4" rx="37" ry="19.7"/>
	</g>
	<g id="cojin-2">
		<path class="st26" d="M228.6,640.8l-44,25.3c-8.2,4.7-11.1,15.2-6.3,23.5c1.5,2.6,3.7,4.8,6.3,6.3l43.1,24.8
			c5.2,3,11.6,3.1,16.9,0.2l44.6-24.7c8.3-4.6,11.3-15.1,6.7-23.4c-1.5-2.7-3.7-5-6.4-6.5l-43.7-25.5
			C240.6,637.8,234,637.8,228.6,640.8z"/>
		<path class="st13" d="M289.6,666.4l-43.7-25.5c-5.3-3.1-11.9-3.1-17.2,0l-44,25.3c-3.5,2-6.2,5.2-7.6,9c1.4,3.8,4.1,7,7.6,9
			l43.1,24.8c5.2,3,11.6,3.1,16.9,0.2l44.6-24.7c3.7-2,6.4-5.3,7.8-9.2C295.8,671.6,293.1,668.4,289.6,666.4z"/>
		<ellipse class="st27" cx="237.3" cy="670.3" rx="37.1" ry="19.7"/>
	</g>
	<g id="cojin-3">
		<path class="st26" d="M229.4,501.8l-44,25.3c-8.2,4.7-11.1,15.3-6.3,23.5c1.5,2.6,3.7,4.8,6.3,6.3l43.1,24.8
			c5.2,3,11.6,3.1,16.9,0.2l44.6-24.7c8.3-4.6,11.3-15.1,6.7-23.4c-1.5-2.7-3.7-5-6.4-6.5l-43.7-25.5
			C241.3,498.8,234.7,498.7,229.4,501.8z"/>
		<path class="st13" d="M290.4,527.3l-43.7-25.5c-5.3-3.1-11.9-3.1-17.2,0l-44,25.3c-3.5,2-6.2,5.2-7.6,9c1.4,3.8,4,7,7.6,9
			l43.1,24.8c5.2,3,11.6,3.1,16.9,0.2l44.6-24.6c3.7-2,6.5-5.3,7.8-9.2C296.5,532.5,293.8,529.4,290.4,527.3z"/>
		<ellipse class="st27" cx="238.1" cy="531.3" rx="37.1" ry="19.7"/>
	</g>
	<g id="cojin-4">
		<path class="st26" d="M349.2,432.8l-44,25.3c-8.2,4.7-11.1,15.2-6.3,23.5c1.5,2.6,3.7,4.8,6.3,6.3l43.1,24.9
			c5.2,3,11.6,3.1,16.9,0.2l44.6-24.7c8.3-4.6,11.3-15.1,6.7-23.4c-1.5-2.7-3.7-5-6.4-6.5l-43.7-25.5
			C361.2,429.8,354.6,429.8,349.2,432.8z"/>
		<path class="st13" d="M410.2,458.4l-43.7-25.5c-5.3-3.1-11.9-3.1-17.2,0l-44,25.3c-3.5,2-6.2,5.2-7.6,9c1.4,3.8,4,7,7.6,9
			l43.1,24.9c5.2,3,11.6,3.1,16.9,0.1l44.6-24.7c3.7-2,6.4-5.3,7.8-9.2C416.4,463.5,413.7,460.4,410.2,458.4z"/>
		<ellipse class="st27" cx="357.9" cy="462.3" rx="37" ry="19.7"/>
	</g>
	<g id="cojin-5">
		<path class="st26" d="M469,293.6l-44,25.3c-8.2,4.7-11.1,15.2-6.3,23.5c1.5,2.6,3.7,4.8,6.3,6.3l43.1,24.9
			c5.2,3,11.6,3.1,16.9,0.1l44.6-24.7c8.3-4.6,11.3-15.1,6.7-23.4c-1.5-2.7-3.7-5-6.4-6.5l-43.7-25.5
			C480.9,290.5,474.3,290.5,469,293.6z"/>
		<path class="st13" d="M530,319.1l-43.7-25.5c-5.3-3.1-11.9-3.1-17.2,0l-44,25.3c-3.5,2-6.2,5.2-7.6,9c1.4,3.8,4.1,7,7.6,9
			l43.1,24.9c5.2,3,11.6,3.1,16.9,0.2l44.6-24.7c3.7-2,6.4-5.3,7.8-9.2C536.1,324.3,533.5,321.1,530,319.1z"/>
		<ellipse class="st28" cx="477.7" cy="323.1" rx="37.1" ry="19.7"/>
	</g>
	<g id="cojin-6">
		<path class="st26" d="M649.2,259.4l-44,25.3c-8.2,4.7-11.1,15.2-6.3,23.5c1.5,2.6,3.7,4.8,6.3,6.3l43.1,24.9
			c5.2,3,11.6,3.1,16.9,0.1l44.6-24.7c8.3-4.6,11.3-15,6.7-23.3c-1.5-2.7-3.7-5-6.4-6.5l-43.7-25.5
			C661.1,256.3,654.5,256.3,649.2,259.4z"/>
		<path class="st13" d="M710.1,284.9l-43.7-25.5c-5.3-3.1-11.9-3.1-17.2,0l-44,25.3c-3.5,2-6.2,5.2-7.6,9c1.4,3.8,4,7,7.6,9
			l43.1,24.9c5.2,3,11.6,3.1,16.9,0.1l44.6-24.7c3.7-2,6.4-5.3,7.8-9.2C716.3,290.1,713.6,286.9,710.1,284.9z"/>
		<ellipse class="st28" cx="657.9" cy="288.9" rx="37" ry="19.7"/>
	</g>
	<g id="cojin-7">
		<path class="st26" d="M769.6,398.2l-44,25.3c-8.2,4.7-11.1,15.2-6.3,23.5c1.5,2.6,3.7,4.8,6.3,6.3l43.1,24.9
			c5.2,3,11.6,3.1,16.9,0.1l44.6-24.7c8.3-4.6,11.3-15.1,6.7-23.4c-1.5-2.7-3.7-5-6.4-6.5l-43.7-25.5
			C781.5,395.1,775,395.1,769.6,398.2z"/>
		<path class="st13" d="M830.6,423.7l-43.7-25.5c-5.3-3.1-11.9-3.1-17.2,0l-44,25.3c-3.5,2-6.2,5.2-7.6,9c1.4,3.8,4,7,7.6,9
			l43.1,24.9c5.2,3,11.6,3.1,16.9,0.1l44.6-24.7c3.7-2,6.4-5.3,7.8-9.2C836.7,428.9,834.1,425.7,830.6,423.7z"/>
		<ellipse class="st28" cx="778.3" cy="427.7" rx="37" ry="19.7"/>
	</g>
	<g id="cojin-8">
		<path class="st26" d="M1009,397.4l-44,25.3c-8.2,4.7-11.1,15.2-6.3,23.5c1.5,2.6,3.7,4.8,6.3,6.3l43.1,24.9
			c5.2,3,11.6,3.1,16.9,0.1l44.6-24.7c8.3-4.6,11.3-15.1,6.7-23.4c-1.5-2.7-3.7-5-6.4-6.5l-43.7-25.5
			C1020.9,394.3,1014.3,394.3,1009,397.4z"/>
		<path class="st13" d="M1070,422.9l-43.7-25.5c-5.3-3.1-11.9-3.1-17.2,0l-44,25.3c-3.5,2-6.2,5.2-7.6,9c1.4,3.8,4.1,7,7.6,9
			l43.1,24.9c5.2,3,11.6,3.1,16.9,0.1l44.6-24.7c3.7-2,6.4-5.3,7.8-9.2C1076.2,428.1,1073.5,424.9,1070,422.9z"/>
		<ellipse class="st28" cx="1017.7" cy="426.9" rx="37" ry="19.7"/>
	</g>
	<g id="cojin-9">
		<path class="st26" d="M1009.8,536.1l-44,25.3c-8.2,4.7-11.1,15.3-6.3,23.5c1.5,2.6,3.7,4.8,6.3,6.3l43.1,24.8
			c5.2,3,11.6,3.1,16.9,0.2l44.6-24.7c8.3-4.6,11.3-15,6.7-23.4c-1.5-2.7-3.7-5-6.4-6.5l-43.7-25.5
			C1021.7,533.1,1015.1,533.1,1009.8,536.1z"/>
		<path class="st13" d="M1070.7,561.7l-43.7-25.5c-5.3-3.1-11.9-3.1-17.2,0l-44,25.3c-3.5,2-6.2,5.2-7.6,9c1.4,3.8,4.1,7,7.6,9
			l43.1,24.8c5.2,3,11.6,3.1,16.9,0.2l44.6-24.7c3.7-2,6.5-5.3,7.8-9.2C1076.9,566.8,1074.2,563.7,1070.7,561.7z"/>
		<ellipse class="st28" cx="1018.5" cy="565.7" rx="37" ry="19.7"/>
	</g>
	<g id="cojin-10">
		<path class="st26" d="M1249.4,467.4l-44,25.3c-8.2,4.7-11.1,15.2-6.3,23.5c1.5,2.6,3.7,4.8,6.3,6.3l43.1,24.9
			c5.2,3,11.6,3.1,16.9,0.2l44.6-24.7c8.3-4.6,11.3-15.1,6.7-23.4c-1.5-2.7-3.7-5-6.4-6.5l-43.7-25.5
			C1261.3,464.3,1254.8,464.3,1249.4,467.4z"/>
		<path class="st13" d="M1310.4,492.9l-43.7-25.5c-5.3-3.1-11.9-3.1-17.2,0l-44,25.3c-3.5,2-6.2,5.2-7.6,9c1.4,3.8,4,7,7.6,9
			l43.1,24.9c5.2,3,11.6,3.1,16.9,0.2l44.6-24.7c3.7-2,6.4-5.3,7.8-9.2C1316.5,498.1,1313.9,494.9,1310.4,492.9z"/>
		<ellipse class="st28" cx="1258.1" cy="496.9" rx="37.1" ry="19.7"/>
	</g>
	<g id="cojin-11">
		<path class="st26" d="M1249.4,674.1l-44,25.3c-8.2,4.7-11.1,15.2-6.3,23.5c1.5,2.6,3.7,4.8,6.3,6.3l43.1,24.8
			c5.2,3,11.6,3.1,16.9,0.2l44.6-24.7c8.3-4.6,11.3-15.1,6.7-23.4c-1.5-2.7-3.7-5-6.4-6.5l-43.7-25.5
			C1261.3,671,1254.8,671,1249.4,674.1z"/>
		<path class="st13" d="M1310.4,699.6l-43.7-25.5c-5.3-3.1-11.9-3.1-17.2,0l-44,25.3c-3.5,2-6.2,5.2-7.6,9c1.4,3.8,4.1,7,7.6,9
			l43.1,24.8c5.2,3,11.6,3.1,16.9,0.2l44.6-24.7c3.7-2,6.4-5.3,7.8-9.2C1316.5,704.8,1313.9,701.6,1310.4,699.6z"/>
		<ellipse class="st28" cx="1258.1" cy="703.6" rx="37.1" ry="19.7"/>
	</g>
	<g id="cojin-12">
		<path class="st26" d="M1429.4,778.9l-44,25.3c-8.2,4.7-11.1,15.2-6.3,23.5c1.5,2.6,3.7,4.8,6.3,6.3l43.1,24.8
			c5.2,3,11.6,3.1,16.9,0.2l44.6-24.7c8.3-4.6,11.3-15,6.7-23.3c-1.5-2.7-3.7-5-6.4-6.5l-43.8-25.5
			C1441.4,775.9,1434.8,775.9,1429.4,778.9z"/>
		<path class="st13" d="M1490.4,804.5l-43.7-25.5c-5.3-3.1-11.9-3.1-17.2,0l-44,25.3c-3.5,2-6.2,5.2-7.6,9c1.4,3.8,4,7,7.6,9
			l43.1,24.8c5.2,3,11.6,3.1,16.9,0.2l44.6-24.7c3.7-2,6.4-5.3,7.8-9.2C1496.6,809.7,1493.9,806.5,1490.4,804.5z"/>
		<ellipse class="st28" cx="1438.2" cy="808.5" rx="37.1" ry="19.7"/>
	</g>
</g>
</svg>
