<?xml version="1.0" encoding="utf-8"?>
<!-- Generator: Adobe Illustrator 26.0.3, SVG Export Plug-In . SVG Version: 6.00 Build 0)  -->
<svg version="1.1" id="HOSPITAL" xmlns="http://www.w3.org/2000/svg" xmlns:xlink="http://www.w3.org/1999/xlink" x="0px" y="0px"
	 viewBox="0 0 1680 1050" style="enable-background:new 0 0 1680 1050;" xml:space="preserve">
<style type="text/css">
	.st0{fill:#667F73;}
	.st1{fill:#9DBBAE;}
	.st2{fill:#B5D0EE;stroke:#00ADC6;stroke-width:4;stroke-miterlimit:10;}
	.st3{fill:#FFFFFF;fill-opacity:0;}
	.st4{fill:#2BC354;}
	.st5{fill:#06951B;}
	.st6{enable-background:new    ;}
	.st7{fill:#D5AA28;}
	.st8{fill:#C29A25;}
	.st9{fill:#C49C25;}
	.st10{fill:#F0BF2D;}
	.st11{fill:#D2A728;}
	.st12{fill:#C19A24;}
</style>
<g id="cojin">
	<path class="st0" d="M349.5,778.8l-44,25.3c-8.2,4.7-11.1,15.3-6.3,23.5c1.5,2.6,3.7,4.8,6.3,6.3l43.1,24.9
		c5.2,3,11.6,3.1,16.9,0.2l44.6-24.7c8.3-4.6,11.3-15.1,6.7-23.4l0,0c-1.5-2.7-3.7-5-6.4-6.5l-43.7-25.5
		C361.4,775.8,354.8,775.8,349.5,778.8z"/>
	<path class="st1" d="M410.4,804.4l-43.7-25.5c-5.3-3.1-11.9-3.1-17.2,0l-44,25.3c-3.5,2-6.2,5.2-7.6,9c1.4,3.8,4.1,7,7.6,9
		l43.1,24.9c5.2,3,11.6,3.1,16.9,0.2l44.6-24.7c3.6-2,6.4-5.3,7.8-9.2C416.6,809.6,413.9,806.4,410.4,804.4z"/>
	<ellipse class="st2" cx="358.2" cy="808.4" rx="37" ry="19.7"/>
</g>
<g id="cojin-2">
	<path class="st0" d="M228.6,640.8l-44,25.3c-8.2,4.7-11.1,15.3-6.3,23.5c1.5,2.6,3.7,4.8,6.3,6.3l43.1,24.8
		c5.2,3,11.6,3.1,16.9,0.2l44.6-24.7c8.3-4.6,11.3-15.1,6.7-23.4l0,0c-1.5-2.7-3.7-5-6.4-6.5l-43.7-25.5
		C240.5,637.8,233.9,637.8,228.6,640.8z"/>
	<path class="st1" d="M289.6,666.4l-43.7-25.5c-5.3-3.1-11.9-3.1-17.2,0l-44,25.3c-3.5,2-6.2,5.2-7.6,9c1.4,3.8,4.1,7,7.6,9
		l43.1,24.8c5.2,3,11.6,3.1,16.9,0.2l44.6-24.7c3.6-2,6.4-5.3,7.8-9.2C295.7,671.5,293.1,668.4,289.6,666.4z"/>
	<ellipse class="st2" cx="237.3" cy="670.3" rx="37.1" ry="19.7"/>
</g>
<g id="cojin-3">
	<path class="st0" d="M229.4,501.8l-44,25.3c-8.2,4.7-11.1,15.3-6.3,23.5c1.5,2.6,3.7,4.8,6.3,6.3l43.1,24.8
		c5.2,3,11.6,3.1,16.9,0.2l44.6-24.7c8.3-4.6,11.3-15.1,6.7-23.4l0,0c-1.5-2.7-3.7-5-6.4-6.5l-43.7-25.5
		C241.3,498.7,234.7,498.7,229.4,501.8z"/>
	<path class="st1" d="M290.4,527.3l-43.7-25.5c-5.3-3.1-11.9-3.1-17.2,0l-44,25.3c-3.5,2-6.2,5.2-7.6,9c1.4,3.8,4.1,7,7.6,9
		l43.1,24.8c5.2,3,11.6,3.1,16.9,0.2l44.6-24.6c3.7-2,6.5-5.3,7.8-9.2C296.5,532.5,293.8,529.4,290.4,527.3z"/>
	<ellipse class="st2" cx="238.1" cy="531.3" rx="37.1" ry="19.7"/>
</g>
<g id="cojin-4">
	<path class="st0" d="M349.2,432.8l-44,25.3c-8.2,4.7-11.1,15.3-6.3,23.5c1.5,2.6,3.7,4.8,6.3,6.3l43.1,24.9
		c5.2,3,11.6,3.1,16.9,0.2l44.6-24.7c8.3-4.6,11.3-15.1,6.7-23.4l0,0c-1.5-2.7-3.7-5-6.4-6.5l-43.7-25.5
		C361.1,429.8,354.5,429.8,349.2,432.8z"/>
	<path class="st1" d="M410.2,458.4l-43.7-25.5c-5.3-3.1-11.9-3.1-17.2,0l-44,25.3c-3.5,2-6.2,5.2-7.6,9c1.4,3.8,4.1,7,7.6,9
		l43.1,24.9c5.2,3,11.6,3.1,16.9,0.1l44.6-24.7c3.6-2,6.4-5.3,7.8-9.2C416.4,463.5,413.7,460.3,410.2,458.4z"/>
	<ellipse class="st2" cx="357.9" cy="462.3" rx="37" ry="19.7"/>
</g>
<g id="cojin-5">
	<path class="st0" d="M469,293.6l-44,25.3c-8.2,4.7-11.1,15.3-6.3,23.5c1.5,2.6,3.7,4.8,6.3,6.3l43.1,24.9c5.2,3,11.6,3.1,16.9,0.1
		l44.6-24.7c8.3-4.6,11.3-15.1,6.7-23.4l0,0c-1.5-2.7-3.7-5-6.4-6.5l-43.7-25.5C480.9,290.5,474.3,290.5,469,293.6z"/>
	<path class="st1" d="M530,319.1l-43.7-25.5c-5.3-3.1-11.9-3.1-17.2,0l-44,25.3c-3.5,2-6.2,5.2-7.6,9c1.4,3.8,4.1,7,7.6,9l43.1,24.9
		c5.2,3,11.6,3.1,16.9,0.2l44.6-24.7c3.6-2,6.4-5.3,7.8-9.2C536.1,324.3,533.5,321.1,530,319.1z"/>
	<ellipse class="st2" cx="477.7" cy="323.1" rx="37.1" ry="19.7"/>
</g>
<g id="cojin-6">
	<path class="st0" d="M649.2,259.4l-44,25.3c-8.2,4.7-11.1,15.3-6.3,23.5c1.5,2.6,3.7,4.8,6.3,6.3l43.1,24.9
		c5.2,3,11.6,3.1,16.9,0.1l44.6-24.7c8.3-4.6,11.3-14.9,6.7-23.2v-0.1c-1.5-2.7-3.7-5-6.4-6.5l-43.7-25.5
		C661.1,256.3,654.5,256.3,649.2,259.4z"/>
	<path class="st1" d="M710.1,284.9l-43.7-25.5c-5.3-3.1-11.9-3.1-17.2,0l-44,25.3c-3.5,2-6.2,5.2-7.6,9c1.4,3.8,4.1,7,7.6,9
		l43.1,24.9c5.2,3,11.6,3.1,16.9,0.1l44.6-24.7c3.6-2,6.4-5.3,7.8-9.2C716.2,290,713.6,286.9,710.1,284.9z"/>
	<ellipse class="st2" cx="657.9" cy="288.9" rx="37" ry="19.7"/>
</g>
<g id="cojin-7">
	<path class="st0" d="M769.6,398.2l-44,25.3c-8.2,4.7-11.1,15.3-6.3,23.5c1.5,2.6,3.7,4.8,6.3,6.3l43.1,24.9
		c5.2,3,11.6,3.1,16.9,0.1l44.6-24.7c8.3-4.6,11.3-15.1,6.7-23.4l0,0c-1.5-2.7-3.7-5-6.4-6.5l-43.7-25.5
		C781.5,395.1,774.9,395.1,769.6,398.2z"/>
	<path class="st1" d="M830.6,423.7l-43.7-25.5c-5.3-3.1-11.9-3.1-17.2,0l-44,25.3c-3.5,2-6.2,5.2-7.6,9c1.4,3.8,4.1,7,7.6,9
		l43.1,24.9c5.2,3,11.6,3.1,16.9,0.1l44.6-24.7c3.6-2,6.4-5.3,7.8-9.2C836.7,428.9,834.1,425.7,830.6,423.7z"/>
	<ellipse class="st2" cx="778.3" cy="427.7" rx="37" ry="19.7"/>
</g>
<g id="cojin-8">
	<path class="st0" d="M1009,397.4l-44,25.3c-8.2,4.7-11.1,15.3-6.3,23.5c1.5,2.6,3.7,4.8,6.3,6.3l43.1,24.9c5.2,3,11.6,3.1,16.9,0.1
		l44.6-24.7c8.3-4.6,11.3-15.1,6.7-23.4l0,0c-1.5-2.7-3.7-5-6.4-6.5l-43.7-25.5C1020.9,394.3,1014.3,394.3,1009,397.4z"/>
	<path class="st1" d="M1070,422.9l-43.7-25.5c-5.3-3.1-11.9-3.1-17.2,0l-44,25.3c-3.5,2-6.2,5.2-7.6,9c1.4,3.8,4.1,7,7.6,9
		l43.1,24.9c5.2,3,11.6,3.1,16.9,0.1l44.6-24.7c3.6-2,6.4-5.3,7.8-9.2C1076.1,428,1073.5,424.9,1070,422.9z"/>
	<ellipse class="st2" cx="1017.7" cy="426.9" rx="37" ry="19.7"/>
</g>
<g id="cojin-9">
	<path class="st0" d="M1009.8,536.1l-44,25.3c-8.2,4.7-11.1,15.3-6.3,23.5c1.5,2.6,3.7,4.8,6.3,6.3l43.1,24.8
		c5.2,3,11.6,3.1,16.9,0.2l44.6-24.7c8.3-4.6,11.3-15.1,6.7-23.4l0,0c-1.5-2.7-3.7-5-6.4-6.5l-43.7-25.5
		C1021.7,533.1,1015.1,533.1,1009.8,536.1z"/>
	<path class="st1" d="M1070.7,561.7l-43.7-25.5c-5.3-3.1-11.9-3.1-17.2,0l-44,25.3c-3.5,2-6.2,5.2-7.6,9c1.4,3.8,4.1,7,7.6,9
		l43.1,24.8c5.2,3,11.6,3.1,16.9,0.2l44.6-24.7c3.7-2,6.5-5.3,7.8-9.2C1076.9,566.8,1074.2,563.6,1070.7,561.7z"/>
	<ellipse class="st2" cx="1018.5" cy="565.7" rx="37" ry="19.7"/>
</g>
<g id="cojin-10">
	<path class="st0" d="M1249.4,467.4l-44,25.3c-8.2,4.7-11.1,15.3-6.3,23.5c1.5,2.6,3.7,4.8,6.3,6.3l43.1,24.9
		c5.2,3,11.6,3.1,16.9,0.2l44.6-24.7c8.3-4.6,11.3-15.1,6.7-23.4l0,0c-1.5-2.7-3.7-5-6.4-6.5l-43.7-25.5
		C1261.3,464.3,1254.7,464.3,1249.4,467.4z"/>
	<path class="st1" d="M1310.4,492.9l-43.7-25.5c-5.3-3.1-11.9-3.1-17.2,0l-44,25.3c-3.5,2-6.2,5.2-7.6,9c1.4,3.8,4.1,7,7.6,9
		l43.1,24.9c5.2,3,11.6,3.1,16.9,0.2l44.6-24.7c3.6-2,6.4-5.3,7.8-9.2C1316.5,498.1,1313.9,494.9,1310.4,492.9z"/>
	<ellipse class="st2" cx="1258.1" cy="496.9" rx="37.1" ry="19.7"/>
</g>
<g id="cojin-11">
	<path class="st0" d="M1249.4,674.1l-44,25.3c-8.2,4.7-11.1,15.3-6.3,23.5c1.5,2.6,3.7,4.8,6.3,6.3l43.1,24.8
		c5.2,3,11.6,3.1,16.9,0.2l44.6-24.7c8.3-4.6,11.3-15.1,6.7-23.4l0,0c-1.5-2.7-3.7-5-6.4-6.5l-43.7-25.5
		C1261.3,671,1254.7,671,1249.4,674.1z"/>
	<path class="st1" d="M1310.4,699.6l-43.7-25.5c-5.3-3.1-11.9-3.1-17.2,0l-44,25.3c-3.5,2-6.2,5.2-7.6,9c1.4,3.8,4.1,7,7.6,9
		l43.1,24.8c5.2,3,11.6,3.1,16.9,0.2l44.6-24.7c3.6-2,6.4-5.3,7.8-9.2C1316.5,704.8,1313.9,701.6,1310.4,699.6z"/>
	<ellipse class="st2" cx="1258.1" cy="703.6" rx="37.1" ry="19.7"/>
</g>
<g id="cojin-12">
	<path class="st0" d="M1429.4,778.9l-44,25.3c-8.2,4.7-11.1,15.3-6.3,23.5c1.5,2.6,3.7,4.8,6.3,6.3l43.1,24.8
		c5.2,3,11.6,3.1,16.9,0.2l44.6-24.7c8.3-4.6,11.3-14.9,6.7-23.2V811c-1.5-2.7-3.7-5-6.4-6.5l-43.8-25.5
		C1441.2,775.9,1434.7,775.9,1429.4,778.9z"/>
	<path class="st1" d="M1490.4,804.5l-43.7-25.5c-5.3-3.1-11.9-3.1-17.2,0l-44,25.3c-3.5,2-6.2,5.2-7.6,9c1.4,3.8,4.1,7,7.6,9
		l43.1,24.8c5.2,3,11.6,3.1,16.9,0.2l44.6-24.7c3.6-2,6.4-5.3,7.8-9.2C1496.5,809.6,1493.9,806.5,1490.4,804.5z"/>
	<ellipse class="st2" cx="1438.2" cy="808.5" rx="37.1" ry="19.7"/>
</g>
<rect class="st3" width="1680" height="1050"/>
<g>
	<path class="st4" d="M410.1,805.4l-43.7-25.5c-5.3-3.1-11.9-3.1-17.2,0l-44,25.3c-3.8,2.2-6.3,5.4-7.6,9c1.3,3.6,3.8,6.9,7.6,9
		l43.1,24.9c5.2,3,11.6,3.1,16.9,0.2l44.6-24.7c3.9-2.2,6.5-5.5,7.8-9.2C416.3,810.8,413.8,807.6,410.1,805.4z"/>
	<ellipse class="st5" cx="357.8" cy="820.4" rx="23.8" ry="12.7"/>
	<g>
		<g>
			<g class="st6">
				<g>
					<polygon class="st7" points="370.4,796.8 356.6,789 367.9,785.2 381.7,793.1 					"/>
				</g>
				<g>
					<polygon class="st8" points="354.8,829 341,821.2 343.1,806.9 356.9,814.8 					"/>
				</g>
				<g>
					<polygon class="st9" points="360.2,801.9 346.4,794.1 351.7,779.5 365.5,787.3 					"/>
				</g>
				<g>
					<polygon class="st10" points="348.8,809.5 360.2,801.9 365.5,787.3 370.4,796.8 381.7,793.1 373.4,806.6 375.1,818.9 
						365,817.7 354.8,829 356.9,814.8 					"/>
				</g>
				<g>
					<polygon class="st11" points="348.8,809.5 335,801.7 346.4,794.1 360.2,801.9 					"/>
				</g>
				<g>
					<polygon class="st12" points="356.9,814.8 343.1,806.9 335,801.7 348.8,809.5 					"/>
				</g>
			</g>
		</g>
	</g>
</g>
</svg>
