<?xml version="1.0" encoding="utf-8"?>
<!-- Generator: Adobe Illustrator 26.0.3, SVG Export Plug-In . SVG Version: 6.00 Build 0)  -->
<svg version="1.1" id="RULETA_V3" xmlns="http://www.w3.org/2000/svg" xmlns:xlink="http://www.w3.org/1999/xlink" x="0px" y="0px"
	 viewBox="0 0 1087.7 1126.7" style="enable-background:new 0 0 1087.7 1126.7;" xml:space="preserve">
<style type="text/css">
	.st0{fill:#5E242C;}
	.st1{fill:#FFE373;}
	.st2{fill:#EB9B2E;}
	.st3{fill:#F7EB2E;}
	.st4{fill:#FFFFFF;}
	.st5{fill:#029EAA;}
	.st6{fill:#F0FF93;}
	.st7{fill:#B5D0EE;}
	.st8{fill:#9FD9B4;}
	.st9{fill:#F1AFC6;}
	.st10{fill:#00ADC6;}
	.st11{fill:#9190AC;}
	.st12{fill:#FCD385;}
	.st13{fill:#FAD6DE;}
	.st14{fill:#027180;}
	.st15{fill:#914146;}
	.st16{fill:#9FBEAF;}
	.st17{fill:#DDBE65;}
	.st18{fill:#668980;}
	.st19{font-family:'PublicoBanner-Bold';}
	.st20{font-size:79.3948px;}
	.st21{font-size:79.6174px;}
	.st22{font-size:79.61px;}
	.st23{font-size:79.3664px;}
	.st24{font-size:79.8643px;}
	.st25{font-size:79.46px;}
	.st26{font-size:79.777px;}
	.st27{font-size:79.3628px;}
	.st28{font-size:79.7837px;}
	.st29{font-size:79.3926px;}
	.st30{font-size:87.7986px;}
	.st31{display:none;fill:#5E242C;}
	.st32{fill:#C48618;}
	.st33{fill:#4FC6D8;}
</style>
<g>
	<g id="BASE">
		<ellipse class="st0" cx="543.8" cy="563.3" rx="407" ry="401.9"/>
		<g id="Circulo_Atras">
			<circle class="st1" cx="543.8" cy="563.3" r="523.5"/>
			<circle class="st2" cx="543.8" cy="563.3" r="459.9"/>
		</g>
	</g>
	<g id="Luces">
		<g>
			<circle class="st3" cx="731.2" cy="154.4" r="20.4"/>
			<circle class="st4" cx="731.2" cy="154.4" r="13.4"/>
		</g>
		<g>
			<circle class="st3" cx="542.2" cy="111.8" r="20.4"/>
			<circle class="st4" cx="542.2" cy="111.8" r="13.4"/>
		</g>
		<g>
			<circle class="st3" cx="345.8" cy="155.1" r="20.4"/>
			<circle class="st4" cx="345.8" cy="155.1" r="13.4"/>
		</g>
		<g>
			<circle class="st3" cx="984.9" cy="652.9" r="20.4"/>
			<circle class="st4" cx="984.9" cy="652.9" r="13.4"/>
		</g>
		<g>
			<circle class="st3" cx="980.6" cy="459.4" r="20.4"/>
			<circle class="st4" cx="980.6" cy="459.4" r="13.4"/>
		</g>
		<g>
			<circle class="st3" cx="891.2" cy="279" r="20.4"/>
			<circle class="st4" cx="891.2" cy="279" r="13.4"/>
		</g>
		<g>
			<circle class="st3" cx="544.5" cy="1017.1" r="20.4"/>
			<circle class="st4" cx="544.5" cy="1017.1" r="13.4"/>
		</g>
		<g>
			<circle class="st3" cx="736.2" cy="969.7" r="20.4"/>
			<circle class="st4" cx="736.2" cy="969.7" r="13.4"/>
		</g>
		<g>
			<circle class="st3" cx="893.5" cy="840.6" r="20.4"/>
			<circle class="st4" cx="893.5" cy="840.6" r="13.4"/>
		</g>
		<g>
			<circle class="st3" cx="102.7" cy="671.2" r="20.4"/>
			<circle class="st4" cx="102.7" cy="671.2" r="13.4"/>
		</g>
		<g>
			<circle class="st3" cx="190.5" cy="849.6" r="20.4"/>
			<circle class="st4" cx="190.5" cy="849.6" r="13.4"/>
		</g>
		<g>
			<circle class="st3" cx="346.3" cy="972.3" r="20.4"/>
			<circle class="st4" cx="346.3" cy="972.3" r="13.4"/>
		</g>
		<g>
			<circle class="st3" cx="179.9" cy="285.2" r="20.4"/>
			<circle class="st4" cx="179.9" cy="285.2" r="13.4"/>
		</g>
		<g>
			<circle class="st3" cx="94.2" cy="477.2" r="20.4"/>
			<circle class="st4" cx="94.2" cy="477.2" r="13.4"/>
		</g>
	</g>
	<ellipse class="st5" cx="543.8" cy="563.3" rx="415.5" ry="410.2"/>
</g>
<g id="RUleta">
	<path class="st6" d="M543.8,563.3l174,356.8c-56.2,27.4-111.5,40.2-174,40.2V563.3z"/>
	<path class="st7" d="M543.8,563.3l312.8,244.4c-38.5,49.2-82.7,85-138.8,112.4L543.8,563.3z"/>
	<path class="st8" d="M543.8,563.3l388.3,82.5c-13,61.1-37,112.6-75.5,161.9L543.8,563.3z"/>
	<path class="st9" d="M543.8,563.3L930.6,474c14,60.9,14.5,110.7,1.5,171.8L543.8,563.3z"/>
	<path class="st10" d="M543.8,563.3l308.5-249.9c39.3,48.6,64.2,99.7,78.3,160.5L543.8,563.3z"/>
	<path class="st11" d="M543.8,563.3l167.7-359.8c56.6,26.4,101.4,61.4,140.7,110L543.8,563.3z"/>
	<path class="st12" d="M543.8,563.3v-397c62.5,0,111.2,10.8,167.8,37.2L543.8,563.3z"/>
	<path class="st12" d="M543.8,563.3l-174-356.8c56.2-27.4,111.5-40.2,174-40.2V563.3z"/>
	<path class="st13" d="M543.8,563.3L231,318.9c38.5-49.2,82.6-85,138.8-112.4L543.8,563.3z"/>
	<path class="st14" d="M543.8,563.3l-388.3-82.5c13-61.1,37-112.6,75.5-161.9L543.8,563.3z"/>
	<path class="st15" d="M543.8,563.3L157,652.6c-14-60.9-14.5-110.7-1.5-171.8L543.8,563.3z"/>
	<path class="st16" d="M543.8,563.3L235.3,813.1c-39.3-48.6-64.2-99.6-78.3-160.5L543.8,563.3z"/>
	<path class="st17" d="M543.8,563.3L376,923.1c-56.6-26.4-101.4-61.4-140.7-110L543.8,563.3z"/>
	<path class="st18" d="M543.8,563.3v397c-62.5,0-111.1-10.8-167.8-37.2L543.8,563.3z"/>
</g>
<g id="NUMEROS">
	<text transform="matrix(0.2655 0.9641 -0.9641 0.2655 437.2369 199.4669)" class="st4 st19 st20">4</text>
	<text transform="matrix(-0.5639 0.8259 -0.8259 -0.5639 753.8071 246.9388)" class="st4 st19 st21">6</text>
	<text transform="matrix(-0.9123 0.4095 -0.4095 -0.9123 865.676 368.8161)" class="st4 st19 st22">7</text>
	<text transform="matrix(-0.9999 1.349649e-02 -1.349649e-02 -0.9999 912.5614 519.0601)" class="st4 st19 st22">8</text>
	<text transform="matrix(-0.9084 -0.4182 0.4182 -0.9084 896.5715 686.5087)" class="st4 st19 st23">9</text>
	<text transform="matrix(-0.6518 -0.7584 0.7584 -0.6518 811.8983 827.8391)" class="st4 st19 st22">10</text>
	<text transform="matrix(-0.2091 -0.9779 0.9779 -0.2091 658.14 920.4756)" class="st4 st19 st24">11</text>
	<text transform="matrix(0.1775 -0.9841 0.9841 0.1775 489.6311 938.7978)" class="st4 st19 st22">12</text>
	<text transform="matrix(0.5839 -0.8118 0.8118 0.5839 331.776 880.8801)" class="st4 st19 st25">13</text>
	<text transform="matrix(0.6756 0.7373 -0.7373 0.6756 282.9676 290.3271)" class="st4 st19 st26">3</text>
	<text transform="matrix(0.908 0.4189 -0.4189 0.908 191.6589 425.6943)" class="st4 st19 st27">2</text>
	<text transform="matrix(0.9999 -1.165362e-02 1.165362e-02 0.9999 170.813 592.7015)" class="st4 st19 st28">1</text>
	<text transform="matrix(0.9179 -0.3968 0.3968 0.9179 208.9044 757.0264)" class="st4 st19 st29">1</text>
	<text transform="matrix(0.9179 -0.3968 0.3968 0.9179 236.1937 745.2269)" class="st4 st19 st29">4</text>
	<text transform="matrix(-0.2079 0.9782 -0.9782 -0.2079 587.1684 186.7811)" class="st4 st19 st30">5</text>
</g>
<path class="st31" d="M414.9,652.2c-47.8-71.4-28.6-168.1,42.8-215.9s168.1-28.6,215.9,42.8c9.6,14.4,16.8,30.3,21.2,47
	c-14.4-86.4-96.2-144.8-182.7-130.4c-86.4,14.4-144.8,96.2-130.4,182.7C386.2,605.5,397.6,630.9,414.9,652.2z"/>
<g id="CentroEstrella">
	<circle class="st1" cx="543.8" cy="563.3" r="125.6"/>
	<circle class="st32" cx="546" cy="561.1" r="109.2"/>
	<g>
		<polygon class="st33" points="545.1,456.5 577.4,521.8 649.8,532.3 597.4,583.3 609.8,655.3 545.1,621.3 480.5,655.3 492.8,583.3 
			440.5,532.3 512.8,521.8 		"/>
		<polygon class="st3" points="545.1,479.8 569.8,530 625,538 585.1,576.8 594.5,632 545.1,606 495.8,632 505.1,576.8 465.1,538 
			520.5,530 		"/>
		<polygon class="st4" points="545.1,507.6 560.8,539.5 595.8,544.5 570.4,569.1 576.4,604 545.1,587.6 513.8,604 519.8,569.1 
			494.5,544.5 529.5,539.5 		"/>
	</g>
</g>
</svg>
