<?xml version="1.0" encoding="utf-8"?>
<!-- Generator: Adobe Illustrator 26.0.3, SVG Export Plug-In . SVG Version: 6.00 Build 0)  -->
<svg version="1.1" id="Objetos" xmlns="http://www.w3.org/2000/svg" xmlns:xlink="http://www.w3.org/1999/xlink" x="0px" y="0px"
	 viewBox="0 0 103 121" style="enable-background:new 0 0 103 121;" xml:space="preserve">
<style type="text/css">
	.st0{fill:#18488C;}
	.st1{fill:#BC4222;}
	.st2{fill:#D84A2E;}
	.st3{fill:#E56C5C;}
	.st4{fill:#A0980B;}
	.st5{fill:#7BDD26;}
	.st6{fill:#E5CF48;}
	.st7{fill:#FBEA5E;}
	.st8{fill:#A38878;}
	.st9{fill:#C79B4C;}
	.st10{fill:#504837;}
	.st11{fill:#A8E573;}
	.st12{fill:#B8F47D;}
	.st13{fill:#E0F4C9;}
	.st14{fill:#878787;}
	.st15{fill:#ADADAD;}
	.st16{fill:#CCCCCC;}
	.st17{fill:#262626;}
	.st18{fill:#4C4C4C;}
	.st19{fill:none;stroke:#939393;stroke-width:2;stroke-miterlimit:10;}
	.st20{fill:#E86D9E;}
	.st21{fill:#EF95BA;}
	.st22{fill:#C4C4C4;stroke:#4C4C4C;stroke-width:6.1555;stroke-miterlimit:9.9999;}
	.st23{fill:#757575;}
	.st24{fill:#00AAC3;}
	.st25{fill:#5E5E5E;}
</style>
<rect id="BG" x="-3136.4" y="184.3" class="st0" width="1699" height="1498"/>
<g id="Manz">
	<path class="st1" d="M82.3,988.3c-3.1-7.2-12-18-13.4-24.9c-2.5-12,4.1-20.6,14.7-24.4c9.2-3.3,10.9,2.9,24.6-0.3
		c15.4-3.6,23.1,4.4,21.2,21.8c-1.5,13.8-9.4,27.9-12.7,31.8c-3.3,3.9-10.8,3-14.3,2c-3.5-1-4.9,1.7-8,2
		C91.2,996.6,85.4,995.6,82.3,988.3z"/>
	<path class="st2" d="M72.2,956.8c-1-8,3-14.2,13.6-16.5c9.6-2.1,13,2.3,3.9,6.8c4-2.8,12.2-2.8,20,4.5c0.4,0.4-1.3-5.8-5.8-7.3
		c0-3.1,8.7-4.8,10.7-4.9c14.9-0.5,11.1,14.8,10.8,18.4c-1.5,13.8-5.8,23.8-9.1,27.7c-3.3,3.9-8.5,4.6-11.9,3.2
		c-5.8-2.3-8.9,2.2-14.8-0.8C84.3,985.2,73.1,963.8,72.2,956.8z"/>
	<path class="st3" d="M83.9,969.2c-2.7,0.7-4.6-3.2-5.9-8.4c-1.4-5.1-0.3-9.9,2.4-10.6c2.7-0.7,6,2.8,7.3,8
		c1.4,5.1,0.3,9.9-2.4,10.6"/>
	<path class="st4" d="M99,944.3c-0.2-1.2-2.6-31.1-2.6-31.1s3.4-1.1,2.6,0c-0.8,1.1,1.7,21,1.7,21l4.9-2.8c0,0-3.8-8.3,1.7-11.8
		c5.6-3.5,13.4,13.6,20.4,11.3c-2.9,4.7-17.1,3.7-21.4,2.1c-2.6-0.2-5,3.1-5,3.1l0.6,8.2L99,944.3L99,944.3z"/>
	<path class="st5" d="M100,941.8c-0.2-1.2-3.1-27.9-3.1-27.9s2.4-1.7,1.6-0.6c-0.8,1.1,2.2,21,2.2,21l4.9-2.8c0,0-3.8-8.3,1.7-11.8
		c5.6-3.5,13.4,13.6,20.4,11.3c-2.9,4.7-8.3-4.2-17.9-0.8c-2.6-0.2-9.1,5.1-9.1,5.1l0.6,3.3L100,941.8z"/>
</g>
<g id="Babnana">
	<path class="st6" d="M61.3,1531.7c0.9,2.1,10.5,29,46.7,29.3c35,0.3,55.4-13.5,58.4-32.1c1.2-7.8,3.4-9.9,6-12.5
		c2.6-2.5-4.7-7.5-6.3-5.2c-1.6,2.3-4.9,6.7-7.9,8.3c-3,1.6-10.1,1.4-15.8,3.9c-8.9,3.8-18.7,16.1-35.6,13.2
		c-17.3-3-15.7-5.6-30-19.5C71.6,1511.9,55.2,1517.6,61.3,1531.7z"/>
	<path class="st7" d="M62,1521.9c0.3,3.4,0,15.7,13.8,23.9c8.1,4.9,25.3,10.8,42.1,8.9c16.8-1.9,34.8-8.7,44-23.5
		c3.6-5.7,0.9-8.5,10-18.2c-5.8,2.6-12.4,11.6-21,11c-8.5-0.6-13.7,13.2-36,15.9c-19.3,2.4-28.9-9.8-36.8-19
		c-5.6-6.6-8.9-5.6-8.9-5.6S61.7,1518.5,62,1521.9z"/>
	<path class="st8" d="M155.4,1521.3c0,0,2.8,2.9,4.7,2.6c1.9-0.3,5.1,2.3,5.9,2.4s2.4-6.5,5.1-8.5c2.6-2,4.3-3.8,3.5-4.8
		s-6.4-4.4-7.4-3.1C166.2,1511.3,157.3,1521.2,155.4,1521.3z"/>
	<path class="st8" d="M63.2,1516c-0.1,0.5-2.2,5.5,0.2,4.3c2.4-1.2,6.5-3,6.8-4.1s-2.5-0.9-3.1-1.3C66.6,1514.5,63.2,1516,63.2,1516
		z"/>
	<g>
		<g>
			<g>
				<path class="st9" d="M64.7,1534c0.1,0.6,0.2,1.1,0.4,1.6c0.1,0.3,0.2,0.5,0.3,0.8c0.1,0.3,0.3,0.6,0.5,0.9
					c0.1,0.2,0.3,0.4,0.5,0.7c0.1,0.2,0.2,0.3,0.4,0.5c0.2,0.3,0.4,0.5,0.6,0.8c0.2,0.3,0.5,0.6,0.7,0.9c0.2,0.3,0.5,0.6,0.8,0.9
					c0.3,0.3,0.6,0.6,0.9,0.9c1.2,1.2,2.5,2.3,4,3.3s3.1,2,4.8,2.9c3.4,1.8,7.3,3.1,11.1,4.2c3.8,1.1,7.6,1.8,11.2,2.4
					c1.8,0.3,3.5,0.4,5.2,0.6c0.8,0,1.6,0.1,2.4,0.1c0.8,0,1.5,0,2.2,0s1.4,0,2,0c0.6,0,1.2,0,1.8,0c0.6,0,1.1-0.1,1.6-0.1
					c0.5,0,0.9,0,1.3-0.1c0.8-0.1,1.4-0.1,1.9-0.2c0.4,0,0.7-0.1,0.7-0.1s0.2,0,0.7-0.1c0.4,0,1-0.1,1.8-0.2
					c0.8-0.1,1.8-0.2,2.9-0.4c1.1-0.2,2.4-0.4,3.7-0.7c2.8-0.6,5.9-1.4,9.3-2.6c0.4-0.1,0.8-0.3,1.3-0.5c0.4-0.2,0.9-0.3,1.3-0.5
					c0.9-0.3,1.7-0.7,2.6-1.1c0.4-0.2,0.9-0.4,1.3-0.6s0.9-0.4,1.3-0.7c0.4-0.2,0.8-0.5,1.2-0.7l0.6-0.3c0.2-0.1,0.4-0.3,0.6-0.4
					c3.3-2,6.3-4.5,8.7-7.2c0.3-0.3,0.6-0.7,0.9-1c0.3-0.3,0.6-0.7,0.9-1c0.5-0.7,1-1.4,1.5-2.1c0.4-0.7,0.9-1.4,1.3-2.2
					c0.2-0.4,0.4-0.7,0.5-1.1c0.2-0.3,0.3-0.7,0.5-1c0.1-0.1,0.1-0.2,0.1-0.3c0-0.1,0.1-0.2,0.1-0.3c0.1-0.2,0.1-0.4,0.2-0.6
					c0.1-0.3,0.2-0.6,0.3-0.8c0.1-0.3,0.2-0.6,0.3-0.9c0.1-0.3,0.1-0.6,0.1-0.8c0.1-0.5,0.1-1,0.1-1.6c-0.3,0.5-0.6,1-0.8,1.5
					c-0.1,0.2-0.2,0.5-0.3,0.8c-0.1,0.3-0.2,0.6-0.4,0.9c-0.1,0.2-0.2,0.4-0.3,0.8c-0.1,0.2-0.1,0.3-0.2,0.5c0,0.1-0.1,0.2-0.1,0.3
					c-0.1,0.1-0.1,0.2-0.1,0.3c-0.1,0.3-0.3,0.6-0.5,1c-0.2,0.3-0.3,0.7-0.5,1c-0.4,0.7-0.8,1.4-1.2,2.1c-0.5,0.7-0.9,1.4-1.5,2.1
					c-0.3,0.3-0.6,0.7-0.8,1c-0.3,0.3-0.5,0.7-0.9,1c-2.4,2.6-5.3,5-8.5,7c-0.2,0.1-0.4,0.3-0.6,0.4l-0.6,0.3
					c-0.4,0.2-0.8,0.5-1.2,0.7c-0.4,0.2-0.8,0.4-1.2,0.6s-0.8,0.4-1.2,0.6c-0.9,0.4-1.7,0.7-2.5,1.1c-0.4,0.2-0.8,0.3-1.2,0.5
					s-0.8,0.3-1.2,0.5c-3.3,1.2-6.4,2-9.1,2.6c-1.3,0.3-2.6,0.5-3.7,0.7c-1.1,0.2-2.1,0.3-2.9,0.4c-0.8,0.1-1.4,0.2-1.8,0.2
					c-0.4,0-0.6,0.1-0.6,0.1s-0.2,0-0.6,0.1s-1,0.1-1.8,0.2c-0.4,0-0.9,0.1-1.3,0.1c-0.5,0-1,0-1.6,0.1c-0.6,0-1.2,0-1.8,0
					c-0.6,0-1.3,0-2,0c-0.7,0-1.4,0-2.2,0s-1.5-0.1-2.3-0.1c-1.6-0.1-3.3-0.3-5.1-0.5c-3.5-0.6-7.3-1.3-11.1-2.4
					c-3.8-1-7.5-2.4-10.8-4.1c-1.7-0.9-3.2-1.8-4.7-2.8c-1.4-1-2.7-2.1-3.9-3.2c-0.3-0.3-0.6-0.6-0.8-0.8c-0.2-0.3-0.5-0.6-0.8-0.8
					c-0.2-0.3-0.5-0.6-0.7-0.8c-0.2-0.3-0.4-0.5-0.6-0.7c-0.1-0.2-0.2-0.3-0.3-0.5c-0.2-0.3-0.4-0.5-0.5-0.7
					c-0.2-0.3-0.4-0.6-0.6-0.8c-0.2-0.3-0.3-0.5-0.5-0.7C65.4,1534.9,65.1,1534.5,64.7,1534z"/>
			</g>
		</g>
	</g>
	<g>
		<g>
			<g>
				<path class="st10" d="M174.3,1514.8c-0.1-0.2-0.2-0.4-0.4-0.6c-0.1-0.2-0.3-0.3-0.5-0.5c-0.2-0.1-0.3-0.3-0.6-0.4
					c-0.1-0.1-0.2-0.1-0.3-0.2c-0.1,0-0.2-0.1-0.4-0.2c-0.5-0.2-1.2-0.2-1.8-0.1c-0.6,0.1-1.2,0.5-1.7,0.9c-0.3,0.3-0.9,0.8-1.6,1.9
					c-0.1,0.1-0.2,0.3-0.3,0.5c-0.1,0.2-0.2,0.3-0.2,0.3s-0.1,0.1-0.2,0.3c-0.1,0.1-0.2,0.3-0.2,0.5c-0.8,1.5-1.1,2.5-1.3,3
					c-0.8,2-0.9,3.2-1,5c1.1-1.6,1.7-2.6,2.5-4.6c0.2-0.5,0.6-1.4,1.3-2.8c0.1-0.1,0.2-0.3,0.2-0.4c0.1-0.1,0.1-0.3,0.1-0.3
					s0.1-0.1,0.2-0.3c0.1-0.2,0.2-0.3,0.3-0.4c0.7-1,1.1-1.4,1.3-1.6c0.4-0.3,0.7-0.5,1-0.7c0.3-0.1,0.7-0.2,1-0.1
					C172.6,1514,173.5,1514.3,174.3,1514.8z"/>
			</g>
		</g>
	</g>
	<g>
		<g>
			<g>
				<path class="st10" d="M63.2,1516c-0.7,0.2-1.1,0.3-1.2,0.5c0,0.1-0.1,0.5-0.3,0.8c0,0.1-0.1,0.2-0.1,0.2s-0.1,0.1-0.1,0.2
					c-0.1,0.1-0.1,0.2-0.1,0.2s0,0-0.1,0.1c0,0-0.1,0.1-0.1,0.2c-0.1,0.1-0.1,0.2-0.2,0.3c0,0.1-0.1,0.1-0.1,0.2
					c0,0.1-0.1,0.1-0.1,0.2c-0.1,0.1-0.1,0.3-0.1,0.5c0,0.2,0,0.3,0,0.4c0,0.3,0.1,0.5,0.1,0.6c0.1,0.4,0.6,0.5,1.3,0.5
					c0.6-0.4,0.9-0.6,0.8-0.8c0-0.1,0-0.2,0-0.3c0,0,0-0.1,0-0.2c0,0,0-0.1,0-0.2c0,0,0,0,0-0.1c0,0,0-0.1,0.1-0.1
					c0,0,0.1-0.1,0.1-0.2c0,0,0.1-0.1,0.1-0.1c0,0,0,0,0,0s0.1-0.1,0.1-0.2c0.1-0.1,0.1-0.1,0.2-0.3c0.1-0.1,0.1-0.2,0.2-0.3
					c0.3-0.5,0.4-1,0.5-1.2C64.2,1516.5,63.9,1516.3,63.2,1516z"/>
			</g>
		</g>
	</g>
</g>
<g id="Babnana_00000051368539087707217060000016906549220810262400_">
	<path class="st6" d="M734.2,1416.2c0.9,2.1,10.5,29,46.7,29.3c35,0.3,55.4-13.5,58.4-32.1c1.2-7.8,3.4-9.9,6-12.5
		c2.6-2.5-4.7-7.5-6.3-5.2c-1.6,2.3-4.9,6.7-7.9,8.3c-3,1.6-10.1,1.4-15.8,3.9c-8.9,3.8-18.7,16.1-35.6,13.2
		c-17.3-3-15.7-5.6-30-19.5C744.5,1396.4,728.2,1402.1,734.2,1416.2z"/>
	<path class="st7" d="M734.9,1406.4c0.3,3.4,0,15.7,13.8,23.9c8.1,4.9,25.3,10.8,42.1,8.9c16.8-1.9,34.8-8.7,44-23.5
		c3.6-5.7,0.9-8.5,10-18.2c-5.8,2.6-12.4,11.6-21,11c-8.5-0.6-13.7,13.2-36,15.9c-19.3,2.4-28.9-9.8-36.8-19
		c-5.6-6.6-8.9-5.6-8.9-5.6S734.7,1403,734.9,1406.4z"/>
	<path class="st8" d="M828.4,1405.8c0,0,2.8,2.9,4.7,2.6c1.9-0.3,5.1,2.3,5.9,2.4s2.4-6.5,5.1-8.5c2.6-2,4.3-3.8,3.5-4.8
		s-6.4-4.4-7.4-3.1C839.1,1395.8,830.3,1405.7,828.4,1405.8z"/>
	<path class="st8" d="M736.1,1400.5c-0.1,0.5-2.2,5.5,0.2,4.3s6.5-3,6.8-4.1s-2.5-0.9-3.1-1.3C739.5,1399,736.1,1400.5,736.1,1400.5
		z"/>
	<g>
		<g>
			<g>
				<path class="st9" d="M737.6,1418.6c0.1,0.6,0.2,1.1,0.4,1.6c0.1,0.3,0.2,0.5,0.3,0.8s0.3,0.6,0.5,0.9c0.1,0.2,0.3,0.4,0.5,0.7
					c0.1,0.2,0.2,0.3,0.4,0.5c0.2,0.3,0.4,0.5,0.6,0.8c0.2,0.3,0.5,0.6,0.7,0.9c0.2,0.3,0.5,0.6,0.8,0.9c0.3,0.3,0.6,0.6,0.9,0.9
					c1.2,1.2,2.5,2.3,4,3.3c1.5,1,3.1,2,4.8,2.9c3.4,1.8,7.3,3.1,11.1,4.2c3.8,1.1,7.6,1.8,11.2,2.4c1.8,0.3,3.5,0.4,5.2,0.6
					c0.8,0,1.6,0.1,2.4,0.1c0.8,0,1.5,0,2.2,0s1.4,0,2,0c0.6,0,1.2,0,1.8,0c0.6,0,1.1-0.1,1.6-0.1c0.5,0,0.9,0,1.3-0.1
					c0.8-0.1,1.4-0.1,1.9-0.2s0.7-0.1,0.7-0.1s0.2,0,0.7-0.1s1-0.1,1.8-0.2c0.8-0.1,1.8-0.2,2.9-0.4c1.1-0.2,2.4-0.4,3.7-0.7
					c2.8-0.6,5.9-1.4,9.3-2.6c0.4-0.1,0.8-0.3,1.3-0.5c0.4-0.2,0.9-0.3,1.3-0.5c0.9-0.3,1.7-0.7,2.6-1.1c0.4-0.2,0.9-0.4,1.3-0.6
					c0.4-0.2,0.9-0.4,1.3-0.7s0.8-0.5,1.2-0.7l0.6-0.3c0.2-0.1,0.4-0.3,0.6-0.4c3.3-2,6.3-4.5,8.7-7.2c0.3-0.3,0.6-0.7,0.9-1
					c0.3-0.3,0.6-0.7,0.9-1c0.5-0.7,1-1.4,1.5-2.1c0.4-0.7,0.9-1.4,1.3-2.2c0.2-0.4,0.4-0.7,0.5-1.1c0.2-0.3,0.3-0.7,0.5-1
					c0.1-0.1,0.1-0.2,0.1-0.3c0-0.1,0.1-0.2,0.1-0.3c0.1-0.2,0.1-0.4,0.2-0.6c0.1-0.3,0.2-0.6,0.3-0.8c0.1-0.3,0.2-0.6,0.3-0.9
					c0.1-0.3,0.1-0.6,0.1-0.8c0.1-0.5,0.1-1,0.1-1.6c-0.3,0.5-0.6,1-0.8,1.5c-0.1,0.2-0.2,0.5-0.3,0.8c-0.1,0.3-0.2,0.6-0.4,0.9
					c-0.1,0.2-0.2,0.4-0.3,0.8c-0.1,0.2-0.1,0.3-0.2,0.5c0,0.1-0.1,0.2-0.1,0.3c-0.1,0.1-0.1,0.2-0.1,0.3c-0.1,0.3-0.3,0.6-0.5,1
					c-0.2,0.3-0.3,0.7-0.5,1c-0.4,0.7-0.8,1.4-1.2,2.1c-0.5,0.7-0.9,1.4-1.5,2.1c-0.3,0.3-0.6,0.7-0.8,1c-0.3,0.3-0.5,0.7-0.9,1
					c-2.4,2.6-5.3,5-8.5,7c-0.2,0.1-0.4,0.3-0.6,0.4l-0.6,0.3c-0.4,0.2-0.8,0.5-1.2,0.7c-0.4,0.2-0.8,0.4-1.2,0.6
					c-0.4,0.2-0.8,0.4-1.2,0.6c-0.9,0.4-1.7,0.7-2.5,1.1c-0.4,0.2-0.8,0.3-1.2,0.5c-0.4,0.2-0.8,0.3-1.2,0.5c-3.3,1.2-6.4,2-9.1,2.6
					c-1.3,0.3-2.6,0.5-3.7,0.7c-1.1,0.2-2.1,0.3-2.9,0.4c-0.8,0.1-1.4,0.2-1.8,0.2c-0.4,0-0.6,0.1-0.6,0.1s-0.2,0-0.6,0.1
					c-0.4,0-1,0.1-1.8,0.2c-0.4,0-0.9,0.1-1.3,0.1c-0.5,0-1,0-1.6,0.1c-0.6,0-1.2,0-1.8,0c-0.6,0-1.3,0-2,0c-0.7,0-1.4,0-2.2,0
					c-0.7,0-1.5-0.1-2.3-0.1c-1.6-0.1-3.3-0.3-5.1-0.5c-3.5-0.6-7.3-1.3-11.1-2.4c-3.8-1-7.5-2.4-10.8-4.1c-1.7-0.9-3.2-1.8-4.7-2.8
					c-1.4-1-2.7-2.1-3.9-3.2c-0.3-0.3-0.6-0.6-0.8-0.8c-0.2-0.3-0.5-0.6-0.8-0.8c-0.2-0.3-0.5-0.6-0.7-0.8c-0.2-0.3-0.4-0.5-0.6-0.7
					c-0.1-0.2-0.2-0.3-0.3-0.5c-0.2-0.3-0.4-0.5-0.5-0.7c-0.2-0.3-0.4-0.6-0.6-0.8c-0.2-0.3-0.3-0.5-0.5-0.7
					C738.4,1419.5,738.1,1419.1,737.6,1418.6z"/>
			</g>
		</g>
	</g>
	<g>
		<g>
			<g>
				<path class="st10" d="M847.3,1399.4c-0.1-0.2-0.2-0.4-0.4-0.6c-0.1-0.2-0.3-0.3-0.5-0.5c-0.2-0.1-0.3-0.3-0.6-0.4
					c-0.1-0.1-0.2-0.1-0.3-0.2c-0.1,0-0.2-0.1-0.4-0.2c-0.5-0.2-1.2-0.2-1.8-0.1c-0.6,0.1-1.2,0.5-1.7,0.9c-0.3,0.3-0.9,0.8-1.6,1.9
					c-0.1,0.1-0.2,0.3-0.3,0.5c-0.1,0.2-0.2,0.3-0.2,0.3s-0.1,0.1-0.2,0.3c-0.1,0.1-0.2,0.3-0.2,0.5c-0.8,1.5-1.1,2.5-1.3,3
					c-0.8,2-0.9,3.2-1,5c1.1-1.6,1.7-2.6,2.5-4.6c0.2-0.5,0.6-1.4,1.3-2.8c0.1-0.1,0.2-0.3,0.2-0.4c0.1-0.1,0.1-0.3,0.1-0.3
					s0.1-0.1,0.2-0.3c0.1-0.2,0.2-0.3,0.3-0.4c0.7-1,1.1-1.4,1.3-1.6c0.4-0.3,0.7-0.5,1-0.7s0.7-0.2,1-0.1
					C845.6,1398.5,846.4,1398.8,847.3,1399.4z"/>
			</g>
		</g>
	</g>
	<g>
		<g>
			<g>
				<path class="st10" d="M736.1,1400.5c-0.7,0.2-1.1,0.3-1.2,0.5c0,0.1-0.1,0.5-0.3,0.8c0,0.1-0.1,0.2-0.1,0.2
					c-0.1,0.1-0.1,0.1-0.1,0.2c-0.1,0.1-0.1,0.2-0.1,0.2s0,0-0.1,0.1c0,0-0.1,0.1-0.1,0.2c-0.1,0.1-0.1,0.2-0.2,0.3
					c0,0.1-0.1,0.1-0.1,0.2s-0.1,0.1-0.1,0.2c-0.1,0.1-0.1,0.3-0.1,0.5c0,0.2,0,0.3,0,0.4c0,0.3,0.1,0.5,0.1,0.6
					c0.1,0.4,0.6,0.5,1.3,0.5c0.6-0.4,0.9-0.6,0.8-0.8c0-0.1,0-0.2,0-0.3c0,0,0-0.1,0-0.2c0,0,0-0.1,0-0.2c0,0,0,0,0-0.1
					c0,0,0-0.1,0.1-0.1c0,0,0.1-0.1,0.1-0.2c0,0,0.1-0.1,0.1-0.1s0,0,0,0s0.1-0.1,0.1-0.2c0.1-0.1,0.1-0.1,0.2-0.3
					c0.1-0.1,0.1-0.2,0.2-0.3c0.3-0.5,0.4-1,0.5-1.2C737.2,1401,736.8,1400.8,736.1,1400.5z"/>
			</g>
		</g>
	</g>
</g>
<g id="Babnana_00000134941709171865516740000008045798794526575503_">
	<path class="st6" d="M336.5,1386.1c0.9,2.1,10.5,29,46.7,29.3c35,0.3,55.4-13.5,58.4-32.1c1.2-7.8,3.4-9.9,6-12.5
		c2.6-2.5-4.7-7.5-6.3-5.2c-1.6,2.3-4.9,6.7-7.9,8.3c-3,1.6-10.1,1.4-15.8,3.9c-8.9,3.8-18.7,16.1-35.6,13.2
		c-17.3-3-15.7-5.6-30-19.5C346.8,1366.3,330.4,1372,336.5,1386.1z"/>
	<path class="st7" d="M337.2,1376.3c0.3,3.4,0,15.7,13.8,23.9c8.1,4.9,25.3,10.8,42.1,8.9c16.8-1.9,34.8-8.7,44-23.5
		c3.6-5.7,0.9-8.5,10-18.2c-5.8,2.6-12.4,11.6-21,11c-8.5-0.6-13.7,13.2-36,15.9c-19.3,2.4-28.9-9.8-36.8-19
		c-5.6-6.6-8.9-5.6-8.9-5.6S336.9,1372.9,337.2,1376.3z"/>
	<path class="st8" d="M430.6,1375.7c0,0,2.8,2.9,4.7,2.6s5.1,2.3,5.9,2.4c0.9,0.1,2.4-6.5,5.1-8.5c2.6-2,4.3-3.8,3.5-4.8
		c-0.9-1-6.4-4.4-7.4-3.1C441.4,1365.7,432.5,1375.6,430.6,1375.7z"/>
	<path class="st8" d="M338.4,1370.4c-0.1,0.5-2.2,5.5,0.2,4.3c2.4-1.2,6.5-3,6.8-4.1c0.3-1-2.5-0.9-3.1-1.3
		C341.8,1368.9,338.4,1370.4,338.4,1370.4z"/>
	<g>
		<g>
			<g>
				<path class="st9" d="M339.9,1388.5c0.1,0.6,0.2,1.1,0.4,1.6c0.1,0.3,0.2,0.5,0.3,0.8c0.1,0.3,0.3,0.6,0.5,0.9
					c0.1,0.2,0.3,0.4,0.5,0.7c0.1,0.2,0.2,0.3,0.4,0.5c0.2,0.3,0.4,0.5,0.6,0.8c0.2,0.3,0.5,0.6,0.7,0.9c0.2,0.3,0.5,0.6,0.8,0.9
					c0.3,0.3,0.6,0.6,0.9,0.9c1.2,1.2,2.5,2.3,4,3.3c1.5,1,3.1,2,4.8,2.9c3.4,1.8,7.3,3.1,11.1,4.2c3.8,1.1,7.6,1.8,11.2,2.4
					c1.8,0.3,3.5,0.4,5.2,0.6c0.8,0,1.6,0.1,2.4,0.1c0.8,0,1.5,0,2.2,0c0.7,0,1.4,0,2,0c0.6,0,1.2,0,1.8,0c0.6,0,1.1-0.1,1.6-0.1
					s0.9,0,1.3-0.1c0.8-0.1,1.4-0.1,1.9-0.2s0.7-0.1,0.7-0.1s0.2,0,0.7-0.1s1-0.1,1.8-0.2s1.8-0.2,2.9-0.4c1.1-0.2,2.4-0.4,3.7-0.7
					c2.8-0.6,5.9-1.4,9.3-2.6c0.4-0.1,0.8-0.3,1.3-0.5c0.4-0.2,0.9-0.3,1.3-0.5c0.9-0.3,1.7-0.7,2.6-1.1c0.4-0.2,0.9-0.4,1.3-0.6
					c0.4-0.2,0.9-0.4,1.3-0.7c0.4-0.2,0.8-0.5,1.2-0.7l0.6-0.3c0.2-0.1,0.4-0.3,0.6-0.4c3.3-2,6.3-4.5,8.7-7.2
					c0.3-0.3,0.6-0.7,0.9-1c0.3-0.3,0.6-0.7,0.9-1c0.5-0.7,1-1.4,1.5-2.1c0.4-0.7,0.9-1.4,1.3-2.2c0.2-0.4,0.4-0.7,0.5-1.1
					c0.2-0.3,0.3-0.7,0.5-1c0.1-0.1,0.1-0.2,0.1-0.3c0-0.1,0.1-0.2,0.1-0.3c0.1-0.2,0.1-0.4,0.2-0.6c0.1-0.3,0.2-0.6,0.3-0.8
					c0.1-0.3,0.2-0.6,0.3-0.9c0.1-0.3,0.1-0.6,0.1-0.8c0.1-0.5,0.1-1,0.1-1.6c-0.3,0.5-0.6,1-0.8,1.5c-0.1,0.2-0.2,0.5-0.3,0.8
					c-0.1,0.3-0.2,0.6-0.4,0.9c-0.1,0.2-0.2,0.4-0.3,0.8c-0.1,0.2-0.1,0.3-0.2,0.5c0,0.1-0.1,0.2-0.1,0.3c-0.1,0.1-0.1,0.2-0.1,0.3
					c-0.1,0.3-0.3,0.6-0.5,1c-0.2,0.3-0.3,0.7-0.5,1c-0.4,0.7-0.8,1.4-1.2,2.1c-0.5,0.7-0.9,1.4-1.5,2.1c-0.3,0.3-0.6,0.7-0.8,1
					c-0.3,0.3-0.5,0.7-0.9,1c-2.4,2.6-5.3,5-8.5,7c-0.2,0.1-0.4,0.3-0.6,0.4l-0.6,0.3c-0.4,0.2-0.8,0.5-1.2,0.7
					c-0.4,0.2-0.8,0.4-1.2,0.6c-0.4,0.2-0.8,0.4-1.2,0.6c-0.9,0.4-1.7,0.7-2.5,1.1c-0.4,0.2-0.8,0.3-1.2,0.5
					c-0.4,0.2-0.8,0.3-1.2,0.5c-3.3,1.2-6.4,2-9.1,2.6c-1.3,0.3-2.6,0.5-3.7,0.7c-1.1,0.2-2.1,0.3-2.9,0.4c-0.8,0.1-1.4,0.2-1.8,0.2
					c-0.4,0-0.6,0.1-0.6,0.1s-0.2,0-0.6,0.1c-0.4,0-1,0.1-1.8,0.2c-0.4,0-0.9,0.1-1.3,0.1c-0.5,0-1,0-1.6,0.1c-0.6,0-1.2,0-1.8,0
					c-0.6,0-1.3,0-2,0c-0.7,0-1.4,0-2.2,0c-0.7,0-1.5-0.1-2.3-0.1c-1.6-0.1-3.3-0.3-5.1-0.5c-3.5-0.6-7.3-1.3-11.1-2.4
					c-3.8-1-7.5-2.4-10.8-4.1c-1.7-0.9-3.2-1.8-4.7-2.8c-1.4-1-2.7-2.1-3.9-3.2c-0.3-0.3-0.6-0.6-0.8-0.8c-0.2-0.3-0.5-0.6-0.8-0.8
					c-0.2-0.3-0.5-0.6-0.7-0.8c-0.2-0.3-0.4-0.5-0.6-0.7c-0.1-0.2-0.2-0.3-0.3-0.5c-0.2-0.3-0.4-0.5-0.5-0.7
					c-0.2-0.3-0.4-0.6-0.6-0.8c-0.2-0.3-0.3-0.5-0.5-0.7C340.6,1389.4,340.3,1389,339.9,1388.5z"/>
			</g>
		</g>
	</g>
	<g>
		<g>
			<g>
				<path class="st10" d="M449.5,1369.3c-0.1-0.2-0.2-0.4-0.4-0.6c-0.1-0.2-0.3-0.3-0.5-0.5c-0.2-0.1-0.3-0.3-0.6-0.4
					c-0.1-0.1-0.2-0.1-0.3-0.2c-0.1,0-0.2-0.1-0.4-0.2c-0.5-0.2-1.2-0.2-1.8-0.1c-0.6,0.1-1.2,0.5-1.7,0.9c-0.3,0.3-0.9,0.8-1.6,1.9
					c-0.1,0.1-0.2,0.3-0.3,0.5c-0.1,0.2-0.2,0.3-0.2,0.3s-0.1,0.1-0.2,0.3c-0.1,0.1-0.2,0.3-0.2,0.5c-0.8,1.5-1.1,2.5-1.3,3
					c-0.8,2-0.9,3.2-1,5c1.1-1.6,1.7-2.6,2.5-4.6c0.2-0.5,0.6-1.4,1.3-2.8c0.1-0.1,0.2-0.3,0.2-0.4c0.1-0.1,0.1-0.3,0.1-0.3
					s0.1-0.1,0.2-0.3c0.1-0.2,0.2-0.3,0.3-0.4c0.7-1,1.1-1.4,1.3-1.6c0.4-0.3,0.7-0.5,1-0.7c0.3-0.1,0.7-0.2,1-0.1
					C447.8,1368.4,448.6,1368.7,449.5,1369.3z"/>
			</g>
		</g>
	</g>
	<g>
		<g>
			<g>
				<path class="st10" d="M338.4,1370.4c-0.7,0.2-1.1,0.3-1.2,0.5c0,0.1-0.1,0.5-0.3,0.8c0,0.1-0.1,0.2-0.1,0.2
					c-0.1,0.1-0.1,0.1-0.1,0.2c-0.1,0.1-0.1,0.2-0.1,0.2s0,0-0.1,0.1s-0.1,0.1-0.1,0.2c-0.1,0.1-0.1,0.2-0.2,0.3
					c0,0.1-0.1,0.1-0.1,0.2c0,0.1-0.1,0.1-0.1,0.2c-0.1,0.1-0.1,0.3-0.1,0.5c0,0.2,0,0.3,0,0.4c0,0.3,0.1,0.5,0.1,0.6
					c0.1,0.4,0.6,0.5,1.3,0.5c0.6-0.4,0.9-0.6,0.8-0.8c0-0.1,0-0.2,0-0.3c0,0,0-0.1,0-0.2c0,0,0-0.1,0-0.2c0,0,0,0,0-0.1
					c0,0,0-0.1,0.1-0.1c0,0,0.1-0.1,0.1-0.2c0,0,0.1-0.1,0.1-0.1c0,0,0,0,0,0s0.1-0.1,0.1-0.2c0.1-0.1,0.1-0.1,0.2-0.3
					c0.1-0.1,0.1-0.2,0.2-0.3c0.3-0.5,0.4-1,0.5-1.2C339.4,1370.9,339.1,1370.7,338.4,1370.4z"/>
			</g>
		</g>
	</g>
</g>
<g id="Pera">
	<path class="st11" d="M548.9,1361.5c-9.3,0.5-20.3-1-17.5,17.5c2.9,19.9-4.5,21.4-4.7,28.8c-0.2,6.8-1.2,25.4,22.6,26
		c19.1,0.5,39.1-4.7,35.2-26c-2.9-15.9-16.2-18.4-20.5-26.7C559.7,1372.8,557.7,1361.1,548.9,1361.5z"/>
	<path class="st12" d="M547.6,1367.1c-9.6-4.6-16.9,1-14,14.7c1.1,5.1-4.9,16.5-5.1,23.9c-0.2,6.8,6.2,19.6,20.6,18.3
		c9.6-0.9,34.6,2.8,32.7-20c-1.2-13.9-16.8-12.4-19.5-24.4C559.1,1364.8,550.6,1356.1,547.6,1367.1z"/>
	<path class="st8" d="M532.1,1347.4c0.8,0,6.6,3.7,6.6,3.7s3.7,14.1,4.2,14.1s2.8,1.2,2.4,0c-0.4-1.2-4.8-14.4-4.8-14.4
		s2.4-5.5,4.1-7.2c-2.2,1.8-5.1,5.7-5.1,5.7l-6.2-3.6L532.1,1347.4z"/>
	<path class="st13" d="M574,1402.8c-1.9,2.4-6.1,0.2-10.6-3.4c-4.6-3.6-6.7-8.4-4.9-10.8c1.9-2.4,7.1-1.4,11.6,2.2
		c4.6,3.6,6.7,8.4,4.9,10.8"/>
</g>
<g id="Computador">
	<path class="st14" d="M-623.1,298c0,0-0.9-2,1.4-1.9c2.3,0.2,54.4,2.6,54.4,2.6s1.4,0.3,2,2s10.8,39.8,10.8,39.8s1,2.4,0,2.7
		s-49.5,12.1-49.5,12.1s-3.9,3.2-5-1.8C-610.1,348.5-623.1,298-623.1,298z"/>
	<path class="st15" d="M-607.4,353.8l-0.9,1.9l1.9,1.1l48.2,11.2c0,0,1.3,1.2,4.3,0c3-1.2,44-17.4,44-17.4s2-1,1.6-2.3
		c-0.4-1.3-43.3-5.9-43.3-5.9s-2.5,0.2-5.3,0.9C-559.8,343.9-607.4,353.8-607.4,353.8z"/>
	<path class="st16" d="M-554.6,366.1h-2.5l-50.4-12.2l-0.8,1.8l1.9,1.1l48.2,11.2c0,0,1.3,1.2,4.3,0c3-1.2,44-17.4,44-17.4
		s1.8-0.9,1.6-2.1L-554.6,366.1z"/>
	<polygon class="st17" points="-620.1,300.4 -607.2,350.9 -555.8,340.4 -565.9,302.5 	"/>
	<path class="st16" d="M-555.8,356.4c0.3-0.1,14,3.2,14,3.2l16.4-6.2l-12.3-2.5L-555.8,356.4z"/>
	<polygon class="st18" points="-597.6,354.5 -575.7,359.1 -529.3,346 -550,343.6 	"/>
	<path class="st19" d="M-594.7,355.1c0,0.6,47.9-11.2,47.9-11.2"/>
	<line class="st19" x1="-589.5" y1="356.3" x2="-542.4" y2="344.3"/>
	<line class="st19" x1="-584.6" y1="357.3" x2="-537.7" y2="345"/>
	<line class="st19" x1="-579.7" y1="358.4" x2="-534" y2="345.4"/>
</g>
<g id="Lampara">
	<path class="st17" d="M-762.5,509.3c0,0,0,3.1,0,3.5s3.4,4.2,3.4,4.2l-3.4,1c0,0,0.3,4.6,1.1,3.9c0.9-0.7,4.3-0.8,4.3-0.8l3.1-3.1
		L-762.5,509.3z"/>
	<path class="st17" d="M-805.4,528.5c0.9-0.3,46.3-9,46.3-9V517l-47.6,9.7L-805.4,528.5z"/>
	<path class="st17" d="M-806.7,530.8l3.9-0.9c0,0,19.7,50.3,19.6,51.2c-0.1,0.9-0.1,2.7-0.1,2.7s-5.1,0.3-5.1,0c0-0.3,0-5.5,0-5.5
		L-806.7,530.8z"/>
	<path class="st17" d="M-810.1,526.1c0,0.4,0,6.7,0,6.7l3.4,2.7l7.9-1.1l0.9-3.6l-4.2-7L-810.1,526.1z"/>
	<path class="st20" d="M-754,518l-8.5-8.7c0,0-4.2-4.3-0.6-8.3c3.6-4.1,7.5-1.5,8.6-0.8c1.1,0.7,9.5,8.1,9.5,8.1L-754,518z"/>
	<path class="st20" d="M-746.8,535.6c0,0-9.2-9.2-7-20.2c1.4-7,6.1-7,6.1-7s11.6-0.8,20.7,7.1C-732.1,522.8-746.8,535.6-746.8,535.6
		z"/>
	<path class="st21" d="M-759.8,501.6c0.1,0.2,8.8,8.2,8.8,8.2s12.7,3,16.6,8.2c2-1,5.3-2.4,5.3-2.4s-8.6-6.7-19.7-7
		c-2-1.7-9.7-8.5-9.7-8.5S-760.7,500.2-759.8,501.6z"/>
	
		<ellipse transform="matrix(0.7071 -0.7071 0.7071 0.7071 -587.4139 -367.1375)" class="st22" cx="-736.9" cy="525.5" rx="13.4" ry="3.3"/>
	<path class="st17" d="M-790.1,591.4h-6.3v5.4c0,1.9,6.8,3.3,15.2,3.3c8.4,0,15.2-1.5,15.2-3.3v-5.4H-790.1z"/>
	<ellipse class="st23" cx="-781.2" cy="591.4" rx="15.2" ry="3.3"/>
	<path class="st17" d="M-783.7,579.9c0,0-7.9,1.9-7.9,2.4c0,0.4-1.3,9.2-1.3,9.2l13.1,0.8l2.2-1.2l-2.6-7.6L-783.7,579.9z"/>
</g>
<g id="Silla">
	<g>
		<path class="st17" d="M34.6,92.1c-0.3,1.3-0.6,2.6-0.8,3.8c-0.2,1.4-2.2,2.6-3.3,2.4c-0.3-0.1-0.7-0.3-0.9-0.6
			c-0.5-0.8-1-1.7-1.4-2.5c-0.1-0.3-0.2-0.7-0.1-1c0.3-0.7,0.7-1.6,1.3-1.9c1-0.6,1.6-1.2,1.7-2.5c0-0.4,0.7-1,1.3-1.2
			c1.7-0.7,3.5-1.2,5.3-1.7c3.2-1,6.4-2,9.7-3.1c0.2-0.1,0.4-0.2,0.7-0.3c-1-1-2-1.9-2.9-2.8c-0.7,0.4-1.2,0.8-1.9,1.1
			c-0.9,0.4-1.5,0.2-1.9-0.7c-0.3-0.6-0.4-1.2-0.5-1.8c0-1.3,0.1-2.6,0.1-3.9c0-1.2,1.1-1.8,2-1.1c2,1.4,3.9,2.9,5.8,4.3
			c0.3,0.2,0.7,0.4,0.9,0.3c0.2-0.1,0.3-0.6,0.3-0.9c0.1-2.3,0.1-4.6,0.2-6.9c0-0.9,0.1-1.7,0-2.6c0-1.4,0.4-2.5,1.6-3.3
			c0.2-0.2,0.2-0.9,0.2-1.3c0-0.2-0.3-0.4-0.6-0.5c-1.8-0.5-3.7-1-5.5-1.5c-0.2-0.1-0.6,0.1-0.7,0.2c-0.7,0.6-1.4,1.3-2,2
			c-0.1,0.1-0.3,0.3-0.3,0.4c0.3,1.4-0.9,1.8-1.6,2.6c-0.8,0.9-1.8,1.7-2.7,2.6c-0.4,0.4-0.7,0.4-1.2,0.1c-2-1.1-1.6-2.2-0.2-3.2
			c1.4-1,2.8-2.4,4.4-2.8c1.5-0.4,2-1.7,3.4-2.4c-1-0.5-1.7-0.8-2.5-1.2c-2.5-1.4-5-2.7-7.4-4.2c-1.6-0.9-2.2-2.3-1.9-3.8
			c0.3-1.2,1.1-1.9,2-2.5c0.8-0.5,1.7-1,2.7-1.6c-0.2-0.6-0.5-1.1-0.7-1.7c-0.2-0.6-0.4-1.3-0.5-1.9c-0.1-0.9-0.2-1.9-0.3-2.8
			c-0.1-1.7-0.1-3.4-0.2-5.1c0-1.5,0-3,0-4.5c-2,0.3-3.9,0.6-5.7,0.7c-2.7,0.2-3.9-0.6-5-3.3c-1.3-3.2-1.5-6.5-1.2-9.9
			c0.2-2.1,0.6-4.1,1.5-5.9c1.1-2.2,2.7-3.4,5.2-3.5c5.1,0,10.3-0.1,15.4-0.3c1.6,0,3,0.6,4.1,1.8c3.4,4,4.7,8.7,3.2,14
			c-0.7,2.5-2.4,3.9-4.8,4.3c-2.2,0.3-4.4,0.6-6.6,0.9c-0.8,0.1-1.4,0.3-1.3,1.5c0.2,3.2,0.1,6.4,0.2,9.6c0,1.3,0.3,2.6,1,3.9
			c0.3,0.6,0.6,0.6,1.1,0.5c4-1,8-2.2,12.1-3c4-0.7,8.1-0.3,12.1,0.7c3,0.7,5.9,1.7,8.6,3.3c1.4,0.8,2.7,1.7,3.4,3.4
			c0.4,1.1,0.4,2.1-0.2,3.1c-1.2,2-3,3.4-4.8,4.5c-5.9,3.5-12.1,5.8-19,5.2c-0.8-0.1-1,0.2-0.8,0.9c0,0.1,0,0.3,0.1,0.3
			c2,1.2,1.6,3.3,1.7,5.2c0,2.6,0,5.2,0,7.7c0,0.3,0.1,0.5,0.2,0.7c0.3-0.1,0.5-0.2,0.7-0.4c1.4-1.2,2.9-2.4,4.3-3.6
			c0.3-0.2,0.5-0.4,0.8-0.6c0.9-0.6,2,0,2,1.2c0,1,0,2.1,0.6,3c0.2,0.3,0.2,0.6,0.2,1c0.2,1.8-0.3,2.5-2,2.7c-1.1,0.1-1.3,0-1.8-1.1
			c-0.1-0.2-0.2-0.5-0.3-0.8c-1,1.2-1.9,2.3-2.8,3.4c-0.1,0-0.2-0.1-0.2-0.1c0.2,0.1,0.4,0.2,0.7,0.3c4.8,1.5,9.6,2.9,14.3,4.4
			c0.5,0.2,1,0.3,1.4,0.6c0.3,0.2,0.7,0.6,0.7,0.9c0,0.8,0.4,1.2,1.1,1.5c0.8,0.3,1.3,1,1.3,2c0,0.8,0.1,1.6,0.2,2.4
			c-0.2-0.1-0.3-0.1-0.3-0.2c0,0.1-0.1,0.2-0.1,0.3c-0.6,1.9-2.4,2.4-3.9,1.1c-0.6-0.5-0.7-1.2-0.5-2c-1-0.3-1.1-1.2-1.1-2
			c0-0.6-0.2-0.9-0.8-1c-4.2-0.9-8.3-1.9-12.5-2.9c-0.7-0.2-1.5-0.2-2.3-0.1c-0.9,0.1-1.2,0.6-1.2,1.6c0.1,3.3,0.3,6.6,0.4,9.9
			c0,1,0,2,0.1,3c0.1,1.1,0.2,2.2,0.7,3.3c0.7,1.3,0.8,3,0.4,4.5c-0.3,1.3-2.3,2.6-3.5,2.2c-0.5-0.2-1-0.6-1.2-1.1
			c-0.7-1.9-1.3-3.8-0.3-5.8c0.1-0.3,0-0.7,0-1c-0.1-4.9-0.1-9.9-0.2-14.8c0-1.4-0.9-2.1-2.2-1.8c-3.8,0.9-7.5,1.8-11.2,2.6
			C36.7,91.6,35.6,91.9,34.6,92.1z"/>
	</g>
	<path class="st24" d="M33.7,53.1c0,0,9.5,6.1,12.2,7.2c2.7,1.1,10,3.5,16,2c6-1.5,15.8-6.4,17.2-10.2c1.3-3.8-7.2-7.7-14.1-9
		c-9.8-1.9-18,2.5-21.8,3.4C41.6,46.8,30.4,49.9,33.7,53.1z"/>
	<path class="st24" d="M25.7,22.5c0,0.6,0,8.5,3.1,9.9c4.4,2,13.9,0,20.8-0.9c4.7-0.6,4.9-6.8,4.6-11.9c-0.5-6.5-2.1-9.8-7.7-9.6
		s-14-0.1-15.4,0.3C28,11,25.9,13.7,25.7,22.5z"/>
	<path class="st25" d="M31.6,89.1c0,0,0.6,1.1,2.7,0.5c2.1-0.5,12.3-3.2,12.3-3.2L45,84.6L31.6,89.1z"/>
	<path class="st25" d="M74.4,88.8c0,0-0.6,1.1-2.7,0.5c-2.1-0.5-12.3-3.2-12.3-3.2l1.6-1.6L74.4,88.8z"/>
	<path class="st25" d="M47,78.9c-0.3-0.2-5-3.9-5-3.9s-0.7-2,2.2,0.1c2.8,2.1,4.7,3.5,4.7,3.5L47,78.9z"/>
	<path class="st25" d="M58.4,78.9c0.3-0.2,5-3.9,5-3.9s0.7-2-2.2,0.1c-2.8,2.1-4.7,3.5-4.7,3.5L58.4,78.9z"/>
	<path class="st25" d="M51.9,93.2c0,0,0,11.6,0.2,12.5c0.3,0.9,3.2,1.5,3.1-0.5c-0.2-3.5-0.7-11.4-0.7-11.4L51.9,93.2z"/>
</g>
<image style="overflow:visible;" width="95" height="118" xlink:href="../Proyecto Gamificacion/vue-version/practicando vue 3/src/assets/img/ani4.png"  transform="matrix(1 0 0 1 51.5 456.4679)">
</image>
<image style="overflow:visible;" width="133" height="114" xlink:href="../Proyecto Gamificacion/vue-version/practicando vue 3/src/assets/img/fresa.png"  transform="matrix(0.8986 0 0 0.8986 777.6426 959.8181)">
</image>
<image style="overflow:visible;" width="133" height="114" xlink:href="../Proyecto Gamificacion/vue-version/practicando vue 3/src/assets/img/naranja.png"  transform="matrix(1 0 0 1 274.8063 1173.7386)">
</image>
<image style="overflow:visible;" width="117" height="113" xlink:href="../Proyecto Gamificacion/vue-version/practicando vue 3/src/assets/img/uvas.png"  transform="matrix(1 0 0 1 480.2143 954.5386)">
</image>
<image style="overflow:visible;" width="106" height="116" xlink:href="../Proyecto Gamificacion/vue-version/practicando vue 3/src/assets/img/ani1.png"  transform="matrix(1 0 0 1 -206.5307 356.4679)">
</image>
<image style="overflow:visible;" width="139" height="130" xlink:href="../Proyecto Gamificacion/vue-version/practicando vue 3/src/assets/img/ani2.png"  transform="matrix(1 0 0 1 -692.2858 -38.5321)">
</image>
<image style="overflow:visible;" width="103" height="121" xlink:href="../Proyecto Gamificacion/vue-version/practicando vue 3/src/assets/img/ani3.png"  transform="matrix(1 0 0 1 -362.5714 -451.9326)">
</image>
</svg>
