<svg id="HOSPITAL" xmlns="http://www.w3.org/2000/svg" viewBox="0 0 124.1 77.1"><defs><style>.cls-1{fill:#2bc354;}.cls-2{fill:#06951b;}.cls-3{isolation:isolate;}.cls-4{fill:#d5aa28;}.cls-5{fill:#c29a25;}.cls-6{fill:#c49c25;}.cls-7{fill:#f0bf2d;}.cls-8{fill:#d2a728;}.cls-9{fill:#c19a24;}</style></defs><path class="cls-1" d="M115.3,30,71.6,4.5a17.1,17.1,0,0,0-17.2,0l-44,25.3a16.9,16.9,0,0,0-7.6,9,16.6,16.6,0,0,0,7.6,9L53.5,72.7a17.2,17.2,0,0,0,16.9.2L115,48.2a17,17,0,0,0,7.8-9.2A17.2,17.2,0,0,0,115.3,30Z"/><ellipse class="cls-2" cx="63" cy="45" rx="23.8" ry="12.7"/><g class="cls-3"><polygon class="cls-4" points="75.6 21.4 61.8 13.6 73.1 9.8 86.9 17.7 75.6 21.4"/><polygon class="cls-5" points="60 53.6 46.2 45.8 48.3 31.5 62.1 39.4 60 53.6"/><polygon class="cls-6" points="65.4 26.5 51.6 18.7 56.9 4.1 70.7 11.9 65.4 26.5"/><polygon class="cls-7" points="54 34.1 65.4 26.5 70.7 11.9 75.6 21.4 86.9 17.7 78.6 31.2 80.3 43.5 70.2 42.3 60 53.6 62.1 39.4 54 34.1"/><polygon class="cls-8" points="54 34.1 40.2 26.3 51.6 18.7 65.4 26.5 54 34.1"/><polygon class="cls-9" points="62.1 39.4 48.3 31.5 40.2 26.3 54 34.1 62.1 39.4"/></g></svg>